<svg xmlns="http://www.w3.org/2000/svg" viewBox="0 0 412 248"><path d="M-.046-.042h412v248h-412z"/><path d="M411.771 161.311c-.586.226-1.167.463-1.741.718-7.95-21.94-29-37.65-53.75-37.65-25.43 0-46.99 16.56-54.36 39.41l-59.42 34.77h169.271v-37.248z" fill="#1f1f1f"/><path d="M324.242 179.255H-.331v-39.963c0-17.768 14.404-32.172 32.172-32.172h9.866l29.751-29.596c6.173-6.141 13.176-11.441 20.972-15.32 13.168-6.552 28.022-10.249 43.736-10.249 42.468 0 78.604 26.973 92.228 64.619 8.391-3.723 17.588-5.628 27.214-5.628 37.921 0 68.635 30.491 68.635 68.309z" fill="#1f1f1f"/><path fill="#1f1f1f" d="M.242 166.236h411.623v81.317H.242zm353.105-79.634h-41.123c0-4.057 3.293-7.33 7.35-7.33 1.3 0 2.526.337 3.588.929a10.508 10.508 0 0110.007-7.256c4.556 0 8.432 2.893 9.895 6.932a7.17 7.17 0 012.919-.605c4.069 0 7.364 3.273 7.364 7.33z"/><path d="M411.488 163.851a517.656 517.656 0 00-42.562 2.765c-32.686 3.487-54.85 11.479-93.793 27.829-42.374 20.073-68.633 27.697-115.446 31.085-68.234 4.939-156.48-6.777-159.868 22.428h411.67v-84.107z" fill="#303030"/><path d="M28.228 139.145c-1.263-.718-2.266-1.708-3.008-2.97s-1.114-2.655-1.114-4.18.371-2.918 1.114-4.18c.743-1.261 1.746-2.251 3.008-2.97s2.644-1.078 4.145-1.078c1.173 0 2.276.206 3.309.616 1.032.411 1.883.99 2.551 1.738l-1.337 1.342c-.52-.616-1.173-1.089-1.961-1.419s-1.634-.495-2.54-.495a6.46 6.46 0 00-3.142.803 6.146 6.146 0 00-2.351 2.266c-.587.976-.88 2.101-.88 3.377s.293 2.402.88 3.377a6.118 6.118 0 002.351 2.266c.98.536 2.028.803 3.142.803 1.069 0 1.964-.165 2.685-.495.72-.33 1.34-.767 1.861-1.309.386-.411.698-.906.936-1.485a6.487 6.487 0 00.446-1.925h-5.905v-1.738h7.665c.074.411.111.792.111 1.144 0 .968-.156 1.91-.468 2.827a6.23 6.23 0 01-1.493 2.409c-1.47 1.569-3.424 2.354-5.86 2.354-1.5 0-2.882-.359-4.145-1.078zm16.422.309a5.369 5.369 0 01-2.017-2.123c-.483-.902-.724-1.917-.724-3.047 0-1.07.226-2.064.68-2.981a5.407 5.407 0 011.938-2.189c.839-.542 1.801-.814 2.886-.814 1.114 0 2.08.246 2.896.737a4.92 4.92 0 011.883 2.035c.438.865.657 1.855.657 2.97 0 .176-.015.367-.044.572h-9.002c.044.851.252 1.569.624 2.156a3.61 3.61 0 001.415 1.32c.571.294 1.169.44 1.793.44 1.485 0 2.607-.675 3.365-2.024l1.604.77c-.476.895-1.137 1.61-1.983 2.145s-1.864.803-3.053.803c-1.084 0-2.058-.257-2.919-.77zm6.195-6.38a3.628 3.628 0 00-.401-1.408c-.238-.469-.609-.865-1.114-1.188-.505-.322-1.144-.484-1.916-.484-.892 0-1.649.283-2.273.847s-1.033 1.309-1.226 2.233h6.93zM57.808 140a2.915 2.915 0 01-.992-.605c-.594-.567-.892-1.352-.892-2.352v-6.697h-1.983v-1.694h1.983v-3.168h1.894v3.168h2.786v1.694h-2.786v6.251c0 .63.119 1.095.357 1.394.282.33.69.495 1.225.495.46 0 .876-.124 1.248-.374v1.826c-.223.103-.449.176-.68.22s-.523.066-.88.066c-.461 0-.888-.075-1.281-.224zm11.23-.964c-.721-.792-1.081-1.899-1.081-3.322v-7.062h1.895v6.776c0 1.071.245 1.855.735 2.354s1.151.748 1.983.748c.639 0 1.207-.168 1.705-.506a3.446 3.446 0 001.159-1.32 3.742 3.742 0 00.412-1.716v-6.336h1.894v11.22h-1.805v-1.628h-.089c-.312.558-.81 1.027-1.493 1.408a4.42 4.42 0 01-2.184.572c-1.367 0-2.411-.396-3.131-1.188zm11.42-10.385h1.805v1.672h.089c.341-.572.857-1.052 1.548-1.441s1.467-.583 2.329-.583c1.025 0 1.95.256 2.774.77.824.513 1.474 1.225 1.95 2.134.475.91.713 1.929.713 3.058 0 1.144-.238 2.167-.713 3.069-.476.902-1.125 1.61-1.95 2.123-.825.513-1.75.77-2.774.77-.862 0-1.638-.195-2.329-.583-.691-.389-1.207-.861-1.548-1.419h-.089l.089 1.54v4.862h-1.895v-15.972zm7.42 9.35c.58-.352 1.04-.85 1.381-1.496.342-.645.513-1.393.513-2.244s-.171-1.599-.513-2.244c-.342-.645-.802-1.144-1.381-1.496a3.503 3.503 0 00-1.85-.528c-.668 0-1.289.176-1.86.528-.572.352-1.033.851-1.382 1.496-.349.646-.523 1.394-.523 2.244s.174 1.599.523 2.244c.349.646.81 1.144 1.382 1.496a3.484 3.484 0 001.86.528c.654 0 1.271-.176 1.85-.528zm14.25 1.999a2.915 2.915 0 01-.992-.605c-.594-.567-.892-1.352-.892-2.352v-6.697h-1.983v-1.694h1.983v-3.168h1.894v3.168h2.786v1.694h-2.786v6.251c0 .63.119 1.095.357 1.394.282.33.69.495 1.225.495.46 0 .876-.124 1.248-.374v1.826c-.223.103-.449.176-.68.22s-.523.066-.88.066c-.461 0-.888-.075-1.281-.224zm6.807-.568a5.562 5.562 0 01-2.083-2.156c-.498-.909-.747-1.914-.747-3.014s.249-2.104.747-3.014a5.576 5.576 0 012.083-2.156c.891-.528 1.894-.792 3.008-.792s2.117.264 3.008.792a5.569 5.569 0 012.083 2.156c.498.91.747 1.914.747 3.014s-.249 2.104-.747 3.014a5.569 5.569 0 01-2.083 2.156c-.891.528-1.894.792-3.008.792s-2.117-.264-3.008-.792zm4.958-1.419a3.848 3.848 0 001.449-1.485c.364-.645.546-1.4.546-2.266s-.182-1.621-.546-2.266a3.848 3.848 0 00-3.399-2.002c-.699 0-1.352.172-1.961.517a3.817 3.817 0 00-1.459 1.485c-.364.646-.546 1.401-.546 2.266s.182 1.621.546 2.266a3.817 3.817 0 001.459 1.485c.609.345 1.263.517 1.961.517s1.348-.172 1.95-.517zm21.691-11.649h-2.562c.654.602 1.055 1.283 1.204 2.046h1.359v1.562h-1.337a4.246 4.246 0 01-.902 1.936 4.767 4.767 0 01-1.738 1.331 5.33 5.33 0 01-2.239.473h-.624l-.044.066 6.017 6.006v.088h-2.585l-5.905-6.006v-1.87h3.142c.683 0 1.292-.183 1.827-.55s.892-.858 1.07-1.474h-7.933v-1.562h7.933c-.178-.572-.513-1.056-1.003-1.452s-1.077-.594-1.76-.594h-5.169v-1.54h11.252v1.54zm4.569 13.408a5.153 5.153 0 01-1.85-1.364c-.535-.608-.914-1.36-1.136-2.255l1.671-.66c.238.895.654 1.61 1.248 2.145.594.536 1.307.803 2.139.803.995 0 1.808-.3 2.44-.902.631-.601.947-1.386.947-2.354 0-.953-.312-1.741-.936-2.365s-1.426-.935-2.407-.935c-.535 0-1.04.121-1.515.363a3.107 3.107 0 00-1.159 1.001l-1.917-.836.98-7.59h7.888v1.782h-6.328l-.602 4.554.089.022c.787-.66 1.753-.99 2.897-.99.876 0 1.689.213 2.44.638a4.784 4.784 0 011.793 1.782c.446.763.668 1.613.668 2.552s-.227 1.793-.679 2.563a4.952 4.952 0 01-1.872 1.826c-.795.447-1.69.671-2.685.671-.713 0-1.419-.15-2.117-.451zm12.534-.593c-.929-.697-1.642-1.643-2.139-2.838-.498-1.195-.747-2.526-.747-3.993s.249-2.797.747-3.993c.498-1.195 1.207-2.141 2.128-2.838.921-.696 1.991-1.045 3.209-1.045s2.287.349 3.208 1.045c.921.697 1.634 1.643 2.139 2.838.505 1.196.758 2.527.758 3.993s-.253 2.798-.758 3.993c-.505 1.195-1.222 2.141-2.15 2.838-.928.696-1.994 1.045-3.197 1.045s-2.27-.349-3.198-1.045zm5.404-1.54c.624-.535 1.106-1.265 1.448-2.189.341-.924.512-1.958.512-3.102s-.171-2.178-.512-3.102c-.342-.924-.825-1.653-1.448-2.189-.624-.535-1.359-.803-2.206-.803s-1.583.268-2.206.803c-.624.536-1.103 1.265-1.438 2.189-.334.924-.501 1.958-.501 3.102s.167 2.178.501 3.102c.334.924.813 1.654 1.438 2.189.624.536 1.359.803 2.206.803s1.582-.267 2.206-.803zm12.967 2.101c-.654-.323-1.159-.767-1.515-1.331s-.535-1.207-.535-1.925c0-1.188.453-2.115 1.359-2.783s2.05-1.001 3.432-1.001c.683 0 1.318.073 1.905.22.587.147 1.036.316 1.348.506v-.682c0-.836-.297-1.507-.891-2.013-.595-.506-1.345-.759-2.251-.759-.624 0-1.207.136-1.749.407a3.183 3.183 0 00-1.281 1.133l-1.426-1.056c.446-.674 1.062-1.203 1.85-1.584.787-.381 1.656-.572 2.607-.572 1.545 0 2.756.399 3.632 1.199.876.8 1.314 1.889 1.314 3.267v7.106h-1.805v-1.606h-.089c-.327.543-.817 1.005-1.47 1.386-.654.381-1.39.572-2.206.572-.833 0-1.575-.162-2.229-.484zm4.189-1.65a3.689 3.689 0 001.314-1.298c.327-.542.49-1.136.49-1.782-.356-.235-.795-.425-1.314-.572a6.08 6.08 0 00-1.649-.22c-1.04 0-1.823.212-2.351.638-.527.426-.791.976-.791 1.65 0 .616.237 1.115.713 1.496.476.382 1.077.572 1.805.572.638 0 1.233-.161 1.783-.484zm16.278 1.738a2.936 2.936 0 01-.992-.594c-.594-.557-.891-1.327-.891-2.31v-6.578h-5.169v9.526h-1.894v-9.526h-2.095v-1.694h2.095v-1.21c0-.704.163-1.32.49-1.848a3.32 3.32 0 011.314-1.221 3.897 3.897 0 011.827-.429c.639 0 1.196.088 1.671.264v1.826a8.412 8.412 0 00-.758-.253 3.193 3.193 0 00-.847-.099c-.49 0-.914.172-1.27.517s-.535.825-.535 1.441v1.012h5.169v-3.168h1.894v3.168h2.785v1.694h-2.785v6.116c0 .631.119 1.086.356 1.364.282.323.691.484 1.226.484.46 0 .876-.125 1.248-.374v1.826c-.223.103-.45.176-.68.22-.23.044-.524.066-.88.066-.46 0-.888-.073-1.281-.22zm6.719-.374a5.369 5.369 0 01-2.017-2.123c-.483-.902-.724-1.917-.724-3.047 0-1.07.226-2.064.68-2.981a5.407 5.407 0 011.938-2.189c.839-.542 1.801-.814 2.886-.814 1.114 0 2.08.246 2.896.737a4.92 4.92 0 011.883 2.035c.438.865.657 1.855.657 2.97 0 .176-.015.367-.044.572h-9.002c.044.851.252 1.569.624 2.156a3.61 3.61 0 001.415 1.32c.571.294 1.169.44 1.793.44 1.485 0 2.607-.675 3.365-2.024l1.604.77c-.476.895-1.137 1.61-1.983 2.145s-1.864.803-3.053.803c-1.084 0-2.058-.257-2.919-.77zm6.195-6.38a3.628 3.628 0 00-.401-1.408c-.238-.469-.609-.865-1.114-1.188-.505-.322-1.144-.484-1.916-.484-.892 0-1.649.283-2.273.847s-1.033 1.309-1.226 2.233h6.93zm4.21-4.423h1.805v1.804h.089c.223-.616.653-1.129 1.292-1.54.639-.41 1.307-.616 2.005-.616.52 0 .965.081 1.337.242v2.002a3.586 3.586 0 00-1.604-.352c-.549 0-1.055.154-1.515.463-.46.309-.828.724-1.103 1.246s-.412 1.084-.412 1.687v6.285h-1.894v-11.22zm15.977 11.177a5.11 5.11 0 01-1.816-1.243c-.542-.564-.933-1.272-1.17-2.123l1.716-.704c.237.851.642 1.511 1.214 1.98.572.469 1.244.704 2.017.704.564 0 1.092-.121 1.582-.363s.88-.579 1.17-1.012a2.53 2.53 0 00.435-1.441c0-.513-.145-.982-.435-1.408s-.684-.759-1.181-1.001a3.697 3.697 0 00-1.638-.363h-1.315v-1.738h1.181c.817 0 1.5-.231 2.05-.693.549-.462.824-1.074.824-1.837 0-.704-.268-1.268-.802-1.694-.535-.425-1.196-.638-1.983-.638-.773 0-1.378.198-1.816.594s-.754.88-.947 1.452l-1.738-.726c.268-.792.784-1.507 1.549-2.145.765-.638 1.749-.957 2.953-.957.891 0 1.693.176 2.406.528a4.15 4.15 0 011.683 1.474c.408.631.613 1.335.613 2.112s-.201 1.438-.602 1.98a4.286 4.286 0 01-1.493 1.276v.088c.758.308 1.381.781 1.872 1.419s.735 1.39.735 2.255c0 .88-.227 1.672-.68 2.376s-1.069 1.254-1.849 1.65c-.78.396-1.638.594-2.574.594a5.32 5.32 0 01-1.961-.396zM24.506 156.27h1.805v1.804h.089c.223-.616.653-1.129 1.292-1.54.639-.41 1.307-.616 2.005-.616.52 0 .965.081 1.337.242v2.002a3.586 3.586 0 00-1.604-.352c-.549 0-1.055.154-1.515.463-.46.309-.828.724-1.103 1.246s-.412 1.084-.412 1.687v6.285h-1.894v-11.22zm9.827 10.802a5.369 5.369 0 01-2.017-2.123c-.483-.902-.724-1.917-.724-3.047 0-1.07.226-2.064.68-2.981a5.407 5.407 0 011.938-2.189c.839-.542 1.801-.814 2.886-.814 1.114 0 2.08.246 2.896.737a4.92 4.92 0 011.883 2.035c.438.865.657 1.855.657 2.97 0 .176-.015.367-.044.572h-9.002c.044.851.252 1.569.624 2.156a3.61 3.61 0 001.415 1.32c.571.294 1.169.44 1.793.44 1.485 0 2.607-.675 3.365-2.024l1.604.77c-.476.895-1.137 1.61-1.983 2.145s-1.864.803-3.053.803c-1.084 0-2.058-.257-2.919-.77zm6.195-6.38a3.628 3.628 0 00-.401-1.408c-.238-.469-.609-.865-1.114-1.188-.505-.322-1.144-.484-1.916-.484-.892 0-1.649.283-2.273.847s-1.033 1.309-1.226 2.233h6.93zm6.506 6.369c-.876-.52-1.56-1.232-2.05-2.134s-.735-1.917-.735-3.047.245-2.148.735-3.058a5.378 5.378 0 012.05-2.134c.876-.514 1.864-.77 2.964-.77 1.233 0 2.269.282 3.108.847a4.656 4.656 0 011.794 2.255l-1.716.704c-.283-.689-.702-1.213-1.259-1.573s-1.229-.539-2.017-.539c-.668 0-1.292.18-1.872.539-.58.359-1.044.862-1.393 1.507-.35.646-.524 1.386-.524 2.222s.174 1.577.524 2.222a3.919 3.919 0 001.393 1.507 3.49 3.49 0 001.872.539c.802 0 1.493-.184 2.072-.55.58-.366 1.01-.887 1.292-1.562l1.694.704a4.959 4.959 0 01-1.861 2.244c-.854.572-1.891.858-3.108.858-1.1 0-2.087-.261-2.964-.781zm9.982-15.323h1.894v4.642l-.089 1.54h.089c.312-.572.806-1.049 1.482-1.43a4.439 4.439 0 012.217-.572c1.381 0 2.436.399 3.164 1.199.728.8 1.092 1.859 1.092 3.179v7.194h-1.894v-6.908c0-1.012-.26-1.76-.78-2.244-.521-.484-1.196-.726-2.028-.726-.594 0-1.14.176-1.638.528-.498.352-.892.807-1.181 1.364s-.435 1.137-.435 1.738v6.248h-1.894v-15.752zm13.86 15.62c-.654-.323-1.159-.767-1.515-1.331s-.535-1.207-.535-1.925c0-1.188.453-2.115 1.359-2.783s2.05-1.001 3.432-1.001c.683 0 1.318.073 1.905.22.587.147 1.036.316 1.348.506v-.682c0-.836-.297-1.507-.891-2.013-.595-.506-1.345-.759-2.251-.759-.624 0-1.207.136-1.749.407a3.183 3.183 0 00-1.281 1.133l-1.426-1.056c.446-.674 1.062-1.203 1.85-1.584.787-.381 1.656-.572 2.607-.572 1.545 0 2.756.399 3.632 1.199.876.8 1.314 1.889 1.314 3.267v7.106H76.87v-1.606h-.089c-.327.543-.817 1.005-1.47 1.386-.654.381-1.39.572-2.206.572-.833 0-1.575-.162-2.229-.484zm4.189-1.65a3.689 3.689 0 001.314-1.298c.327-.542.49-1.136.49-1.782-.356-.235-.795-.425-1.314-.572a6.08 6.08 0 00-1.649-.22c-1.04 0-1.823.212-2.351.638-.527.426-.791.976-.791 1.65 0 .616.237 1.115.713 1.496.476.382 1.077.572 1.805.572.638 0 1.233-.161 1.783-.484zm6.239-9.438h1.805v1.804h.089c.223-.616.653-1.129 1.292-1.54.639-.41 1.307-.616 2.005-.616.52 0 .965.081 1.337.242v2.002a3.586 3.586 0 00-1.604-.352c-.549 0-1.055.154-1.515.463-.46.309-.828.724-1.103 1.246s-.412 1.084-.412 1.687v6.285h-1.894v-11.22zm9.482 15.4c-.869-.616-1.453-1.357-1.75-2.222l1.738-.726a3.22 3.22 0 001.236 1.573c.587.403 1.281.605 2.083.605 1.173 0 2.083-.324 2.73-.97.646-.647.969-1.57.969-2.77v-1.254h-.089c-.372.572-.895 1.038-1.571 1.397-.676.359-1.445.539-2.306.539-.98 0-1.875-.252-2.685-.756s-1.452-1.208-1.928-2.113-.713-1.936-.713-3.092c0-1.142.237-2.169.713-3.081s1.118-1.62 1.928-2.125a4.982 4.982 0 012.685-.756c.861 0 1.63.18 2.306.539.676.36 1.199.833 1.571 1.419h.089v-1.606h1.805v10.78c0 1.804-.505 3.179-1.515 4.125-1.01.946-2.34 1.419-3.989 1.419-1.337 0-2.44-.308-3.309-.924zm5.169-6.036c.557-.342 1.003-.834 1.337-1.475.334-.641.501-1.4.501-2.279 0-.894-.167-1.661-.501-2.302-.334-.641-.78-1.128-1.337-1.463-.557-.335-1.178-.503-1.861-.503s-1.307.171-1.872.514c-.565.343-1.014.834-1.348 1.475-.334.641-.501 1.4-.501 2.279s.167 1.642.501 2.29c.334.648.783 1.14 1.348 1.475.564.335 1.188.503 1.872.503s1.304-.171 1.861-.514zm8.479 1.438a5.369 5.369 0 01-2.017-2.123c-.483-.902-.724-1.917-.724-3.047 0-1.07.226-2.064.68-2.981a5.407 5.407 0 011.938-2.189c.839-.542 1.801-.814 2.886-.814 1.114 0 2.08.246 2.896.737a4.92 4.92 0 011.883 2.035c.438.865.657 1.855.657 2.97 0 .176-.015.367-.044.572h-9.002c.044.851.252 1.569.624 2.156a3.61 3.61 0 001.415 1.32c.571.294 1.169.44 1.793.44 1.485 0 2.607-.675 3.365-2.024l1.604.77c-.476.895-1.137 1.61-1.983 2.145s-1.864.803-3.053.803c-1.084 0-2.058-.257-2.919-.77zm6.195-6.38a3.628 3.628 0 00-.401-1.408c-.238-.469-.609-.865-1.114-1.188-.505-.322-1.144-.484-1.916-.484-.892 0-1.649.283-2.273.847s-1.033 1.309-1.226 2.233h6.93zm5.235 6.303c-.817-.564-1.396-1.287-1.738-2.167l1.693-.748c.282.675.702 1.196 1.259 1.562.557.367 1.17.55 1.838.55.713 0 1.322-.143 1.827-.429s.758-.693.758-1.221c0-.469-.201-.847-.602-1.133-.401-.286-1.033-.531-1.894-.737l-1.382-.352c-.906-.22-1.649-.594-2.228-1.122-.58-.528-.869-1.21-.869-2.046 0-.646.197-1.213.59-1.705.394-.491.917-.869 1.571-1.133a5.596 5.596 0 012.117-.396c.995 0 1.883.212 2.663.638.78.426 1.333 1.02 1.66 1.782l-1.649.748c-.505-.998-1.404-1.496-2.696-1.496-.624 0-1.17.143-1.638.429-.468.286-.702.649-.702 1.089 0 .411.163.745.49 1.001.326.257.816.466 1.471.627l1.649.418c1.114.279 1.953.693 2.518 1.243.564.55.847 1.221.847 2.013 0 .689-.2 1.294-.602 1.815-.401.521-.943.921-1.626 1.199-.684.278-1.441.418-2.273.418-1.218 0-2.236-.283-3.053-.847zm18.239.264c-.691-.389-1.207-.861-1.549-1.419h-.089v1.65h-1.805v-15.752h1.894v4.642l-.089 1.562h.089c.342-.572.858-1.052 1.549-1.441.69-.389 1.467-.583 2.329-.583 1.025 0 1.95.256 2.774.77.825.513 1.474 1.225 1.95 2.134.476.91.713 1.929.713 3.058 0 1.144-.238 2.167-.713 3.069s-1.125 1.61-1.95 2.123c-.824.513-1.749.77-2.774.77-.862 0-1.638-.195-2.329-.583zm3.978-1.639a3.76 3.76 0 001.381-1.496c.342-.645.513-1.393.513-2.244s-.171-1.599-.513-2.244c-.342-.645-.802-1.144-1.381-1.496a3.506 3.506 0 00-1.85-.528c-.668 0-1.289.176-1.861.528s-1.033.851-1.381 1.496c-.349.646-.523 1.394-.523 2.244s.174 1.599.523 2.244c.349.646.81 1.144 1.381 1.496s1.192.528 1.861.528c.653 0 1.27-.176 1.85-.528zm9.023 1.166l-4.702-10.516h2.05l3.565 8.338h.044l3.432-8.338h2.05l-7.019 15.972h-1.961l2.54-5.456zm13.57-15.048h2.741l5.081 12.914h.089l5.081-12.914h2.741v15.752h-1.872v-10.01l.089-2.992h-.089l-5.214 13.002h-1.56l-5.214-13.002h-.089l.089 2.992v10.01h-1.872v-15.752zm19.988 15.62c-.654-.323-1.159-.767-1.515-1.331s-.535-1.207-.535-1.925c0-1.188.453-2.115 1.359-2.783s2.05-1.001 3.432-1.001c.683 0 1.318.073 1.905.22.587.147 1.036.316 1.348.506v-.682c0-.836-.297-1.507-.891-2.013-.595-.506-1.345-.759-2.251-.759-.624 0-1.207.136-1.749.407a3.183 3.183 0 00-1.281 1.133l-1.426-1.056c.446-.674 1.062-1.203 1.85-1.584.787-.381 1.656-.572 2.607-.572 1.545 0 2.756.399 3.632 1.199.876.8 1.314 1.889 1.314 3.267v7.106h-1.805v-1.606h-.089c-.327.543-.817 1.005-1.47 1.386-.654.381-1.39.572-2.206.572-.833 0-1.575-.162-2.229-.484zm4.189-1.65a3.689 3.689 0 001.314-1.298c.327-.542.49-1.136.49-1.782-.356-.235-.795-.425-1.314-.572a6.08 6.08 0 00-1.649-.22c-1.04 0-1.823.212-2.351.638-.527.426-.791.976-.791 1.65 0 .616.237 1.115.713 1.496.476.382 1.077.572 1.805.572.638 0 1.233-.161 1.783-.484zm6.239-9.438h1.805v1.804h.089c.223-.616.653-1.129 1.292-1.54.639-.41 1.307-.616 2.005-.616.52 0 .965.081 1.337.242v2.002a3.586 3.586 0 00-1.604-.352c-.549 0-1.055.154-1.515.463-.46.309-.828.724-1.103 1.246s-.412 1.084-.412 1.687v6.285h-1.894v-11.22zm9.871 10.791c-.876-.52-1.56-1.232-2.05-2.134s-.735-1.917-.735-3.047.245-2.148.735-3.058a5.378 5.378 0 012.05-2.134c.876-.514 1.864-.77 2.964-.77 1.233 0 2.269.282 3.108.847a4.656 4.656 0 011.794 2.255l-1.716.704c-.283-.689-.702-1.213-1.259-1.573s-1.229-.539-2.017-.539c-.668 0-1.292.18-1.872.539-.58.359-1.044.862-1.393 1.507-.35.646-.524 1.386-.524 2.222s.174 1.577.524 2.222a3.919 3.919 0 001.393 1.507 3.49 3.49 0 001.872.539c.802 0 1.493-.184 2.072-.55.58-.366 1.01-.887 1.292-1.562l1.694.704a4.959 4.959 0 01-1.861 2.244c-.854.572-1.891.858-3.108.858-1.1 0-2.087-.261-2.964-.781zm9.983-15.323h1.894v4.642l-.089 1.54h.089c.312-.572.806-1.049 1.482-1.43a4.439 4.439 0 012.217-.572c1.381 0 2.436.399 3.164 1.199.728.8 1.092 1.859 1.092 3.179v7.194h-1.894v-6.908c0-1.012-.26-1.76-.78-2.244-.521-.484-1.196-.726-2.028-.726-.594 0-1.14.176-1.638.528-.498.352-.892.807-1.181 1.364s-.435 1.137-.435 1.738v6.248h-1.894v-15.752zm20.188 15.708a5.11 5.11 0 01-1.816-1.243c-.542-.564-.933-1.272-1.17-2.123l1.716-.704c.237.851.642 1.511 1.214 1.98.572.469 1.244.704 2.017.704.564 0 1.092-.121 1.582-.363s.88-.579 1.17-1.012a2.53 2.53 0 00.435-1.441c0-.513-.145-.982-.435-1.408s-.684-.759-1.181-1.001a3.697 3.697 0 00-1.638-.363h-1.315v-1.738h1.181c.817 0 1.5-.231 2.05-.693.549-.462.824-1.074.824-1.837 0-.704-.268-1.268-.802-1.694-.535-.425-1.196-.638-1.983-.638-.773 0-1.378.198-1.816.594s-.754.88-.947 1.452l-1.738-.726c.268-.792.784-1.507 1.549-2.145.765-.638 1.749-.957 2.953-.957.891 0 1.693.176 2.406.528a4.15 4.15 0 011.683 1.474c.408.631.613 1.335.613 2.112s-.201 1.438-.602 1.98a4.286 4.286 0 01-1.493 1.276v.088c.758.308 1.381.781 1.872 1.419s.735 1.39.735 2.255c0 .88-.227 1.672-.68 2.376s-1.069 1.254-1.849 1.65c-.78.396-1.638.594-2.574.594a5.32 5.32 0 01-1.961-.396zm12.5-12.386l-2.674 1.892-.98-1.43 4.345-3.08h1.203v15.048h-1.894v-12.43z" fill="#fff"/><circle cx="143.6" cy="207.016" r="14" fill="#a8c7fa"/><path d="M145.27 202.016l-1.18 1.18 2.98 2.99h-10.14v1.67h10.14l-2.98 2.99 1.18 1.18 5-5-5-5v-.01z" fill="#161616"/><path d="M24.42 201.992h3.515c.606 0 1.154.131 1.645.392s.877.625 1.162 1.092c.284.467.427.994.427 1.582 0 .672-.217 1.267-.65 1.785a3.165 3.165 0 01-1.632 1.043l-.014.07 2.758 3.976v.084h-1.777l-2.675-3.934h-1.218v3.934h-1.54v-10.024zm3.473 4.676c.484 0 .894-.154 1.225-.462s.497-.695.497-1.162c0-.429-.152-.805-.455-1.127-.304-.322-.707-.483-1.211-.483h-1.988v3.234h1.933zm6.349 5.081a3.455 3.455 0 01-1.303-1.351c-.312-.574-.469-1.22-.469-1.939 0-.681.151-1.313.455-1.897a3.585 3.585 0 011.267-1.393 3.342 3.342 0 011.834-.518c.719 0 1.34.156 1.862.469.522.313.922.745 1.197 1.295.275.551.413 1.176.413 1.876 0 .187-.01.346-.028.476h-5.516c.064.682.308 1.207.728 1.575s.91.553 1.47.553c.458 0 .85-.105 1.177-.315.326-.21.588-.487.784-.833l1.245.602a3.722 3.722 0 01-1.302 1.386c-.541.336-1.189.504-1.946.504a3.62 3.62 0 01-1.868-.49zm3.759-4.116a1.847 1.847 0 00-.903-1.435c-.285-.173-.637-.259-1.057-.259-.504 0-.932.154-1.281.462-.35.308-.591.719-.721 1.232h3.962zm4.646 4.116a3.438 3.438 0 01-1.31-1.351c-.312-.574-.469-1.225-.469-1.953s.156-1.379.469-1.953a3.432 3.432 0 011.31-1.351c.56-.327 1.194-.49 1.903-.49.784 0 1.449.175 1.995.525s.94.833 1.184 1.449l-1.372.56c-.336-.765-.947-1.148-1.834-1.148-.393 0-.754.101-1.085.301a2.113 2.113 0 00-.784.847c-.191.364-.287.784-.287 1.26s.096.896.287 1.26c.191.364.452.646.784.847a2.05 2.05 0 001.085.301c.448 0 .833-.1 1.155-.301a1.98 1.98 0 00.748-.875l1.358.588c-.28.607-.695 1.087-1.246 1.442s-1.213.532-1.988.532c-.709 0-1.344-.164-1.903-.49zm6.707-9.757h1.512v2.744l-.084 1.12h.084a2.34 2.34 0 01.917-.868 2.724 2.724 0 011.338-.336c.867 0 1.53.259 1.987.777s.687 1.211.687 2.079v4.508h-1.498v-4.312c0-.551-.147-.966-.441-1.246-.294-.28-.67-.42-1.127-.42-.346 0-.66.101-.945.301-.284.201-.509.469-.672.805s-.245.691-.245 1.064v3.808h-1.512v-10.024zm9.241 9.946a2.267 2.267 0 01-.938-.847 2.328 2.328 0 01-.336-1.246c0-.495.131-.922.393-1.281a2.5 2.5 0 011.063-.826 3.782 3.782 0 011.498-.287c.42 0 .801.04 1.142.119.34.079.613.17.818.273v-.378c0-.458-.168-.829-.504-1.113s-.77-.427-1.302-.427c-.364 0-.709.082-1.036.245a2.066 2.066 0 00-.784.665l-1.036-.798c.309-.438.717-.779 1.226-1.022s1.066-.364 1.673-.364c1.026 0 1.822.254 2.387.763.564.509.848 1.221.848 2.135v4.466h-1.471v-.882h-.084c-.205.317-.499.581-.882.791s-.816.315-1.302.315c-.514 0-.971-.101-1.372-.301zm2.66-1.204a1.996 1.996 0 00.98-1.729c-.224-.131-.48-.233-.77-.308s-.593-.112-.91-.112c-.588 0-1.02.117-1.295.35-.275.233-.413.542-.413.924 0 .336.126.611.378.826.252.215.588.322 1.008.322.373 0 .714-.091 1.022-.273zm4.395-5.859h1.428v1.05h.084c.159-.364.432-.667.819-.91s.805-.364 1.253-.364c.327 0 .616.051.868.154v1.554a2.747 2.747 0 00-1.106-.252 1.64 1.64 0 00-1.315.618c-.346.412-.519.912-.519 1.501v3.789H65.65v-7.14zm6.601 9.793c-.574-.396-.959-.875-1.155-1.435l1.399-.588c.149.383.395.691.735.924.341.233.735.35 1.183.35.663 0 1.181-.204 1.555-.61.373-.407.56-.978.56-1.713v-.686h-.084a2.408 2.408 0 01-.938.812 2.973 2.973 0 01-1.345.294c-.606 0-1.164-.152-1.673-.458s-.915-.737-1.218-1.297c-.304-.559-.455-1.199-.455-1.92s.151-1.361.455-1.921c.303-.559.709-.994 1.218-1.304s1.066-.464 1.673-.464c.495 0 .94.1 1.337.301.397.201.712.474.945.819h.084v-.896h1.442v6.762c0 .765-.149 1.421-.448 1.967s-.717.959-1.253 1.239c-.537.28-1.155.42-1.855.42-.867 0-1.589-.198-2.162-.595zm3.227-4.301c.317-.184.571-.448.763-.793s.287-.756.287-1.234c0-.488-.096-.906-.287-1.255a1.972 1.972 0 00-.763-.793c-.317-.179-.667-.269-1.05-.269s-.735.09-1.058.269c-.321.18-.578.444-.77.793-.191.35-.287.768-.287 1.255 0 .478.096.892.287 1.241.191.349.448.613.77.793.322.179.675.269 1.058.269s.732-.092 1.05-.276zm5.86 1.382a3.455 3.455 0 01-1.303-1.351c-.312-.574-.469-1.22-.469-1.939 0-.681.151-1.313.455-1.897a3.585 3.585 0 011.267-1.393 3.342 3.342 0 011.834-.518c.719 0 1.34.156 1.862.469.522.313.922.745 1.197 1.295.275.551.413 1.176.413 1.876 0 .187-.01.346-.028.476H81.05c.064.682.308 1.207.728 1.575s.91.553 1.47.553c.458 0 .85-.105 1.177-.315.326-.21.588-.487.784-.833l1.245.602a3.722 3.722 0 01-1.302 1.386c-.541.336-1.189.504-1.946.504a3.62 3.62 0 01-1.868-.49zm3.759-4.116a1.847 1.847 0 00-.903-1.435c-.285-.173-.637-.259-1.057-.259-.504 0-.932.154-1.281.462-.35.308-.591.719-.721 1.232h3.962zm6.718-2.758h1.428v.98h.084c.206-.354.514-.644.925-.868.41-.224.854-.336 1.33-.336.858 0 1.512.254 1.96.763.447.509.672 1.207.672 2.093v4.508h-1.498v-4.312c0-.56-.141-.978-.42-1.253-.28-.275-.663-.413-1.148-.413-.354 0-.67.098-.945.294-.275.196-.489.458-.644.784s-.231.681-.231 1.064v3.836h-1.512v-7.14zm9.829 6.868a3.481 3.481 0 01-1.329-1.365c-.318-.579-.477-1.222-.477-1.932s.158-1.354.477-1.932a3.481 3.481 0 011.329-1.365c.569-.331 1.214-.497 1.933-.497.709 0 1.349.168 1.918.504s1.013.793 1.33 1.372.476 1.218.476 1.918c0 .709-.158 1.353-.476 1.932-.317.579-.759 1.034-1.323 1.365s-1.206.497-1.925.497-1.363-.166-1.933-.497zm3.038-1.183c.336-.196.607-.476.812-.84.205-.364.308-.789.308-1.274s-.103-.91-.308-1.274a2.153 2.153 0 00-1.917-1.134 2.184 2.184 0 00-1.932 1.134c-.205.364-.308.789-.308 1.274s.103.91.308 1.274c.206.364.479.644.819.84.341.196.712.294 1.113.294s.77-.098 1.105-.294zm3.36-5.685h1.639l1.47 5.138h.056l1.61-5.138h1.554l1.61 5.138h.056l1.47-5.138h1.61l-2.296 7.14h-1.582l-1.652-5.166h-.056l-1.638 5.166h-1.568l-2.282-7.14z" fill="#a8c7fa"/><path d="M303.005 247.853h41.457a3.81 3.81 0 001.93-3.885l-5.019-33.985a3.817 3.817 0 00-4.333-3.218l-35.471 5.238a3.817 3.817 0 00-3.219 4.333l4.655 31.516z" fill="#1b6ef3"/><path d="M411.572 180.993l-24.4-10.669c-1.95-.852-4.207.081-5.044 2.085l-13.622 32.662c-.835 2.004.067 4.319 2.017 5.172l10.385 4.54h30.664v-33.791z" fill="#b3261e"/><path d="M322.083 241.3c6.323 0 11.448-5.125 11.448-11.447s-5.125-11.448-11.448-11.448-11.447 5.125-11.447 11.448 5.125 11.447 11.447 11.447z" fill="#5382eb"/><path d="M328.898 228.303a2.169 2.169 0 00-2.471-1.81l-.27.042a9.078 9.078 0 00-.158-.865v-.002a.379.379 0 00-.006-.027l.217-.034a.617.617 0 00.514-.702l-.085-.555a.618.618 0 00-.702-.515l-9.337 1.442a.618.618 0 00-.515.702l.086.555a.618.618 0 00.702.515l.218-.034v.004l.002.021v.007c.003.056.015.191.039.387v.003c.016.135.039.295.07.479l-.269.041a2.168 2.168 0 00-1.81 2.471l.077.496a2.168 2.168 0 002.471 1.81l1.724-.266c.652.572 1.489.974 2.558 1.048l.003.021.125.811.145.935-1.243.192a.679.679 0 00-.566.771.68.68 0 00.772.566l3.806-.587a.68.68 0 00.566-.772.68.68 0 00-.772-.566l-1.198.185-.242-1.568v-.008l-.03-.191c.996-.393 1.673-1.029 2.123-1.772l1.723-.266a2.168 2.168 0 001.811-2.471l-.077-.496zm-11.407 3.275a.996.996 0 01-1.134-.832l-.077-.496a.995.995 0 01.831-1.134l.345-.053c.209.751.534 1.603 1.036 2.359l-1.001.155zm9.495-1.466l-1.001.154c.25-.873.303-1.783.275-2.562l.345-.053a.997.997 0 011.135.831l.077.496a.997.997 0 01-.831 1.135z" fill="#1b6ef3"/><path d="M303.561 181.352s16.141 5.229 23.775 3.266c7.634-1.964 17.22-6.236 17.22-6.236l4.742 9.326s-14.444 4.784-22.334 6.24c-9.602 1.772-24.435-6.383-25.088-6.527" fill="#c99466"/><path d="M296.047 181.168c1.797-.294 2.594-.886 4.391-1.178.841-.138 1.709-.274 2.54-.093 1.326.286 2.388 1.408 3.276 2.377-1.054 1.68-3.761 3.288-4.379 5.15-2.87-1.597-4.142-3.548-5.829-6.256z" fill="#c38743"/><path d="M290.73 181.987h11.747a2.088 2.088 0 002.094-2.082v-24.937a2.088 2.088 0 00-2.082-2.094H290.73a2.087 2.087 0 00-2.094 2.081v24.937a2.088 2.088 0 002.082 2.094h.012z" fill="#757575"/><path d="M298.471 154.615h-3.736a.219.219 0 100 .438h3.736a.219.219 0 100-.438z" fill="#c7c7c7"/><path d="M290.157 156.802h12.876v21.591h-12.876v-21.591z" fill="#fff"/><path d="M302.313 187.517c-1.887-3.133 2.207-9.103 2.207-9.103l-1.845-3.507c-.251-.477-.448-1.167.031-1.452.383-.226.874.024 1.244.269 1.637 1.083 3.413 2.367 3.723 4.227.293 1.761-1.029 4.042-.169 5.63" fill="#c99466"/><path d="M348.73 169.09c-.53 2.056-.153 4.226.227 6.315.722 3.981 1.468 8.032 3.353 11.614 2.533 4.813 6.972 8.416 11.85 10.821 2.094 1.033 4.32 1.876 6.645 2.082 3.436.303 6.948-.792 10.315-.046 4.745 1.051 7.956 5.413 12.209 7.763 4.329 2.393 9.824 2.537 14.272.376 1.434-.698 2.788-1.645 3.688-2.962 2.05-2.999.955-7.659-2.217-9.43-2.112-1.18-4.688-1.109-6.984-1.873-2.947-.979-5.37-3.418-6.328-6.372-.964-2.971-.489-6.23-1.184-9.274-.933-4.093-4.112-7.596-8.093-8.922-2.943-.981-6.153-.82-9.15-1.623-2.996-.803-6.459-2.618-6.235-5.711.451-6.225-1.93-12.663-6.54-16.87-4.61-4.206-11.406-5.983-17.41-4.278-2.618.745-5.212 2.281-6.273 4.787-1.032 2.437-.39 5.309.937 7.598" fill="#594139"/><path d="M360.149 164.157c.713-.903 1.07-2.128.761-3.233-.309-1.117-1.343-2.033-2.496-2.033-.832-.011-1.605.428-2.377.737-.785.309-1.724.488-2.413.024-.951-.63-.891-2.021-1.391-3.043-.737-1.498-2.556-2.045-3.958-2.948-2.461-1.605-3.53-3.246-4.648-5.956-1.094.75-1.7 1.937-1.949 3.245-.285 1.426-.25 1.747-.167 3.197.036.618.107 1.248 0 1.854-.226 1.189-1.094 2.128-1.831 3.08-.19.237-.38.499-.44.796-.131.69.404 1.32.903 1.819.606.595.63 1.759.678 2.616.25 4.35.749 5.586 1.759 6.276 1.01.69 2.27.88 3.495.962 1.866.119 3.744.012 5.587-.285.012-.012.036-.012.048-.012l.618 3.103.939 4.767c2.449-.476 5.801-1.689 7.715-3.282-1.022-2.342-2.996-7.37-3.685-9.831 1.094-.356 2.14-.95 2.853-1.854z" fill="#c38743"/><path d="M357.488 163.84c1.027-.519 1.538-1.821 1.14-2.901a.294.294 0 00-.382-.174.296.296 0 00-.175.381c.293.792-.097 1.782-.852 2.165a.296.296 0 00.135.561.303.303 0 00.134-.032z" fill="#a36d34"/><path d="M357.547 166.916a.976.976 0 10-.001 0z" fill="#f9df80"/><path d="M355.073 171.208c.297-.202.606-.535.452-.857-.155-.332-.654-.249-.998-.13-.939.344-1.878.688-2.817 1.034l.618 3.103c.927-.548 1.902-2.544 2.746-3.15z" fill="#a36d34"/><path d="M341.673 155.882l-2.822 3.901c-.088.139-.179.289-.183.453-.006.259.198.467.386.643l.807.75c.082.076.776.376.887.382.19.009-.29-.412-.215-.586a13.89 13.89 0 001.139-5.543z" fill="#c38743"/><path d="M407.201 197.511c.357-6.523-4.503-12.092-10.855-12.44s-11.79 4.659-12.148 11.181c-.356 6.523 4.504 12.092 10.855 12.44 6.352.348 11.791-4.658 12.148-11.181z" fill="#d2483e"/><path d="M398.252 191.043l.311 3.833a.168.168 0 00.065.118l3.042 2.237a.165.165 0 01-.031.282l-3.454 1.499a.162.162 0 00-.09.101l-1.141 3.667a.157.157 0 01-.271.058l-2.446-2.906a.154.154 0 00-.121-.055l-3.747.029c-.123 0-.2-.138-.136-.247l1.943-3.295a.17.17 0 00.015-.136l-1.175-3.649c-.039-.121.066-.238.187-.21l3.647.87c.044.011.092 0 .13-.028l3.02-2.285c.1-.075.242-.01.252.117z" fill="#e26d6d" fill-rule="evenodd"/><path d="M341.467 160.857s.303 1.764-.597 1.47c-.899-.294-2.034-1.689-2.034-1.689" fill="#c38743"/><path d="M345.398 157.334c-.237.725-.174 1.525-.139 2.032.011.165.034.337.13.479s.285.248.467.211c.223-.044.334-.268.388-.465.155-.56.107-1.144.115-1.721.013-1.001-.792-1.053-.961-.535z"/><path d="M342.732 165.141a.503.503 0 00-.39.613c.147.597 1.059 1.712 2.818 1.349 1.469-.303 1.808-1.524 1.907-2.09a.504.504 0 00-.599-.581c-1.166.237-2.975.552-3.736.708z" fill="#fff"/><path d="M348.722 169.137c-.53 2.058-.153 4.226.227 6.315.722 3.981 1.468 8.034 3.353 11.614 2.533 4.813 6.972 8.418 11.85 10.821 2.094 1.033 4.32 1.876 6.645 2.082 3.436.304 6.948-.792 10.315-.046 4.745 1.051 7.956 5.413 12.209 7.763 4.329 2.393 9.824 2.537 14.272.376 1.434-.698 2.788-1.645 3.688-2.96 2.05-3 .955-7.66-2.217-9.43-2.112-1.181-4.688-1.111-6.984-1.873-2.947-.981-5.37-3.419-6.328-6.374-.964-2.971-.489-6.228-1.184-9.274-.933-4.091-4.112-7.596-8.093-8.922-2.943-.981-6.153-.82-9.15-1.623-2.996-.803-6.459-2.616-6.235-5.711.451-6.224-1.93-12.663-6.54-16.869-4.61-4.207-11.406-5.985-17.41-4.278-2.618.744-5.212 2.281-6.273 4.786-1.032 2.437-.39 5.309.937 7.599" fill="#754200"/><path d="M375.939 196.7l.669 16.915c-.011.115-.039.216-.045.337-.105 2.16-.938 5.385-1.083 7.57h9.696l.405-1.307c.121-.396.07-3.779.054-4.158-.001-.024-.007-.047-.008-.072v-19.199l-4.608-7.452-4.211-2.608-.869 9.975z" fill="#c99466"/><path d="M341.511 210.005c.22 2.194-1.285 7.085-2.684 11.513h35.563c-2.04-10.821.404-20.9 1.355-22.941 0 0 2.923-2.875 9.882-1.795l.114-1.134c.553-5.503-1.155-11.083-4.992-15.067-1.575-1.635-3.29-2.795-4.837-3.052l-30.003-2.866c-3.174.392-6.479 1.961-10.829 4.969 3.055 3.352 5.005 9.842 5.195 14.383.226 5.398.702 10.604 1.236 15.989z" fill="#6dd58c"/><path d="M360.141 164.2c.713-.904 1.07-2.128.761-3.234-.309-1.117-1.343-2.032-2.496-2.032-.832-.012-1.605.427-2.377.736-.785.309-1.724.488-2.413.024-.951-.63-.891-2.021-1.391-3.043-.737-1.498-2.556-2.045-3.958-2.948-2.461-1.605-3.53-3.245-4.648-5.956-1.094.75-1.7 1.938-1.949 3.246-.285 1.426-.25 1.747-.167 3.197.036.618.107 1.247 0 1.854-.226 1.189-1.094 2.127-1.831 3.078-.19.237-.38.499-.44.797-.131.688.404 1.319.903 1.818.606.595.63 1.759.678 2.616.25 4.351.749 5.587 1.759 6.276 1.01.69 2.27.88 3.495.964 1.866.118 3.744.011 5.587-.286.012-.012.036-.012.048-.012l.618 3.103.939 4.767c2.449-.476 5.801-1.687 7.715-3.282-1.022-2.341-2.996-7.37-3.685-9.83 1.094-.356 2.14-.952 2.853-1.854z" fill="#c99466"/><path d="M357.481 163.888c1.027-.519 1.538-1.821 1.14-2.899a.294.294 0 00-.382-.176.298.298 0 00-.175.382c.293.791-.097 1.781-.852 2.163a.296.296 0 10.269.529z" fill="#a36d34"/><path d="M357.54 166.963a.975.975 0 10.113-1.947.975.975 0 10-.114 1.947z" fill="#f9df80"/><path d="M355.065 171.25c.297-.202.606-.535.452-.857-.155-.332-.654-.249-.998-.13l-2.817 1.034.618 3.103c.927-.548 1.902-2.544 2.746-3.15z" fill="#a36d34"/><path d="M338.843 159.826c-.088.139-.179.288-.183.453-.006.257.198.467.386.641l.807.751c.082.075.776.376.887.381.19.009-.29-.412-.215-.586a13.883 13.883 0 001.139-5.543l-2.822 3.903z" fill="#c99466"/><path d="M341.46 160.898s.303 1.765-.597 1.47c-.899-.294-2.034-1.689-2.034-1.689" fill="#c38743"/><path d="M345.39 157.381c-.237.725-.174 1.527-.139 2.032.011.165.034.337.13.479s.285.248.467.211c.223-.044.334-.268.388-.465.155-.56.107-1.144.115-1.721.013-.999-.792-1.053-.961-.535z"/><path d="M342.724 165.182a.503.503 0 00-.39.613c.147.597 1.059 1.713 2.818 1.351 1.469-.303 1.808-1.525 1.907-2.09a.505.505 0 00-.599-.583c-1.166.237-2.975.552-3.736.708z" fill="#fff"/><path d="M352.599 175.257c-13.713-2.959-17.419 4.342-17.419 4.342s.178 49.349 1.312 68.376h38.529c-1.907-8.849-.689-43.953-.689-43.953-19.026 3.337-21.732-28.765-21.732-28.765z" fill="#37be5f"/><path d="M374.262 204.194c-.388-8.707.882-14.399.882-14.399l.486 8.912c-.531 1.334-1.368 5.488-1.368 5.488z" fill="#37be5f"/><path d="M367.046 118.924c7.028 0 12.728-5.7 12.728-12.728s-5.7-12.728-12.728-12.728-12.728 5.7-12.728 12.728 5.7 12.728 12.728 12.728z" fill="#f4a519"/><path d="M371.024 102.441h-1.677c0-.505-.178-1.002-.445-1.418h2.123c.356 0 .794-.252.794-.75a.766.766 0 00-.794-.75h-7.956c-.356 0-.794.252-.794.75 0 .334.267.75.794.75h3.444c1.239 0 1.328 1.507 1.328 1.507h-4.683c-.356 0-.794.252-.794.75 0 .334.267.75.794.75h4.683c0 .75-.705 1.507-1.328 1.507h-3.095c-.356 0-.705.163-.794.497s-.089.668.089.92l5.388 5.677c.178.171.356.252.705.252.178 0 .356-.082.616-.163.356-.252.356-.839.089-1.254l-4.327-4.512h1.328c.705 0 1.41-.334 1.944-.839a2.825 2.825 0 00.883-2.085h1.677c.356 0 .794-.252.794-.75 0-.416-.267-.839-.794-.839h.007z" fill="#945700"/><path d="M342.03 97.287l1.283-.63a1.142 1.142 0 00.677-1.037 1.137 1.137 0 00-.677-1.036l-1.283-.63a.906.906 0 01-.312-.196.89.89 0 01-.21-.3l-.662-1.216a1.248 1.248 0 00-2.181 0l-.664 1.216a.883.883 0 01-.209.3.89.89 0 01-.312.194l-1.284.632a1.137 1.137 0 00-.675 1.035 1.132 1.132 0 00.675 1.036l1.284.632a.918.918 0 01.525.494l.664 1.216a1.242 1.242 0 001.726.471c.192-.113.349-.276.456-.471l.664-1.216c.137-.198.312-.366.518-.495zm49.869 22.88l.907-.446a.81.81 0 00.479-.733.808.808 0 00-.479-.733l-.907-.446a.67.67 0 01-.37-.35l-.468-.86a.88.88 0 00-1.22-.332.865.865 0 00-.323.332l-.469.86a.644.644 0 01-.369.35l-.908.447a.806.806 0 00-.477.732.807.807 0 00.477.733l.908.447a.658.658 0 01.372.349l.469.86a.887.887 0 00.322.333.888.888 0 00.898 0 .866.866 0 00.322-.333l.469-.86a1.26 1.26 0 01.366-.35z" fill="#f4a519"/><path d="M385.627 215.984V199.45a5.693 5.693 0 00-7.67 2.402l-1.687 3.212.338 8.55c-.011.115-.039.216-.045.337-.105 2.16-.938 5.385-1.083 7.57h9.696l.405-1.307c.121-.396.069-3.779.054-4.158 0-.025-.007-.047-.008-.072z" fill="#c38743"/><path d="M373.298 206.888l-21.561 41.042h23.427c-1.656-7.684-1.064-35.261-.879-42.392-.384.39-.719.84-.986 1.35z" fill="#5daf6e"/><path d="M307.663 148.544l.591-13.009 7.318 2.664-7.909 10.345z" fill="#ffbb29"/><path d="M315.785 142.053c10.589 0 19.173-8.584 19.173-19.172s-8.584-19.172-19.173-19.172-19.172 8.583-19.172 19.172 8.584 19.172 19.172 19.172z" fill="#ffbb29"/><path d="M308.916 124.842l4.383 1.054c.361.087.583.45.496.81l-1.96 8.145c-.168.699.733 1.138 1.18.575l10.337-13.04a.671.671 0 00-.368-1.07l-4.383-1.055a.67.67 0 01-.496-.81l1.96-8.143c.168-.7-.733-1.138-1.18-.575l-10.337 13.039a.673.673 0 00.369 1.072z" fill="#fff"/><path d="M411.993 248.042v-34.139l-25.076-13.173a5.693 5.693 0 00-7.689 2.393l-23.597 44.918h56.362z" fill="#f4a519"/><path d="M411.632 247.958c.134-.257.24-.52.361-.78v-14.312a16.984 16.984 0 00-7.544-7.96c-8.351-4.388-18.677-1.173-23.064 7.178-2.711 5.16-2.512 11.072 0 15.874h30.247z" fill="#ffbb29"/><path d="M387.089 245.131c.191-.181.466-.203.648-.013.182.191.204.466.013.648l.331.317c.191-.181.466-.204.648-.013s.204.466.013.648l.331.317c.191-.182.466-.204.648-.012.182.19.204.466.013.647l.297.286h.082c.178-.139.406-.151.573 0h5.526c2.592-2.139 6.896-6.093 10.083-11.07-.433-.59-.449-1.4.025-1.977l-.396-.365c-.191.181-.466.204-.648.013s-.204-.466-.013-.648l-.33-.317c-.191.182-.466.204-.648.013-.182-.19-.204-.466-.013-.647l-.331-.318c-.191.182-.466.204-.648.014-.182-.191-.204-.467-.013-.648l-.331-.317c-.191.181-.466.203-.648.012s-.204-.466-.013-.648l-.331-.317c-.19.182-.466.204-.648.012-.182-.19-.204-.466-.013-.648l-.248-.238a1.675 1.675 0 01-1.991.104c-5.104 7.428-12.339 12.823-12.339 12.823.433.59.433 1.369-.025 1.978l.396.364z" fill="#f4a519"/></svg>