<svg xmlns="http://www.w3.org/2000/svg" viewBox="0 0 412 248"><rect x="-155.36" y="-1175.04" width="2997.42" height="1751.66" rx="111.98" ry="111.98" fill="#777"/><path fill="#161616" d="M-.15 0h412v248h-412z"/><path d="M25.3 201.98h3.75c.53 0 1.03.12 1.48.35.46.23.82.55 1.08.96s.4.86.4 1.35-.12.93-.37 1.29c-.25.37-.58.65-.99.85v.07c.52.18.94.47 1.25.88.31.41.46.9.46 1.46s-.14 1.04-.43 1.46c-.29.43-.67.76-1.15.99s-1.01.36-1.58.36h-3.92v-10.02zm3.69 4.21c.47 0 .84-.14 1.12-.43.28-.29.42-.61.42-.99s-.14-.7-.41-.97c-.28-.28-.63-.41-1.07-.41h-2.2v2.8h2.14zm.23 4.38c.49 0 .88-.15 1.17-.44s.44-.65.44-1.06-.15-.77-.46-1.06c-.3-.3-.71-.45-1.21-.45h-2.32v3.01h2.38zm6.3 1.16c-.57-.33-1.01-.79-1.33-1.37-.32-.58-.48-1.22-.48-1.93s.16-1.35.48-1.93c.32-.58.76-1.03 1.33-1.37.57-.33 1.21-.5 1.93-.5s1.35.17 1.92.5 1.01.79 1.33 1.37c.32.58.48 1.22.48 1.92s-.16 1.35-.48 1.93c-.32.58-.76 1.04-1.32 1.37-.56.33-1.21.5-1.92.5s-1.36-.17-1.93-.5zm3.04-1.19c.34-.2.61-.48.81-.84s.31-.79.31-1.27-.1-.91-.31-1.27-.48-.64-.81-.84c-.34-.2-.7-.29-1.11-.29s-.77.1-1.11.29c-.34.2-.61.48-.82.84-.21.36-.31.79-.31 1.27s.1.91.31 1.27.48.64.82.84.71.29 1.11.29.77-.1 1.11-.29zm5.71 1.19c-.57-.33-1.01-.79-1.33-1.37-.32-.58-.48-1.22-.48-1.93s.16-1.35.48-1.93c.32-.58.76-1.03 1.33-1.37.57-.33 1.21-.5 1.93-.5s1.35.17 1.92.5 1.01.79 1.33 1.37c.32.58.48 1.22.48 1.92s-.16 1.35-.48 1.93c-.32.58-.76 1.04-1.32 1.37-.56.33-1.21.5-1.92.5s-1.36-.17-1.93-.5zm3.04-1.19c.34-.2.61-.48.81-.84s.31-.79.31-1.27-.1-.91-.31-1.27-.48-.64-.81-.84c-.34-.2-.7-.29-1.11-.29s-.77.1-1.11.29c-.34.2-.61.48-.82.84-.21.36-.31.79-.31 1.27s.1.91.31 1.27.48.64.82.84.71.29 1.11.29.77-.1 1.11-.29zm4.21-8.56h1.51v5.88h.06l2.97-3h1.88v.08l-2.76 2.74 2.86 4.23v.08h-1.79l-2.13-3.28-1.08 1.08v2.2h-1.51v-10.02zm11.27 2.88h1.43v.98h.08c.21-.35.51-.64.92-.87.41-.22.85-.34 1.33-.34.86 0 1.51.25 1.96.76.45.51.67 1.21.67 2.09v4.51h-1.5v-4.31c0-.56-.14-.98-.42-1.25-.28-.28-.66-.41-1.15-.41-.35 0-.67.1-.95.29-.28.2-.49.46-.64.78-.15.33-.23.68-.23 1.06v3.84h-1.51v-7.14zm9.83 6.87c-.57-.33-1.01-.79-1.33-1.37-.32-.58-.48-1.22-.48-1.93s.16-1.35.48-1.93c.32-.58.76-1.03 1.33-1.37.57-.33 1.21-.5 1.93-.5s1.35.17 1.92.5 1.01.79 1.33 1.37c.32.58.48 1.22.48 1.92s-.16 1.35-.48 1.93c-.32.58-.76 1.04-1.32 1.37-.56.33-1.21.5-1.92.5s-1.36-.17-1.93-.5zm3.04-1.19c.34-.2.61-.48.81-.84s.31-.79.31-1.27-.1-.91-.31-1.27-.48-.64-.81-.84c-.34-.2-.7-.29-1.11-.29s-.77.1-1.11.29c-.34.2-.61.48-.82.84-.21.36-.31.79-.31 1.27s.1.91.31 1.27.48.64.82.84.71.29 1.11.29.77-.1 1.11-.29zm3.36-5.68h1.64l1.47 5.14h.06l1.61-5.14h1.55l1.61 5.14h.06l1.47-5.14h1.61L87.8 212h-1.58l-1.65-5.17h-.06L82.87 212H81.3l-2.28-7.14z" fill="#9fc7ff"/><circle cx="114.01" cy="207" r="14" fill="#9fc7ff"/><path d="M115.68 202l-1.18 1.18 2.98 2.99h-10.14v1.67h10.14l-2.98 2.99 1.18 1.18 5-5-5-5z"/><path d="M25.77 124.12h5.73c.8 0 1.56.18 2.26.55.71.37 1.27.87 1.68 1.52s.62 1.37.62 2.18c0 .76-.2 1.43-.59 2s-.92 1.01-1.59 1.32v.09c.8.26 1.46.72 1.96 1.36.51.65.76 1.4.76 2.27s-.22 1.62-.66 2.3c-.44.68-1.02 1.21-1.76 1.6-.73.38-1.53.57-2.37.57h-6.04v-15.75zm5.72 6.8c.53 0 1.01-.12 1.42-.36.41-.24.72-.56.95-.95s.33-.79.33-1.2-.11-.79-.32-1.18-.52-.71-.91-.96-.85-.37-1.37-.37h-3.92v5.02h3.83zm.43 7.17c.54 0 1.01-.13 1.44-.4.42-.26.75-.61.98-1.02s.35-.85.35-1.29-.12-.87-.36-1.29-.57-.76-1-1.01c-.43-.26-.93-.38-1.49-.38h-4.17v5.39h4.26zm9.2 1.34c-.89-.53-1.59-1.25-2.08-2.16s-.75-1.91-.75-3.01.25-2.1.75-3.01c.5-.91 1.19-1.63 2.08-2.16.89-.53 1.89-.79 3.01-.79s2.12.26 3.01.79c.89.53 1.59 1.25 2.08 2.16.5.91.75 1.91.75 3.01s-.25 2.1-.75 3.01-1.19 1.63-2.08 2.16c-.89.53-1.89.79-3.01.79s-2.12-.26-3.01-.79zm4.96-1.42c.6-.34 1.08-.84 1.45-1.49.36-.65.55-1.4.55-2.27s-.18-1.62-.55-2.27c-.36-.64-.85-1.14-1.45-1.48-.6-.34-1.25-.52-1.95-.52s-1.35.17-1.96.52-1.1.84-1.46 1.48c-.37.65-.55 1.4-.55 2.27s.18 1.62.55 2.27c.36.65.85 1.14 1.46 1.49s1.26.52 1.96.52 1.35-.17 1.95-.52zm8.32 1.42a5.536 5.536 0 01-2.08-2.16c-.5-.91-.75-1.91-.75-3.01s.25-2.1.75-3.01c.5-.91 1.19-1.63 2.08-2.16.89-.53 1.89-.79 3.01-.79s2.12.26 3.01.79c.89.53 1.58 1.25 2.08 2.16.5.91.75 1.91.75 3.01s-.25 2.1-.75 3.01c-.5.91-1.19 1.63-2.08 2.16-.89.53-1.89.79-3.01.79s-2.12-.26-3.01-.79zm4.96-1.42c.6-.34 1.08-.84 1.45-1.49s.55-1.4.55-2.27-.18-1.62-.55-2.27c-.36-.64-.85-1.14-1.45-1.48s-1.25-.52-1.95-.52-1.35.17-1.96.52c-.61.34-1.1.84-1.46 1.48-.36.65-.54 1.4-.54 2.27s.18 1.62.54 2.27c.36.65.85 1.14 1.46 1.49.61.34 1.26.52 1.96.52s1.35-.17 1.95-.52zm5.98-13.89h1.89v9.9l5.35-5.37h2.41v.09l-4.46 4.44 4.59 6.6v.09h-2.27l-3.65-5.39-1.96 1.94v3.45h-1.89v-15.75zm19.9 15.05l-4.7-10.52h2.05l3.57 8.34h.04l3.43-8.34h2.05l-7.02 15.97H82.7l2.54-5.46zm9.8.26c-.89-.53-1.59-1.25-2.08-2.16s-.75-1.91-.75-3.01.25-2.1.75-3.01c.5-.91 1.19-1.63 2.08-2.16.89-.53 1.89-.79 3.01-.79s2.12.26 3.01.79c.89.53 1.59 1.25 2.08 2.16.5.91.75 1.91.75 3.01s-.25 2.1-.75 3.01c-.5.91-1.19 1.63-2.08 2.16-.89.53-1.89.79-3.01.79s-2.12-.26-3.01-.79zm4.96-1.42c.6-.34 1.08-.84 1.45-1.49.36-.65.54-1.4.54-2.27s-.18-1.62-.54-2.27c-.37-.64-.85-1.14-1.45-1.48s-1.25-.52-1.95-.52-1.35.17-1.96.52-1.1.84-1.46 1.48c-.36.65-.55 1.4-.55 2.27s.18 1.62.55 2.27a3.874 3.874 0 003.42 2.01c.7 0 1.35-.17 1.95-.52zm6.98 1.03c-.72-.79-1.08-1.9-1.08-3.32v-7.06h1.89v6.78c0 1.07.25 1.86.74 2.35.49.5 1.15.75 1.98.75.64 0 1.21-.17 1.71-.51.5-.34.88-.78 1.16-1.32.28-.54.41-1.11.41-1.72v-6.34h1.89v11.22h-1.8v-1.63h-.09c-.31.56-.81 1.03-1.49 1.41s-1.41.57-2.18.57c-1.37 0-2.41-.4-3.13-1.19zm11.51-10.39h1.81v1.8h.09c.22-.62.65-1.13 1.29-1.54.64-.41 1.31-.62 2.01-.62.52 0 .96.08 1.34.24v2c-.47-.23-1.01-.35-1.6-.35-.55 0-1.05.15-1.52.46s-.83.72-1.1 1.25c-.27.52-.41 1.08-.41 1.69v6.28h-1.89v-11.22zm13.9-4.53h1.89v13.97h6.97v1.78h-8.87v-15.75zm11.34 0h5.37c.89 0 1.72.2 2.47.59.76.4 1.36.95 1.82 1.66.45.71.68 1.51.68 2.41s-.23 1.7-.68 2.41a4.7 4.7 0 01-1.82 1.66c-.76.4-1.58.59-2.47.59h-3.48v6.42h-1.89v-15.75zm5.42 7.55c.59 0 1.12-.14 1.57-.42.45-.28.81-.64 1.06-1.08.25-.44.38-.9.38-1.39s-.13-.95-.38-1.39c-.25-.44-.61-.8-1.06-1.08s-.98-.42-1.57-.42h-3.52v5.76h3.52zm10.54 7.48a8.092 8.092 0 01-3.01-2.97c-.74-1.26-1.11-2.66-1.11-4.18s.37-2.92 1.11-4.18 1.75-2.25 3.01-2.97c1.26-.72 2.64-1.08 4.14-1.08 1.17 0 2.28.21 3.31.62 1.03.41 1.88.99 2.55 1.74l-1.34 1.34a5.038 5.038 0 00-1.96-1.42c-.79-.33-1.63-.49-2.54-.49-1.12 0-2.16.27-3.14.8s-1.76 1.29-2.35 2.27c-.59.98-.88 2.1-.88 3.38s.29 2.4.88 3.38c.59.98 1.37 1.73 2.35 2.27s2.03.8 3.14.8 1.96-.17 2.68-.5c.72-.33 1.34-.77 1.86-1.31.39-.41.7-.91.94-1.49s.39-1.22.45-1.92h-5.91v-1.74h7.67c.07.41.11.79.11 1.14 0 .97-.16 1.91-.47 2.83-.31.92-.81 1.72-1.49 2.41-1.47 1.57-3.42 2.35-5.86 2.35-1.5 0-2.88-.36-4.14-1.08zm21.74.29a5.452 5.452 0 01-2.05-2.13c-.49-.9-.74-1.92-.74-3.05s.25-2.15.74-3.06c.49-.91 1.17-1.62 2.05-2.13s1.86-.77 2.96-.77c1.23 0 2.27.28 3.11.85.84.56 1.44 1.32 1.79 2.25l-1.72.7c-.28-.69-.7-1.21-1.26-1.57-.56-.36-1.23-.54-2.02-.54-.67 0-1.29.18-1.87.54s-1.04.86-1.39 1.51c-.35.65-.52 1.39-.52 2.22s.17 1.58.52 2.22c.35.65.81 1.15 1.39 1.51s1.2.54 1.87.54c.8 0 1.49-.18 2.07-.55.58-.37 1.01-.89 1.29-1.56l1.69.7c-.39.92-1.01 1.67-1.86 2.24-.85.57-1.89.86-3.11.86-1.1 0-2.09-.26-2.96-.78zm13.46-.27l-4.7-10.52h2.05l3.57 8.34h.04l3.43-8.34h2.05l-7.02 15.97h-1.96l2.54-5.46zm7.8-15.05h1.89v15.75h-1.89v-15.75zm4.86 2.07c-.27-.26-.4-.58-.4-.95s.13-.7.4-.96.59-.38.96-.38.71.13.97.38c.26.26.39.58.39.96s-.13.68-.39.95c-.26.26-.58.4-.97.4s-.69-.13-.96-.4zm.02 2.46h1.89v11.22h-1.89v-11.22zm4.86 0h1.81v1.65h.09c.31-.56.81-1.03 1.49-1.42.68-.39 1.41-.58 2.18-.58 1.37 0 2.41.39 3.13 1.18.72.78 1.08 1.85 1.08 3.2v7.19h-1.89v-6.91c0-1.04-.25-1.8-.76-2.27-.5-.47-1.2-.7-2.07-.7-.61 0-1.15.17-1.64.51-.48.34-.86.78-1.13 1.33-.27.55-.4 1.13-.4 1.73v6.31h-1.89v-11.22zm14.56 10.8c-.82-.51-1.47-1.22-1.95-2.12-.48-.9-.71-1.92-.71-3.07s.24-2.15.71-3.06c.47-.91 1.12-1.62 1.95-2.13s1.75-.77 2.77-.77c.86 0 1.63.19 2.32.58s1.2.87 1.56 1.44h.09l-.09-1.56v-4.64h1.89v15.75h-1.8v-1.65h-.09c-.36.56-.88 1.03-1.56 1.42-.68.39-1.46.58-2.32.58-1.02 0-1.95-.26-2.77-.77zm4.84-1.45c.57-.35 1.03-.85 1.38-1.5.35-.64.52-1.39.52-2.24s-.17-1.6-.52-2.24-.81-1.14-1.38-1.5c-.57-.35-1.19-.53-1.86-.53s-1.27.18-1.85.53c-.58.35-1.04.85-1.39 1.51s-.52 1.4-.52 2.23.17 1.58.52 2.23c.35.65.81 1.16 1.39 1.51.58.35 1.2.53 1.85.53s1.29-.18 1.86-.53zm8.54 1.45a5.424 5.424 0 01-2.02-2.12c-.48-.9-.72-1.92-.72-3.05 0-1.07.23-2.06.68-2.98.45-.92 1.1-1.65 1.94-2.19.84-.54 1.8-.81 2.89-.81s2.08.25 2.9.74c.82.49 1.45 1.17 1.88 2.04.44.87.66 1.86.66 2.97 0 .18-.02.37-.04.57h-9c.04.85.25 1.57.62 2.16s.84 1.03 1.42 1.32c.57.29 1.17.44 1.79.44 1.49 0 2.61-.67 3.37-2.02l1.6.77c-.47.89-1.14 1.61-1.98 2.14-.85.54-1.87.8-3.05.8-1.08 0-2.06-.26-2.92-.77zm6.2-6.38a3.58 3.58 0 00-.4-1.41c-.24-.47-.61-.87-1.11-1.19s-1.14-.48-1.92-.48c-.89 0-1.65.28-2.27.85-.62.56-1.03 1.31-1.22 2.23h6.93zm4.21-4.42h1.8v1.8h.09c.22-.62.65-1.13 1.29-1.54.64-.41 1.31-.62 2-.62.52 0 .97.08 1.34.24v2a3.66 3.66 0 00-1.61-.35c-.55 0-1.05.15-1.51.46s-.83.72-1.1 1.25c-.28.52-.41 1.08-.41 1.69v6.28h-1.89v-11.22zM26.79 167.36c-.65-.32-1.16-.77-1.51-1.33s-.53-1.21-.53-1.93c0-1.19.45-2.12 1.36-2.78.91-.67 2.05-1 3.43-1 .68 0 1.32.07 1.91.22s1.04.32 1.35.51v-.68c0-.84-.3-1.51-.89-2.01-.59-.51-1.34-.76-2.25-.76-.62 0-1.21.14-1.75.41-.54.27-.97.65-1.28 1.13l-1.43-1.06c.45-.67 1.06-1.2 1.85-1.58.79-.38 1.66-.57 2.61-.57 1.54 0 2.76.4 3.63 1.2.88.8 1.31 1.89 1.31 3.27v7.11h-1.8v-1.61h-.09c-.33.54-.82 1-1.47 1.39-.65.38-1.39.57-2.21.57s-1.57-.16-2.23-.48zm4.19-1.65c.55-.32.99-.75 1.31-1.3.33-.54.49-1.14.49-1.78-.36-.23-.79-.42-1.31-.57-.52-.15-1.07-.22-1.65-.22-1.04 0-1.82.21-2.35.64-.53.43-.79.98-.79 1.65 0 .62.24 1.12.71 1.5.48.38 1.08.57 1.81.57.64 0 1.23-.16 1.78-.48zm6.24-9.44h1.81v1.65h.09c.31-.56.81-1.03 1.49-1.42.68-.39 1.41-.58 2.18-.58 1.37 0 2.41.39 3.13 1.18.72.79 1.08 1.85 1.08 3.2v7.19h-1.89v-6.91c0-1.04-.25-1.8-.76-2.27-.5-.47-1.2-.7-2.07-.7-.61 0-1.15.17-1.64.51-.48.34-.86.78-1.13 1.33-.27.55-.4 1.13-.4 1.73v6.31h-1.89v-11.22zm14.56 10.8c-.82-.51-1.47-1.22-1.95-2.12-.48-.9-.71-1.92-.71-3.07s.24-2.15.71-3.06c.47-.91 1.12-1.62 1.95-2.13.82-.51 1.75-.77 2.77-.77.86 0 1.63.19 2.32.58s1.2.87 1.56 1.44h.09l-.09-1.56v-4.64h1.89v15.75h-1.8v-1.65h-.09c-.36.56-.88 1.03-1.56 1.42s-1.46.58-2.32.58c-1.02 0-1.95-.26-2.77-.77zm4.84-1.45c.57-.35 1.03-.85 1.38-1.5s.52-1.39.52-2.24-.17-1.6-.52-2.24c-.35-.64-.81-1.14-1.38-1.5-.57-.35-1.19-.53-1.86-.53s-1.27.18-1.85.53c-.58.35-1.04.85-1.39 1.51-.35.65-.52 1.4-.52 2.23s.17 1.58.52 2.23.81 1.15 1.39 1.51c.58.35 1.2.53 1.85.53s1.29-.18 1.86-.53zm13.83 1.45a5.355 5.355 0 01-2.02-2.12c-.48-.9-.72-1.92-.72-3.05 0-1.07.23-2.06.68-2.98.45-.92 1.1-1.65 1.94-2.19.84-.54 1.8-.81 2.89-.81s2.08.25 2.9.74 1.44 1.17 1.88 2.04c.44.87.66 1.86.66 2.97 0 .18-.01.37-.04.57h-9c.04.85.25 1.57.62 2.16.37.59.84 1.03 1.41 1.32.57.29 1.17.44 1.79.44 1.49 0 2.61-.67 3.36-2.02l1.61.77c-.48.9-1.14 1.61-1.98 2.15-.85.54-1.86.8-3.05.8-1.08 0-2.06-.26-2.92-.77zm6.19-6.38c-.03-.47-.16-.94-.4-1.41s-.61-.87-1.11-1.19c-.5-.32-1.14-.48-1.92-.48-.89 0-1.65.28-2.27.85-.62.56-1.03 1.31-1.23 2.23h6.93zm5.73 6.67c-.65-.32-1.16-.77-1.51-1.33s-.53-1.21-.53-1.93c0-1.19.45-2.12 1.36-2.78.91-.67 2.05-1 3.43-1 .68 0 1.32.07 1.91.22s1.04.32 1.35.51v-.68c0-.84-.3-1.51-.89-2.01-.59-.51-1.34-.76-2.25-.76-.62 0-1.21.14-1.75.41-.54.27-.97.65-1.28 1.13l-1.43-1.06c.45-.67 1.06-1.2 1.85-1.58.79-.38 1.66-.57 2.61-.57 1.54 0 2.76.4 3.63 1.2.88.8 1.31 1.89 1.31 3.27v7.11h-1.8v-1.61h-.09c-.33.54-.82 1-1.47 1.39-.65.38-1.39.57-2.21.57s-1.57-.16-2.23-.48zm4.18-1.65c.55-.32.99-.75 1.31-1.3.33-.54.49-1.14.49-1.78-.36-.23-.79-.42-1.31-.57-.52-.15-1.07-.22-1.65-.22-1.04 0-1.82.21-2.35.64-.53.43-.79.98-.79 1.65 0 .62.24 1.12.71 1.5.48.38 1.08.57 1.81.57.64 0 1.23-.16 1.78-.48zm6.24-9.44h1.81v1.8h.09c.22-.62.65-1.13 1.29-1.54s1.31-.62 2.01-.62c.52 0 .96.08 1.34.24v2c-.47-.23-1.01-.35-1.6-.35-.55 0-1.05.15-1.52.46-.46.31-.83.72-1.1 1.25-.27.52-.41 1.08-.41 1.69v6.29h-1.89v-11.22zm8.36 0h1.8v1.65h.09c.31-.56.81-1.03 1.49-1.42s1.41-.58 2.18-.58c1.37 0 2.41.39 3.13 1.18.72.79 1.08 1.85 1.08 3.2v7.19h-1.89v-6.91c0-1.04-.25-1.8-.76-2.27-.5-.47-1.2-.7-2.07-.7-.61 0-1.16.17-1.64.51s-.86.78-1.12 1.33-.4 1.13-.4 1.73v6.31h-1.89v-11.22zm18.66 10.39c-.72-.79-1.08-1.9-1.08-3.32v-7.06h1.89v6.78c0 1.07.24 1.86.73 2.35.49.5 1.15.75 1.98.75.64 0 1.21-.17 1.7-.51.5-.34.88-.78 1.16-1.32.27-.54.41-1.11.41-1.72v-6.34h1.89v11.22h-1.8v-1.63h-.09c-.31.56-.81 1.03-1.49 1.41-.68.38-1.41.57-2.18.57-1.37 0-2.41-.4-3.13-1.19zm11.42-10.39h1.81v1.67h.09c.34-.57.86-1.05 1.55-1.44s1.47-.58 2.33-.58c1.03 0 1.95.26 2.78.77.82.51 1.47 1.22 1.95 2.13.47.91.71 1.93.71 3.06s-.24 2.17-.71 3.07c-.48.9-1.12 1.61-1.95 2.12-.83.51-1.75.77-2.78.77-.86 0-1.64-.19-2.33-.58s-1.21-.86-1.55-1.42h-.09l.09 1.54v4.86h-1.89v-15.97zm7.42 9.35c.58-.35 1.04-.85 1.38-1.5s.51-1.39.51-2.24-.17-1.6-.51-2.24a3.85 3.85 0 00-1.38-1.5c-.58-.35-1.2-.53-1.85-.53s-1.29.18-1.86.53c-.57.35-1.03.85-1.38 1.5-.35.65-.52 1.39-.52 2.24s.17 1.6.52 2.24.81 1.14 1.38 1.5c.57.35 1.19.53 1.86.53s1.27-.18 1.85-.53zm14.25 2c-.39-.15-.72-.35-.99-.6-.59-.57-.89-1.35-.89-2.35v-6.7h-1.98v-1.69h1.98v-3.17h1.89v3.17h2.79v1.69h-2.79v6.25c0 .63.12 1.09.36 1.39.28.33.69.49 1.22.49.46 0 .88-.12 1.25-.37v1.83c-.22.1-.45.18-.68.22s-.52.07-.88.07c-.46 0-.89-.08-1.28-.22zm6.81-.57a5.536 5.536 0 01-2.08-2.16c-.5-.91-.75-1.91-.75-3.01s.25-2.1.75-3.01 1.19-1.63 2.08-2.16c.89-.53 1.89-.79 3.01-.79s2.12.26 3.01.79c.89.53 1.59 1.25 2.08 2.16.5.91.75 1.91.75 3.01s-.25 2.1-.75 3.01c-.5.91-1.19 1.63-2.08 2.16-.89.53-1.89.79-3.01.79s-2.12-.26-3.01-.79zm4.96-1.42c.6-.34 1.08-.84 1.45-1.49.36-.64.54-1.4.54-2.27s-.18-1.62-.54-2.27c-.37-.65-.85-1.14-1.45-1.49s-1.25-.52-1.95-.52-1.35.17-1.96.52-1.1.84-1.46 1.49-.55 1.4-.55 2.27.18 1.62.55 2.27c.36.65.85 1.14 1.46 1.49s1.26.52 1.96.52 1.35-.17 1.95-.52zm21.69-11.65h-2.56c.65.6 1.05 1.28 1.2 2.05h1.36v1.56h-1.34c-.13.72-.44 1.36-.9 1.94-.47.57-1.05 1.02-1.74 1.33-.69.32-1.44.47-2.24.47h-.62l-.04.07 6.02 6.01v.09h-2.58l-5.9-6.01v-1.87h3.14c.68 0 1.29-.18 1.83-.55.53-.37.89-.86 1.07-1.47h-7.93v-1.56h7.93a2.96 2.96 0 00-1-1.45c-.49-.4-1.08-.59-1.76-.59h-5.17v-1.54h11.25V154zm4.57 13.41c-.7-.3-1.31-.75-1.85-1.36-.53-.61-.91-1.36-1.14-2.25l1.67-.66c.24.89.65 1.61 1.25 2.14.59.54 1.31.8 2.14.8 1 0 1.81-.3 2.44-.9s.95-1.39.95-2.35-.31-1.74-.94-2.36c-.62-.62-1.43-.94-2.41-.94-.54 0-1.04.12-1.52.36-.47.24-.86.58-1.16 1l-1.92-.84.98-7.59h7.89v1.78h-6.33l-.6 4.55.09.02c.79-.66 1.75-.99 2.9-.99.88 0 1.69.21 2.44.64.75.43 1.35 1.02 1.79 1.78s.67 1.61.67 2.55-.23 1.79-.68 2.56c-.45.77-1.08 1.38-1.87 1.83-.79.45-1.69.67-2.69.67-.71 0-1.42-.15-2.12-.45zm12.53-.59c-.93-.7-1.64-1.64-2.14-2.84s-.75-2.53-.75-3.99.25-2.8.75-3.99c.5-1.2 1.21-2.14 2.13-2.84.92-.7 1.99-1.04 3.21-1.04s2.29.35 3.21 1.04c.92.7 1.63 1.64 2.14 2.84.5 1.2.76 2.53.76 3.99s-.25 2.8-.76 3.99c-.51 1.2-1.22 2.14-2.15 2.84-.93.7-1.99 1.04-3.2 1.04s-2.27-.35-3.2-1.04zm5.4-1.54c.62-.54 1.11-1.26 1.45-2.19.34-.92.51-1.96.51-3.1s-.17-2.18-.51-3.1c-.34-.92-.83-1.65-1.45-2.19s-1.36-.8-2.21-.8-1.58.27-2.21.8c-.62.54-1.1 1.27-1.44 2.19-.33.92-.5 1.96-.5 3.1s.17 2.18.5 3.1c.33.92.81 1.65 1.44 2.19.62.54 1.36.8 2.21.8s1.58-.27 2.21-.8zm8.97 1.54c-.93-.7-1.64-1.64-2.14-2.84-.5-1.2-.75-2.53-.75-3.99s.25-2.8.75-3.99c.5-1.2 1.21-2.14 2.13-2.84.92-.7 1.99-1.04 3.21-1.04s2.29.35 3.21 1.04c.92.7 1.63 1.64 2.14 2.84.51 1.2.76 2.53.76 3.99s-.25 2.8-.76 3.99c-.5 1.2-1.22 2.14-2.15 2.84-.93.7-1.99 1.04-3.2 1.04s-2.27-.35-3.2-1.04zm5.41-1.54c.62-.54 1.11-1.26 1.45-2.19.34-.92.51-1.96.51-3.1s-.17-2.18-.51-3.1-.82-1.65-1.45-2.19c-.62-.54-1.36-.8-2.21-.8s-1.58.27-2.21.8c-.62.54-1.1 1.27-1.44 2.19s-.5 1.96-.5 3.1.17 2.18.5 3.1c.33.92.81 1.65 1.44 2.19.62.54 1.36.8 2.21.8s1.58-.27 2.21-.8z" fill="#fff"/><path d="M412.15 90.36v131.6h-131.6c0-72.63 58.97-131.6 131.6-131.6z" fill="#303030"/><path d="M227.02 221.57h184.83V248H200.59c0-14.6 11.83-26.43 26.43-26.43z" fill="#444746"/><path fill="#a9acaa" d="M252.14 195.77h159.71v25.8H252.14z"/><path d="M267.25 148.46v40.28h65.78v-40.28l-32.87-19.91-32.91 19.91z" fill="#4c8df6"/><path fill="#7cacf8" d="M262.94 151.59l-1.61-2.67 38.84-23.49 38.8 23.49-1.62 2.67-37.18-22.52-37.23 22.52z"/><path d="M302.59 159h-39.63v29.74h39.63V159z" fill="#1b6ef3"/><path d="M302.59 174.91h-39.63v13.83h39.63v-13.83z" fill="#1b6ef3"/><path d="M302.6 156.16h-42.42V159h42.42v-2.84z" fill="#7cacf8"/><path d="M298.1 168.72h-30.66v8.96h30.66v-8.96z" fill="#29547f"/><path d="M298.1 168.72h-30.66v9.53h30.66v-9.53z" fill="none" stroke="#7cacf8" stroke-miterlimit="10" stroke-width="1.4"/><path d="M282.78 168.69v9.27" fill="none" stroke="#7cacf8" stroke-miterlimit="10" stroke-width="1.42"/><path d="M326.46 188.6v.14" fill="none" stroke="#3b84f2" stroke-miterlimit="10" stroke-width="1.98"/><path d="M312.16 188.74v-26.11c0-3.78 4.35-5 7.15-5s7.15 1.26 7.15 5v26.11" fill="#29547f" stroke="#7cacf8" stroke-miterlimit="10" stroke-width="2.63"/><rect x="294.74" y="137.47" width="10.81" height="10.81" rx="5.41" ry="5.41" fill="#29547f"/><path d="M393.44 138.89l.68-.33c.11-.05.2-.12.26-.22s.1-.21.1-.32-.03-.23-.1-.33a.562.562 0 00-.26-.22l-.68-.33a.435.435 0 01-.16-.1c-.05-.04-.08-.1-.11-.16l-.35-.64a.718.718 0 00-.24-.25.656.656 0 00-.66 0c-.1.06-.18.14-.24.25l-.35.64c-.03.06-.06.11-.11.16s-.1.08-.16.1l-.68.33c-.11.05-.2.12-.26.22s-.1.21-.1.32.03.23.1.33c.06.1.15.17.26.22l.68.33c.06.02.12.06.16.1.05.04.09.1.11.16l.35.64c.06.1.14.19.24.25a.656.656 0 00.66 0c.1-.06.18-.15.24-.25l.35-.64c.07-.1.16-.19.27-.26z" fill="#a9acaa"/><path d="M228.43 203.73l1.35-.66c.21-.09.39-.25.52-.44s.19-.42.19-.65-.07-.46-.19-.65c-.13-.19-.31-.35-.52-.44l-1.35-.66c-.12-.05-.23-.12-.33-.21-.09-.09-.17-.2-.22-.32l-.7-1.28c-.11-.2-.28-.38-.48-.49-.2-.12-.43-.18-.67-.18s-.46.06-.67.18c-.2.12-.37.29-.48.49l-.7 1.28c-.05.12-.13.23-.22.32s-.21.16-.33.2l-1.35.67c-.21.09-.39.25-.52.44s-.19.42-.19.65.07.46.19.65c.13.19.3.35.52.44l1.35.67c.12.05.23.11.33.2.09.09.17.2.22.32l.7 1.28a1.294 1.294 0 001.15.68c.24 0 .46-.06.67-.18.2-.12.37-.29.48-.5l.7-1.28c.14-.21.33-.39.54-.52z" fill="#747775"/><path d="M320.42 118.12l.67-.33c.1-.05.19-.12.26-.22.06-.1.1-.21.1-.32s-.03-.23-.1-.32a.562.562 0 00-.26-.22l-.67-.33a.435.435 0 01-.16-.1c-.05-.04-.08-.1-.11-.16l-.35-.63a.615.615 0 00-.24-.24c-.1-.06-.21-.09-.33-.09s-.23.03-.33.09a.69.69 0 00-.24.24l-.35.63c-.03.06-.06.11-.11.16-.05.04-.1.08-.16.1l-.67.33c-.1.05-.19.12-.26.22-.06.1-.1.21-.1.32s.03.23.1.32c.06.1.15.17.26.22l.67.33c.06.02.12.06.16.1.05.04.09.1.11.16l.35.63c.06.1.14.19.24.25.1.06.21.09.33.09s.23-.03.33-.09.18-.14.24-.25l.35-.63c.07-.1.16-.19.27-.26z" fill="#303030"/><path d="M310.52 101.61l1.02-.5a.9.9 0 00.39-.33.881.881 0 000-.98.838.838 0 00-.39-.33l-1.02-.5a.821.821 0 01-.25-.16.807.807 0 01-.17-.24l-.53-.97a.993.993 0 00-.86-.51.993.993 0 00-.86.51l-.53.97c-.04.09-.1.17-.17.24-.07.07-.16.12-.25.15l-1.02.5a.9.9 0 00-.39.33c-.09.15-.15.32-.15.49s.05.34.15.49c.1.15.23.26.39.33l1.02.5c.09.03.18.09.25.15.07.07.13.15.17.24l.53.97c.09.15.21.28.36.37.15.09.33.14.51.14s.35-.05.5-.14c.15-.09.28-.22.36-.37l.53-.97c.11-.16.25-.29.41-.39zm-2.7 87.13h31.73l5.8 7.2h66.5v-7.2H257.59v7.2h38.53l5.79-7.2h5.91z" fill="#747775"/><path fill="#8e918f" d="M345.35 195.94h-49.23l-20.67 25.65h92.13l-21.93-25.28-.3-.37z"/><path fill="#5c5f5e" d="M339.55 188.74h-37.64l-5.79 7.2h49.23l-5.8-7.2z"/><circle cx="355" cy="140.87" r="4.31" fill="#f09d00"/><circle cx="343.59" cy="156.96" r="2.76" fill="#f4a519"/><path d="M398.84 186.95s-.07-.09-.11-.13c3.1-2.8 7.36-7.29 4.72-8.81-2.63-1.52-5.1 3.98-6.51 7.78.88-3.91 1.73-9.77-1.06-9.89-2.8.12-1.95 5.98-1.13 9.9-1.35-3.81-3.81-9.31-6.44-7.79-2.64 1.52 1.62 6.01 4.72 8.81-.04.04-.08.08-.11.13-3.41-2.31-8.85-5.41-10.06-2.66-.6 1.37.8 2.3 1.92 2.79 1.84.72 3.76 1.2 5.73 1.41.67.12 1.35.2 2.03.23 1.79.04 3.59 0 5.39 0 2.35-.02 4.69-.34 6.96-.95.92-.22 1.82-.55 2.66-.98.62-.27 1.13-.77 1.42-1.38.12-.37.09-.77-.07-1.12-1.21-2.75-6.65.35-10.06 2.66z" fill="#198639"/><path d="M344.14 125.19c7.72 0 13.97-6.2 13.97-13.84s-6.26-13.84-13.97-13.84-13.97 6.2-13.97 13.84 6.26 13.84 13.97 13.84z" fill="#fbbc04"/><path d="M344.14 125.19c7.72 0 13.97-6.2 13.97-13.84 0-3.05-1.01-5.87-2.7-8.16a131.46 131.46 0 00-23.64 14.58c2.34 4.41 7 7.42 12.37 7.42z" fill="#f4a519"/><path d="M348.08 107.81h-1.66v-.02a3.49 3.49 0 00-.42-1.51h2.09c.21-.01.4-.1.55-.24a.78.78 0 00-.01-1.1.764.764 0 00-.55-.23l-7.89.03c-.21 0-.4.09-.55.23-.14.15-.22.34-.22.55 0 .21.08.4.23.55.15.15.34.23.55.23h3.43-.02c1.25 0 1.29 1.53 1.29 1.53l-4.7.02a.765.765 0 00-.55.23.765.765 0 00-.17.85.782.782 0 00.43.42c.1.04.2.06.3.06l4.69-.02c.04.77-.69 1.53-1.28 1.53h-3.05c-.17 0-.33.04-.47.13-.14.09-.25.22-.31.37-.06.16-.08.33-.06.5.02.17.07.33.16.48l5.34 5.93c.09.1.19.17.31.22.12.05.25.07.38.07.21-.02.41-.09.59-.2.39-.29.39-.88.09-1.27l-4.28-4.71h1.31c.36-.02.72-.1 1.05-.25.33-.15.63-.37.87-.64.28-.28.51-.62.66-.99.15-.37.23-.77.22-1.17s1.66-.01 1.66-.01a.765.765 0 00.55-.23.765.765 0 00.17-.85.782.782 0 00-.43-.42c-.1-.04-.2-.06-.3-.06z" fill="#e37400"/><path d="M331.14 137.85c3.64 0 6.59-2.92 6.59-6.52s-2.95-6.52-6.59-6.52-6.59 2.92-6.59 6.52 2.95 6.52 6.59 6.52z" fill="#f4a519"/><path d="M331.14 137.85c3.64 0 6.59-2.92 6.59-6.52 0-1.44-.48-2.76-1.27-3.84-3.97 1.9-7.7 4.21-11.14 6.87 1.1 2.08 3.3 3.5 5.83 3.5z" fill="#f4a519"/><path d="M333 129.66h-.78v-.01c-.01-.25-.08-.49-.2-.71h.98c.1 0 .19-.04.26-.11a.363.363 0 000-.52.363.363 0 00-.26-.11h-3.72a.42.42 0 00-.26.12.363.363 0 000 .52c.07.07.16.11.26.11h1.62-.01c.59 0 .61.72.61.72h-2.21s-.1.02-.14.04a.36.36 0 00-.2.2c-.02.04-.03.09-.03.14s0 .1.03.14c.02.04.05.08.08.12.03.03.08.06.12.08.05.02.09.03.14.03h2.21c.02.36-.32.71-.6.71h-1.44c-.08 0-.16.02-.22.06-.07.04-.12.1-.15.18-.03.08-.04.16-.03.24 0 .08.03.16.08.22l2.52 2.79s.09.08.15.1c.06.02.12.03.18.03.1 0 .19-.04.28-.09.18-.14.18-.41.04-.6l-2.02-2.22h.62c.17 0 .34-.05.5-.12.16-.07.3-.17.41-.3a1.459 1.459 0 00.42-1.02h.78c.05 0 .1 0 .14-.03a.36.36 0 00.2-.2c.02-.04.03-.09.03-.14s0-.1-.03-.14a.502.502 0 00-.08-.12c-.04-.03-.08-.06-.12-.08s-.09-.03-.14-.03z" fill="#e37400"/><path d="M342.79 168.81c-5.59-2.52-5.42-.86-20.69 13.38-2.65 2.47-2.51 6.51-3.1 10.48-1.78 11.99-2.74 21.59-2.74 21.59m24.65-46.13l16.65 6.89" fill="none" stroke="#424242" stroke-miterlimit="10" stroke-width="1.01"/><path d="M340.71 167.29c-.7-.16-1.08-.18-1.36-.16-.77.06-.6.05-.92.14-1.03.64-1.04.85-.97.96.09.15.19.28 1.13-.13 1.12-.49 1.59-.59 2.57-.66-.03-.02-.41-.14-.45-.15z" fill="#cfd8dc"/><path fill="#e2a25f" d="M364.6 226.37h-3.99v-4.58h3.99z"/><path d="M364.63 224.87c.76 1.06.72 2.48.65 3.78-.02.33-.05.7-.27.94-.27.29-.71.33-1.11.33h-12.37c-.53 0-1.04-.29-1.26-.77-.19-.4-.25-.85-.08-1.22.41-.9 1.48-1.24 2.44-1.48 1.36-.35 2.73-.7 4.09-1.04l3.28-.84c.44-.11.9-.04 1.27.22.74.52 2.56.45 3.36.09z" fill="#b3261e"/><path d="M365.29 228.53v.13c-.02.33-.05.7-.27.94-.27.29-.71.33-1.11.33h-12.37c-.53 0-1.04-.29-1.26-.77-.09-.2-.16-.42-.17-.63h15.19zm-5.67-1.99l-1 .26-.94-1.64 1-.25.94 1.63zm-2.37.61l-1 .25-.94-1.63 1-.26.94 1.64z" fill="#601410"/><path fill="#e2a25f" d="M396.647 224.648l-3.488 1.937-2.223-4.004 3.488-1.937z"/><path d="M397.76 228.11c.35-.19.72-.44.81-.83.08-.32-.07-.66-.22-.96-.57-1.17-1.23-2.43-2.41-2.99-.52.71-2.08 1.65-2.98 1.56-.45-.05-.89.12-1.22.43l-2.46 2.32c-.34.32-.68.64-1.02.97h-1.8a2.1 2.1 0 00-2.1 2.1c0 .76.61 1.37 1.37 1.37h4.23c.41 0 .82-.11 1.18-.31l6.61-3.67z" fill="#b3261e"/><path fill="#601410" d="M392.38 227.23l-.76.71-1.61-.98.75-.71 1.62.98zm-1.78 1.68l-.75.71-1.62-.98.75-.71 1.62.98z"/><path d="M389.74 230.96l8.56-4.75.06.12c.11.22.22.46.24.7v.02c0 .08 0 .16-.02.24-.08.34-.38.57-.68.75-.04.03-.09.05-.13.07l-6.3 3.5-.31.17c-.18.1-.37.17-.56.22h-.03c-.09.02-.18.04-.27.05-.1.01-.2.02-.31.02h-4.23c-.67 0-1.23-.49-1.35-1.13h5.35z" fill="#601410"/><path d="M385.17 178.5c1.63 6.08 1.63 15.93 6.03 25.27 2.38 5.06 4.75 12.56 4.69 16.51-1.72 1.69-3.82 2.83-6.22 3-6.95-10.19-15.34-24.83-16.53-44.75l12.04-.03z" fill="#035"/><path d="M365.73 178.5c-1.78 10.92-4.96 31.49-6.14 44.47h6.25c2.33-6.67 5.05-12.65 6.39-19.55 1.02-5.28 3.29-19.03 4.88-24.9h-11.38z" fill="#035"/><path d="M346.3 163.88c5.51-1.86 7.18-2.93 11.09-5.94 2.01-2.09 5.46-4.04 6.46-7.63-.12 2.67-.31 3.92-.55 6.27-.25 2.35-.67 4.05-2.54 5.5-4.5 3.49-7.72 4.95-14.2 5.87l-1.04.1" fill="#e2a25f"/><path d="M338.19 165.45c-2.58 1.19-2.79 1.81-2.7 1.97.09.15.19.28 1.13-.13 1.46-.64 1.91-.62 3.7-.74 1.5-.1 1.37 1.09 1.11 1.35-.49.51-1.03 1.08-1.36 1.58-.09.14-.18.28-.21.44s.02.35.15.44c.2.13.46 0 .66-.11 1.32-.8 4.39-2.17 6.47-2.4l-.86-3.98c-3.59.94-3.48.75-4.7.94-1 .16-2.54.15-3.41.63z" fill="#e2a25f"/><path d="M370.7 154.1c-1.63 3.69-5.36 7.1-9.35 7.66-1.42-.9-3.81-4.11-4.93-6.07 2.62-1.45 4.49-3.79 5.64-5.39.99-1.38 3.24-2.77 4.41-2.87" fill="#37be5f"/><path d="M379.87 161.1c-.47-1.45-1.52-2.85-2.37-4.12" fill="#0e9c57"/><path d="M381.7 155.22c1.96 6.32 4.21 16.88 3.9 23.48-5.83 2.31-15.23 2.85-20.51.68-.04-8.87.13-21.35.92-31.77.42-.43 3.96-.56 6.91-.73 2.18-.12 6.38-.54 9.41 2.05 1.91 1.63 3.22 4.67 3.22 4.67" fill="#37be5f"/><path d="M365.65 137.1c.4-.54.91-1.29 1.2-1.84.8-1.52.09-3.08 2.09-3.92.67.42 1.41.81 1.94 1.42.61.71 1.23 1.42 1.84 2.12.35.4.04 4.19 1.02 4.18.36 0 .59-.36.86-.59.51-.43 1.31-.44 1.86-.06.55.37.84 1.07.78 1.73-.06.66-.45 1.27-.98 1.67-.27.2-.68.25-.92.5-.34.36-.16.82-.12 1.26.11 1.25.2 2.5.31 3.75.01.17.02.35-.06.49-.4.69-2.29.91-3 1.03-.87.15-1.77.16-2.62-.08-.03-.87-.12-3.69-.12-3.69-1.57.01-2.18-.35-2.56-.66-.68-.56-.68-1.18-.72-1.99-.04-.82.67-1.87.13-2.5-.39-.45-1.52-1.09-1.34-1.96.06-.31.22-.58.41-.85z" fill="#e2a25f"/><path d="M369.72 145.06l1.63-.27c.19-.03.44-.02.49.16.05.17-.29.51-.43.62-.57.44-1.13.72-1.65.88l-.04-1.39z" fill="#be8850"/><path d="M377.11 139.9c.85-1.29 1.67-2.63 2.03-4.13s.18-3.2-.79-4.39c-.69-.85-1.7-1.34-2.64-1.85-1.15-.63-2.08-1.42-2.99-2.35-.92-.95-1.83-1.94-2.96-2.64-1.13-.69-2.54-1.05-3.79-.61-1.46.51-2.41 2.07-2.41 3.62 0 1.54.84 3.02 2.03 4 .89.74 1.95 1.21 3.05 1.52.81.23 1.5.59 2.3.79.34.09.64.29.83.59.23.37.48.96.52 1.81.03.6-.17 1.72-.2 2.24-.02.31-.12.62-.31.87-.46.61-1.15.61-1.8.6l-3.39-.06c-.2 0-.22.03-.34.19-.13.18-.29.51-.35.72-.3 1.04-.29 2.17.02 3.21.38 1.27 2.04 1.45 3.36 1.43 1.33-.02 2.6-.5 3.81-1.04 1.61-.71 2-3 1.47-4.68-.12-.4-.15-.92.04-1.29" fill="#823b22"/><path d="M369.41 141.65c.45.09-.09.87-.28 1-.3.21-.91.29-1.27.21-.43-.09-.98-.65-.47-1.03.23-.17.66-.15.93-.18.36-.04.72-.07 1.07 0z" fill="#f2f2f2"/><path d="M374.6 138.46c.51-.43 1.31-.44 1.86-.06.55.37.84 1.07.78 1.73-.06.66-.45 1.27-.98 1.67-.27.2-.68.25-.92.5-.34.36-.16.82-.12 1.26" fill="#e2a25f"/><path d="M377.63 165.83c-1.7-2.51-1.87-7.07-.11-9.54.48.17.99.72 1.22 1.17s.34.96.43 1.46c.32 1.75.46 3.54.42 5.32" fill="#1ea446"/><path d="M365.04 172.3c5.77-.76 7.61-1.49 12.02-3.69.94-2.29 1.04-4.82 1.73-7.19 2 .64 4 1.25 6.08.95-.63 2.6-1.06 3.78-1.75 6.04-.7 2.26-1.44 3.85-3.55 4.91-5.09 2.56-8.53 3.37-15.06 3.02l-1.04-.1" fill="#e2a25f"/><path d="M356.78 172.99c-2.76.67-3.02 1.44-2.89 1.57.24.25 1.28-.46 2.38-.65 1.57-.26.79-.33 2.39-.14 1.49.18 1 1.48.69 1.69-.58.41-1.11.6-1.99.87-.16.05-.49.18-.55.34-.06.15.12.34.24.45.17.16 1.35.31 1.93.11 1.47-.49 4.04-1.04 6.12-.87l-.07-4.07c-3.7.23-3.56.06-4.8.02-1.01-.03-2.52.37-3.47.68z" fill="#e2a25f"/><path d="M377.52 156.29c.13 1.52 0 7.91-.28 9.41 2.05 1.36 5.17 1.99 7.46 1.08 1.42-3.33 2.74-10.48.19-14.54" fill="#37be5f"/><path d="M369.28 136.51c-.04.32-.12.64-.07.97.01.11.06.25.18.29.1.03.21 0 .28-.08s.09-.16.11-.26c.06-.28.16-.72.09-1.14-.05-.3-.51-.34-.58.22z"/><path d="M360.54 172.7c-1.84.47-4.1.88-5.2 1.62s-1.45.93-1.56 1.21.19.43.65.18 2.13-.99 2.72-1.15c2.6-.7 3.1.27 3.1.27l.3-2.12z" fill="#e2a25f"/><path fill="#424242" d="M298.837 223.597l33.14 4.757-.422 2.94-33.14-4.758z"/><path d="M357.29 174.93c5.21 2.02-1.89 7.07-13.91 19.08-2.56 2.56-3.63 4.05-4.22 8.02-1.78 11.99-2.74 21.59-2.74 21.59" fill="none" stroke="#424242" stroke-miterlimit="10" stroke-width="1.01"/><path d="M337.41 182.32c-.25 1.77-5.56.75-14.73-.57-9.18-1.32-14.97-1.9-14.72-3.67s6.04-1.11 15.22.21 14.49 2.26 14.24 4.03z" fill="#b3261e"/><path d="M337.46 182.27c-.25 1.77-5.56.75-14.73-.57-9.18-1.32-14.97-1.9-14.72-3.67 0 0 5.79.62 14.97 1.94 9.18 1.32 14.49 2.29 14.49 2.29z" fill="#8c1d18"/><path fill="#8c1d18" d="M307.993 177.976l1.643.236-1.147 7.988-1.643-.236zm27.809 4.002l1.644.235-1.147 7.989-1.643-.236z"/><path d="M324.13 227.59l-16.07-2.31c-5.45-.78-9.24-5.85-8.46-11.3l3.24-22.53c1.39-9.67 9.84-8.67 15.29-7.89l8.08 1.16c5.45.78 13.84 2.2 12.45 11.87l-3.24 22.53c-.78 5.45-5.85 9.24-11.3 8.46z" fill="#b3261e"/><path d="M336.78 188.85c-2.6-2.85-7.15-3.58-10.56-4.07h-.02l.01-.02-8.08-1.16c-3.4-.49-7.98-1.06-11.28.94-1.98 1.2 8.97 4.4 14.47 5.19h.1c5.5.8 16.92.83 15.36-.87z" fill="#8c1d18"/><path d="M326.81 180.63l-1.4 9.72c-.25 1.76-8.34.6-8.04-1.49l1.35-9.39c.08-.58.62-.98 1.2-.9l5.98.86c.58.08.98.62.9 1.2z" fill="#b3261e"/><path d="M336.87 212.47c-.28 1.97-8.72 2.38-18.85.92s-18.11-4.23-17.83-6.19c.28-1.97 1.15 1.57 18.14 4.01 16.06 2.31 18.82-.71 18.54 1.25z" fill="#8c1d18"/><path d="M336.95 211.94c-.23 1.61-8.63 1.74-18.76.28s-18.15-3.94-17.92-5.55c.03-.2.5-.84.46-.53-.08.56 8.79 3.49 17.65 4.77 8.7 1.25 18.88 1.22 18.19.31-.23-.3.41.5.38.73z" fill="#b3261e"/><path d="M360.93 172.94c-1.76.71-3.95 1.41-4.95 2.28-1 .87-1.31 1.11-1.39 1.4s.24.4.67.09 1.98-1.26 2.55-1.49c2.48-1.04 1.61.31 1.61.31l1.52-2.59z" fill="#e2a25f"/><circle cx="335.77" cy="226.08" r="7.61" fill="#5e5e5e"/><circle cx="335.77" cy="226.08" r="4.24" fill="#ababab"/><path d="M360.93 172.36c-1.67-.06-3.46.08-4.41.5-.94.42-1.23.53-1.35.73s.09.35.48.22 1.76-.48 2.23-.53c2.08-.2 2.35.6 2.35.6l.7-1.51z" fill="#e2a25f"/><path d="M256.44 218.97l-.16-.19c4.51-4.07 10.69-10.59 6.86-12.8-3.83-2.2-7.41 5.78-9.45 11.3 1.28-5.68 2.51-14.2-1.55-14.37-4.07.17-2.83 8.69-1.64 14.39-1.95-5.54-5.53-13.53-9.36-11.32-3.83 2.21 2.35 8.73 6.86 12.8-.06.06-.11.12-.17.19-4.96-3.36-12.86-7.86-14.61-3.86-.87 1.99 1.16 3.34 2.8 4.05a32.28 32.28 0 008.32 2.05c.98.17 1.96.28 2.96.33 2.61.05 5.22.01 7.83.01 3.42-.03 6.81-.49 10.11-1.38 1.34-.32 2.64-.8 3.87-1.42.91-.4 1.64-1.11 2.06-2.01.17-.54.13-1.12-.11-1.63-1.76-4-9.66.5-14.61 3.86z" fill="#b6d38c"/></svg>