<svg xmlns="http://www.w3.org/2000/svg" viewBox="0 0 412 248"><path d="M0 0h412v248H0z"/><path d="M402.63 178.96c.89-3.6 1.51-7.25 1.86-10.91a76.29 76.29 0 002.53-19.51c0-44.09-37.5-79.83-83.76-79.83s-83.76 35.74-83.76 79.83c0 1.34-.15 2.62-.08 3.94-20.59.29-37.45 16.46-42.69 34.59-5.2-3.48-11.39-5.59-18.25-5.59-17.47 0-31.63 10.75-31.63 27.3 0 .75-.42 2.92-.37 3.66h-11.83c-18.01 0-35.74 17.49-34.76 33.96 0 0 34.91 1.54 46.47 1.54 6.11 0 265.63.06 265.63.06v-66.81a32.997 32.997 0 00-9.37-2.22zM59.84 81.47h-.43c-2.58 0-4.9-1.37-6.39-3.49A12.194 12.194 0 0043 72.76c-4.15 0-7.81 2.07-10.02 5.23-1.48 2.12-3.8 3.49-6.38 3.49h-.43c-3.28 0-6.22 2.4-6.53 5.68a6.294 6.294 0 006.26 6.92h34.22c3.68 0 6.62-3.16 6.26-6.92-.31-3.27-3.25-5.68-6.53-5.68z" fill="#141414"/><path d="M69.25 233.47h-26.2v14.47h26.2v-14.47z" fill="#1f1f1f"/><path fill="#1f1f1f" d="M66.69 240.55h13.56v7.39H66.69zm-44.51-16.64h17.33v24.03H22.18zm-3.95-39.58h-2.39v-41.59h-2.17c-.07-1.83-1.6-2.78-3.28-3.82-1.21-.75-2.48-1.54-3.33-2.73l-.15-5.42c-.01-.26-.4-.26-.41 0 0 0-.05 1.83-.11 3.91l-.04 1.47c-.8 1.06-2 1.81-3.15 2.53-1.37.86-2.67 1.69-3.2 2.94v106.37h18.23v-63.67z"/><path fill="#4f4f4f" d="M8.4 147.37h3.23v3.23H8.4zm0 5.43h3.23v3.23H8.4zm-6.62-5.43h3.23v3.23H1.78z"/><path fill="#1f1f1f" d="M94.07 239.65h11.46V248H94.07z"/><path fill="#1f1f1f" d="M95.5 244.25h-3.52l2.09-4.6 1.43 4.6z"/><path d="M100.56 239.65c-.45 2.21-.67 4.92-.55 7.14 0 0 6.42-.37 9.78-.23v-6.91h-9.24z" fill="#303030"/><path fill="#303030" d="M106.38 232.26h8.9v14.53h-8.9z"/><circle cx="74.8" cy="240.71" r="3.19" fill="#1f1f1f"/><path d="M354.92 145.9s-8.18-4.33-27.12-2.89c-9.38.71-19.31 1.88-28.82 7.58-30.94 18.58-36.21 56.88-88.47 68.62l139.79-1.72 4.6-71.59z" fill="#303030"/><path d="M294.83 153.38c-19.09 14.1-32.52 41.96-58.25 56.11v8h62.25v-64.11h-4z" fill="#141414"/><path d="M350.32 145.39c-25.06 35.6-34.97 72.11-34.97 72.11h32.82l6.55-69.42s2.09-1.28-4.4-2.69z" fill="#1f1f1f"/><path d="M388.1 120.13l23.9-.04v97.76h-84.38s13.69-96.9 60.48-97.72z" fill="#303030"/><path fill="#4c8df6" d="M241.01 152.08h60.76v65.42h-60.76z"/><path d="M252.11 189.42h7.9c3.04 0 5.5 2.47 5.5 5.5v22.58h-18.9v-22.58c0-3.04 2.47-5.5 5.5-5.5zm-12.69-41.1h63.87v4.17h-63.87z" fill="#1b6ef3"/><path fill="#c2e7ff" d="M252.61 184.56h-3.62v-26.78h44.77v26.78h-41.15"/><path d="M257.36 157.73l10.81.98a29.57 29.57 0 0125.63 20.82l-.15-7.97.11-13.78-23.75-.05h-12.65z" fill="#dff3ff"/><path d="M255.05 188.04h7.9c3.04 0 5.5 2.47 5.5 5.5v23.96h-18.9v-23.96c0-3.04 2.47-5.5 5.5-5.5z" fill="#757575"/><path d="M254.65 188.04h8.69c2.82 0 5.1 2.29 5.1 5.1v7.58h-18.9v-7.58c0-2.82 2.29-5.1 5.1-5.1z" fill="#d15656"/><path fill="#d68400" d="M319.65 157.67l4.3-2.78-6.26-2.04-4.29 2.78 6.25 2.04z"/><path fill="#1f1f1f" d="M315.35 160.44l4.3-2.77-6.26-2.04-4.29 2.77 6.25 2.04z"/><path fill="#d68400" d="M311.05 163.22l4.3-2.77-6.26-2.04-4.29 2.77 6.25 2.04z"/><path fill="#1f1f1f" d="M306.76 166l4.29-2.77-6.26-2.04-4.29 2.77 6.26 2.04z"/><path fill="#d68400" d="M302.46 168.78l4.29-2.78-6.26-2.04-4.29 2.78 6.26 2.04z"/><path fill="#1f1f1f" d="M298.16 171.55l4.29-2.77-6.26-2.04-4.29 2.77 6.26 2.04z"/><path fill="#d68400" d="M293.86 174.33l4.29-2.77-6.26-2.04-4.29 2.77 6.26 2.04z"/><path fill="#1f1f1f" d="M289.56 177.11l4.29-2.77-6.26-2.04-4.29 2.77 6.26 2.04z"/><path fill="#d68400" d="M285.26 179.89l4.29-2.78-6.26-2.04-4.29 2.78 6.26 2.04z"/><path fill="#1f1f1f" d="M280.96 182.66l4.29-2.77-6.26-2.04-4.29 2.77 6.26 2.04z"/><path fill="#d68400" d="M276.66 185.44l4.29-2.77-6.25-2.04-4.3 2.77 6.26 2.04z"/><path fill="#1f1f1f" d="M272.36 188.22l4.29-2.77-6.25-2.04-4.3 2.77 6.26 2.04z"/><path fill="#d68400" d="M268.06 191l4.29-2.78-6.25-2.04-4.3 2.78 6.26 2.04z"/><path fill="#1f1f1f" d="M263.76 193.78l4.3-2.78-6.26-2.04-2.66 1.72-1.63 1.06 4.49 1.46 1.76.58z"/><path fill="#1f1f1f" d="M259.52 196.52l4.29-2.77-6.26-2.04-2.66 1.72-1.63 1.05 4.5 1.47 1.76.57zm64.43-41.63l3.69-2.39-2.78-4.28-7.17 4.63 6.26 2.04z"/><circle cx="259.5" cy="193.68" r="1.45" fill="#e2a8a6"/><path d="M383.53 150.49h2.4c8.78 0 15.92 7.13 15.92 15.92v50.79h-34.23v-50.79c0-8.78 7.13-15.92 15.92-15.92z" fill="#1f1f1f"/><path d="M388.1 150.66c-.71-.1-1.43-.17-2.17-.17h-2.4c-8.79 0-15.92 7.13-15.92 15.92v50.79h6.74v-50.79c0-8.05 5.98-14.69 13.74-15.75z"/><path fill="#c4eed0" d="M401.84 177.09H412v41.02h-10.16z"/><path d="M315.63 124.3l.94-.46c.15-.07.27-.17.36-.31a.798.798 0 000-.9.905.905 0 00-.36-.31l-.94-.46a.678.678 0 01-.23-.14.541.541 0 01-.15-.22l-.49-.89a.856.856 0 00-.34-.34c-.14-.08-.3-.13-.46-.13s-.32.04-.46.13c-.14.08-.26.2-.34.34l-.49.89c-.04.08-.09.16-.15.22-.07.06-.14.11-.23.14l-.94.46a.833.833 0 00-.49.76c0 .16.05.32.13.45.09.13.21.24.36.31l.94.46a.678.678 0 01.39.36l.49.89c.08.14.19.26.33.35.14.08.3.13.47.13s.32-.04.46-.13c.14-.08.26-.2.33-.35l.49-.89c.1-.15.23-.27.38-.36zm-9.18 5.61l.67-.33c.1-.05.19-.12.26-.22.06-.1.1-.21.1-.32s-.03-.23-.1-.32a.562.562 0 00-.26-.22l-.67-.33a.435.435 0 01-.16-.1c-.05-.04-.08-.1-.11-.16l-.34-.63a.69.69 0 00-.24-.24c-.1-.06-.21-.09-.33-.09s-.23.03-.33.09a.69.69 0 00-.24.24l-.34.63c-.03.06-.06.11-.11.16-.05.04-.1.08-.16.1l-.67.33a.59.59 0 00-.25.22c-.06.1-.1.21-.1.32s.03.22.1.32c.06.1.15.17.25.22l.67.33c.06.02.12.06.16.1.05.04.08.1.11.16l.34.63c.06.1.14.19.24.24.1.06.21.09.33.09s.23-.03.33-.09.18-.14.24-.24l.34-.63c.07-.1.16-.19.27-.26zm61.15-34.82l.67-.33c.1-.05.19-.12.26-.22.06-.1.1-.21.1-.32s-.03-.23-.1-.32a.562.562 0 00-.26-.22l-.67-.33a.435.435 0 01-.16-.1c-.05-.04-.08-.1-.11-.16l-.34-.63a.69.69 0 00-.24-.24c-.1-.06-.21-.09-.33-.09s-.23.03-.33.09a.69.69 0 00-.24.24l-.34.63c-.03.06-.06.11-.11.16-.05.04-.1.08-.16.1l-.67.33a.59.59 0 00-.25.22c-.06.1-.1.21-.1.32s.03.22.1.32c.06.1.15.17.25.22l.67.33c.06.02.12.06.16.1.05.04.08.1.11.16l.34.63c.06.1.14.19.24.24.1.06.21.09.33.09s.23-.03.33-.09.18-.14.24-.24l.34-.63c.07-.1.16-.19.27-.26zm12.86 7.13l.38-.19c.06-.03.11-.07.15-.12.04-.05.05-.12.05-.18s-.02-.13-.05-.18a.35.35 0 00-.15-.12l-.38-.19s-.07-.03-.09-.06a.146.146 0 01-.06-.09l-.2-.36a.353.353 0 00-.13-.14c-.06-.03-.12-.05-.19-.05s-.13.02-.19.05c-.06.03-.1.08-.13.14l-.2.36-.06.09c-.03.03-.06.04-.09.06l-.38.19c-.06.03-.11.07-.14.12-.04.05-.05.12-.05.18s.02.13.05.18c.04.05.09.1.14.12l.38.19s.07.03.09.06c.03.02.05.06.06.09l.2.36c.03.06.08.11.13.14.06.03.12.05.19.05s.13-.02.19-.05c.06-.03.1-.08.13-.14l.2-.36c.04-.06.09-.11.15-.15z" fill="#e1e3e1"/><circle cx="375.59" cy="115.34" r="1.34" fill="#e1e3e1"/><circle cx="364.23" cy="110.4" r="1.34" fill="#e1e3e1"/><circle cx="325.12" cy="131.33" r="1.14" fill="#e1e3e1"/><circle cx="333.03" cy="136.9" r=".86" fill="#e1e3e1"/><path d="M75.53 248s52.25-.12 96.13-18.76c23.88-10.14 49.25-12.72 74.75-12.72H412V248H75.53z" fill="#1f1f1f"/><path fill="#c2e7ff" d="M394.23 186.91l-10.09-16.61-46.3-.92-18.88 14.26v6.02l75.27-2.75z"/><path d="M380.18 171.17s8.22 16.35-23.58 15.94h36.21l-5.7-10.32-6.93-5.62z" fill="#dff3ff"/><rect x="327.62" y="182.01" width="2.85" height="6.64" rx="1.43" ry="1.43" fill="#202124"/><path d="M393.93 204.58H291.29v.44c0 .88.17 1.74.51 2.56.34.81.84 1.55 1.46 2.16a6.744 6.744 0 004.76 1.96h112.04c.66 0 1.32-.1 1.95-.29v-6.83h-18.07z" fill="#047db7"/><path d="M346.62 172.33h-5.6c-4.47-.03-8.8 1.5-12.25 4.31l-6.45 5.42c-.29.24-.56.52-.79.82-.76.97-1.18 2.16-1.18 3.39v.84h32.13v-14.77h-5.86v-.02zm36.88 3c-.51-.9-1.25-1.66-2.16-2.18-.9-.52-1.93-.8-2.98-.8h-22.07v14.77h30.81v-2.54c0-1.87-.48-3.7-1.41-5.33l-2.21-3.91z" fill="none"/><path d="M383.5 175.33c-.51-.9-1.25-1.66-2.16-2.18-.9-.52-1.93-.8-2.98-.8h-22.07v14.77h30.81v-2.54c0-1.87-.48-3.7-1.41-5.33l-2.21-3.91zm-36.88-3h-5.6c-4.47-.03-8.8 1.5-12.25 4.31l-6.45 5.42c-.29.24-.56.52-.79.82-.76.97-1.18 2.16-1.18 3.39v.84h32.13v-14.77h-5.86v-.02z" fill="none"/><path d="M411.63 187.92l-2.58-.52-8.77-1.76a8.02 8.02 0 01-4.78-2.96l-6.54-8.47c-1.5-1.94-3.43-3.52-5.64-4.6a16.09 16.09 0 00-7.11-1.65h-32.8c-6.47 0-12.68 2.19-17.35 6.11l-10.32 8.91a8.2 8.2 0 01-3.68 1.8l-13.04 2.62-2.59.52c-3.05.73-5.15 1.83-5.15 4.6v12.06H412v-16.54c-.13-.04-.24-.09-.37-.12zm-59.15-.81h-32.13v-.84c0-1.23.42-2.42 1.18-3.39.23-.3.5-.58.79-.82l6.45-5.42c3.45-2.82 7.78-4.34 12.25-4.31h5.6v.02h5.86v14.77zm34.63 0H356.3v-14.77h22.07a5.892 5.892 0 015.14 2.98l2.21 3.91a10.73 10.73 0 011.41 5.33v2.54z" fill="#5ab3f0"/><path d="M324.44 214.28a10.919 10.919 0 000-15.54c-4.33-4.29-11.36-4.29-15.69 0a10.901 10.901 0 000 15.54c4.33 4.29 11.36 4.29 15.69 0z" fill="#191d1c"/><path d="M321.45 211.31a6.748 6.748 0 000-9.61c-2.68-2.65-7.02-2.65-9.7 0a6.748 6.748 0 000 9.61c2.68 2.65 7.02 2.65 9.7 0z" fill="#2d312f"/><path d="M396.4 214.28a10.919 10.919 0 000-15.54c-4.33-4.29-11.36-4.29-15.69 0a10.901 10.901 0 000 15.54c4.33 4.29 11.36 4.29 15.69 0z" fill="#191d1c"/><path d="M393.41 211.31a6.748 6.748 0 000-9.61c-2.68-2.65-7.02-2.65-9.7 0a6.748 6.748 0 000 9.61c2.68 2.65 7.02 2.65 9.7 0z" fill="#2d312f"/><path d="M291.28 192.52v7.01h4.03c.27 0 .55-.05.81-.16.25-.11.49-.26.68-.45.19-.19.35-.43.46-.68.11-.25.16-.52.16-.8v-2.83c0-.27-.05-.54-.16-.8s-.26-.49-.46-.68a2.07 2.07 0 00-.68-.45c-.26-.11-.53-.16-.81-.16h-4.02z" fill="#f09d00"/><path d="M352.93 191.15c-1.26.78-2.92 1.03-3.39.96l-4.41-.62c-.56-.08-1.22-.17-1.78-.25l-.66-.09c-1.5-.21-2.91-.41-4.22-.59.39-.71.81-1.7 1.12-2.52.29-.72.59-1.45.87-2.08.17-.55.33-1.01.38-1.38l3.15-3.52c.75-.84 1.76-1.41 2.86-1.64l2.03-.41 1.82 1.31c1.91 1.41 2.95 10.36 2.21 10.83z" fill="#f4a519"/><path fill="#5ab3f0" d="M333.17 187.11h23.43v7.03h-23.43z"/><path d="M348.62 177.67c-.08-.24-.24-.64 0-.88.16-.16.4-.24.56-.4.32-.24.48-.64.48-1.04s-.24-.8-.64-.96-.88-.08-1.12.16c-.16.16-.24.4-.48.4-.64.08-.8-2.16-1.04-2.32-.48-.32-.88-.72-1.36-1.12-.4-.32-.88-.48-1.36-.64-1.2.64-.56 1.52-.96 2.48-.16.32-.4.8-.56 1.2-.08.16-.16.32-.16.56 0 .48.72.8 1.04 1.04.4.32.32 2.32.8 2.56.24.16.72.32 1.68.16 0 0 .16.98.24 1.46.56.08 1.28 0 1.76-.16.4-.16 1.52-.48 1.68-.88l-.56-1.62z" fill="#be8555"/><path d="M345.53 178.95c.32-.08.56-.16.8-.24.08 0 .72-.47.8-.31 0 .59-1.12 1.27-1.44 1.43l-.16-.88z" fill="#996841"/><path d="M349.5 175.2c.4-.8.72-1.68.8-2.56.08-.88-.16-1.84-.88-2.48-.48-.4-1.12-.64-1.68-.88-.72-.24-3.44-.88-4.16-1.04-2.48-.48-2.48 1.36-2.08 2.96.16.88 1.84.64 2.48.72.48.08.96.24 1.36.24.24 0 .4.08.56.24.16.16.4.48.48 1.04.08.32.08 1.04.08 1.28 0 .16 0 .4-.08.56-.24.4-.64.48-.96.48-.64.08-2.53.19-2.58.28-.08.08-.3.52-.3.68-.08.64 0 1.28.32 1.84.32.72 1.84.64 2.64.48.8-.16 1.44-.48 2.16-.96.88-.56.88-1.92.48-2.88-.08-.24-.16-.48-.08-.72l1.44.72z" fill="#4e342e"/><path d="M347.9 174.5c.25-.42.85-.42 1.19-.17.34.17.59.59.59 1.02s-.25.85-.51 1.1c-.17.17-.47.17-.55.34l-.72-2.29z" fill="#be8555"/><path d="M349.21 175.14s.14.68-.49.89" fill="none" stroke="#835e41" stroke-linecap="round" stroke-miterlimit="10" stroke-width=".16"/><path d="M345.32 176.8c.4.36-.43 1.02-.98.73-.99-.55.43-.63.87-.73h.11z" fill="#fff"/><path d="M329.77 183.68c.44.1 1.21.28 1.64.2l.04.07.61-1.89c-.2-.16-.35-.25-.54-.41-.59-.48-1.36-.66-2.09-.48-.85.15-1.06.57-1.85.97-.07.04-.19.31.06.25.64-.03 1.24-.59 1.34-.27-.45.19-.77.58-1.13.9-.07.04-.16.2-.12.26.15.09.29 0 .4.03.38-.14.5-.41 1.03-.46 0 0-.95.59-1.24.88-.07.04-.09.15-.05.22s.22.05.29 0c.31-.1.86-.44 1.1-.5-.09.15-.61.38-.7.54s.03.36.51.06c.34-.21.41-.25.72-.36z" fill="#be8555"/><path d="M333.73 183.22l-1.67-1.16-.65 1.82s4.57 4.15 8.19 4.15c3.62 0 3.98-1.49 3.98-1.49l-1.76-2.85s-2.2 2.54-8.09-.47z" fill="#be8555"/><path d="M349.32 179.32c-.87-.39-2.35.66-3.21 1.09-.92.46-2.17 1.16-3.39 2.06-.66.48-1.87 1-2.28 1.67l2.84 4.32 6.65-4.45-.62-4.69z" fill="#f4a519"/><path d="M349.19 184.78s.15 1.37-.61 1.37h-1.44l2.06-1.37z" fill="#d68400"/><path fill="#fff" d="M331 170.7h8.41v4.24H331z"/><path fill="#f78f1e" d="M332.17 171.17h3.13v.67h-3.13z"/><path fill="#37be5f" d="M335.29 171.17h3.13v.67h-3.13z"/><path fill="#eaeaea" d="M332.17 172.37h6.25v2.06h-6.25z"/><rect x="344.24" y="173.5" width=".46" height=".88" rx=".23" ry=".23" transform="rotate(-3.52 344.347 173.944)"/><rect x="345.82" y="188.46" width="6.72" height="1.66" rx=".83" ry=".83" fill="#7fcfff"/><path d="M373.17 125.79l-.05.25-.41 2.22-.05.25 7.48 3.09c.19.08.39.11.59.1.2 0 .39-.06.57-.16.18-.09.33-.23.45-.39s.2-.35.23-.54l.11-.6.41-2.22.11-.6a1.303 1.303 0 00-.3-1.11c-.13-.15-.29-.27-.48-.35-.18-.08-.38-.12-.58-.12l-8.08.18z" fill="#1b6ef3"/><path d="M381.97 130.61c-2.66-1.73-9.04-2.67-9.04-2.67l-.28.56 7.47 3.09c.19.08.39.11.59.1.2-.01.4-.06.57-.16.18-.1.33-.23.45-.39s.2-.35.23-.54z" fill="#0842a0"/><path d="M370.61 124.16l-.2.15-1.82 1.35-.2.15-6.08-5.31c-.15-.13-.27-.29-.35-.48-.08-.18-.12-.38-.11-.58 0-.2.06-.39.15-.57.09-.18.22-.33.39-.45l.49-.36 1.82-1.35.49-.36c.16-.12.35-.2.54-.24.2-.04.4-.03.59.02a1.335 1.335 0 01.89.74l3.39 7.29z" fill="#1b6ef3"/><path d="M362.36 118.45c2.73 1.62 6.39 6.89 6.39 6.89l-.39.5-6.08-5.31c-.15-.13-.27-.3-.35-.48-.08-.18-.12-.38-.11-.58 0-.2.06-.39.15-.57.09-.18.22-.33.39-.45zm3.08-.87l4.26 6.88.3-.48-4.56-6.41zm8.46 8.82l-.3.48 8.09.77-7.79-1.25z" fill="#0842a0"/><path d="M373.11 135.36l10.27 6.4c.7.43 1.61.23 2.05-.46l1.97-3.12c.43-.69.22-1.6-.47-2.03l-31.69-19.76c-.7-.43-1.61-.23-2.05.46l-1.97 3.12c-.43.69-.22 1.6.47 2.03l21.42 13.36" fill="#4c8df6"/><path d="M369.81 133.3l4.81-7.68c.04-.06.07-.13.08-.21.01-.07 0-.15 0-.22a.722.722 0 00-.09-.2.572.572 0 00-.16-.15l-3.42-2.12a.485.485 0 00-.21-.08c-.07-.01-.15 0-.22 0-.07.02-.14.05-.2.09-.06.04-.11.1-.15.16l-4.81 7.67 4.38 2.73z" fill="#1b6ef3"/><path d="M361.87 145.32c4.73-.59 8.1-4.87 7.51-9.56-.59-4.69-4.9-8.01-9.64-7.42s-8.1 4.87-7.51 9.56c.59 4.69 4.9 8.01 9.64 7.42z" fill="#f09d00"/><path d="M362.93 134.16l-1.02.13v-.02c-.06-.32-.19-.63-.38-.89l1.28-.16c.13-.02.24-.09.32-.19.08-.1.11-.23.09-.35a.494.494 0 00-.18-.32.509.509 0 00-.36-.1l-4.84.62a.497.497 0 00-.42.54c.02.13.08.24.18.32.1.08.23.11.36.1l2.1-.27h-.01c.77-.09.91.84.91.84l-2.88.37c-.06 0-.12.03-.18.06-.05.03-.1.07-.14.12a.38.38 0 00-.08.17c-.02.06-.02.12-.01.19s.03.12.06.18c.03.05.07.1.13.14.05.04.11.07.17.08.06.02.13.02.19.01l2.88-.37c.08.47-.3.99-.66 1.04l-1.87.24c-.1 0-.2.04-.28.11-.08.07-.14.15-.16.25a.719.719 0 00.13.59l3.73 3.23c.06.05.13.09.21.11.08.02.16.03.24.01a.88.88 0 00.35-.17c.22-.21.17-.57-.04-.79l-2.99-2.56.8-.1c.22-.04.43-.12.63-.23.19-.12.36-.27.48-.46.15-.2.26-.42.33-.66.06-.24.08-.49.05-.73s1.02-.13 1.02-.13c.06 0 .12-.03.18-.06s.1-.07.14-.12a.38.38 0 00.08-.17c.02-.06.02-.12.01-.19s-.03-.12-.06-.18a.526.526 0 00-.12-.14c-.05-.04-.11-.07-.17-.08s-.13-.02-.19-.01z" fill="#b26c00"/><path d="M346.59 143.59l.04 22.38c0 .4.17.79.46 1.07.29.28.69.44 1.1.45l29.42-.05c.41 0 .81-.16 1.1-.45.29-.29.46-.67.46-1.07l-.04-22.38-32.54.06z" fill="#4c8df6"/><path d="M346.63 165.65h32.54v.63c0 .93-.75 1.68-1.68 1.68h-29.18c-.93 0-1.68-.75-1.68-1.68v-.63z" fill="#4c8df6"/><path d="M365.45 143.55h-5.16l.04 24.37h5.16l-.04-24.37z" fill="#1b6ef3"/><path d="M379.14 143.52l-32.54.06v1.81l32.54-.06v-1.81z" fill="#1b6ef3"/><path d="M345.46 125.79c2.21-1.81 2.55-5.05.76-7.24-1.79-2.19-5.04-2.5-7.25-.69s-2.55 5.05-.76 7.24c1.79 2.19 5.04 2.5 7.25.69zm2.79-17.44c1.32-1.08 1.52-3.02.45-4.32-1.07-1.31-3.01-1.49-4.33-.41s-1.52 3.02-.45 4.32 3.01 1.49 4.33.41z" fill="#f09d00"/><path fill="#303030" d="M401.75 164.29H412v52.22h-10.25z"/><path fill="#5e5e5e" d="M249.54 200.72h18.9v1.25h-18.9z"/><path d="M25.96 201.97h3.51c.61 0 1.15.13 1.64.39s.88.62 1.16 1.09c.28.47.43.99.43 1.58 0 .67-.22 1.27-.65 1.79-.43.52-.98.87-1.63 1.04v.07l2.74 3.98v.08h-1.78l-2.67-3.93h-1.22v3.93h-1.54v-10.02zm3.47 4.68c.48 0 .89-.15 1.22-.46.33-.31.5-.7.5-1.16 0-.43-.15-.8-.46-1.13-.3-.32-.71-.48-1.21-.48h-1.99v3.23h1.93zm6.35 5.08c-.56-.33-.99-.78-1.3-1.35-.31-.57-.47-1.22-.47-1.94 0-.68.15-1.31.46-1.9.3-.58.73-1.05 1.27-1.39.54-.35 1.15-.52 1.83-.52.72 0 1.34.16 1.86.47s.92.74 1.2 1.29.41 1.18.41 1.88c0 .19 0 .35-.03.48h-5.52c.06.68.31 1.21.73 1.58.42.37.91.55 1.47.55.46 0 .85-.1 1.18-.31.33-.21.59-.49.78-.83l1.25.6c-.33.59-.76 1.05-1.3 1.39-.54.34-1.19.5-1.95.5-.69 0-1.31-.16-1.87-.49zm3.76-4.11a1.839 1.839 0 00-.9-1.43c-.28-.17-.64-.26-1.06-.26-.5 0-.93.15-1.28.46-.35.31-.59.72-.72 1.23h3.96zm4.65 4.11c-.56-.33-1-.78-1.31-1.35-.31-.57-.47-1.22-.47-1.95s.16-1.38.47-1.95c.31-.57.75-1.02 1.31-1.35.56-.33 1.19-.49 1.9-.49.78 0 1.45.17 2 .52s.94.83 1.18 1.45l-1.37.56c-.34-.76-.95-1.15-1.83-1.15a2.074 2.074 0 00-1.86 1.15c-.19.36-.29.78-.29 1.26s.1.9.29 1.26.45.65.78.85c.33.2.69.3 1.08.3.45 0 .83-.1 1.16-.3.32-.2.57-.49.75-.88l1.36.59c-.28.61-.7 1.09-1.25 1.44s-1.21.53-1.99.53c-.71 0-1.34-.16-1.9-.49zm6.7-9.76h1.51v2.74l-.08 1.12h.08c.21-.35.51-.64.92-.87.41-.22.85-.34 1.34-.34.87 0 1.53.26 1.99.78.46.52.69 1.21.69 2.08v4.51h-1.5v-4.31c0-.55-.15-.97-.44-1.25s-.67-.42-1.13-.42c-.35 0-.66.1-.95.3-.28.2-.51.47-.67.8s-.25.69-.25 1.06v3.81h-1.51v-10.02zm9.25 9.95c-.4-.2-.71-.48-.94-.85-.22-.36-.34-.78-.34-1.25 0-.49.13-.92.39-1.28s.62-.63 1.06-.83c.45-.19.95-.29 1.5-.29.42 0 .8.04 1.14.12.34.08.61.17.82.27v-.38c0-.46-.17-.83-.5-1.11-.34-.28-.77-.43-1.3-.43-.36 0-.71.08-1.04.25s-.59.38-.78.67l-1.04-.8c.31-.44.72-.78 1.23-1.02s1.07-.36 1.67-.36c1.03 0 1.82.25 2.39.76s.85 1.22.85 2.13v4.47h-1.47v-.88h-.08c-.21.32-.5.58-.88.79s-.82.32-1.3.32c-.51 0-.97-.1-1.37-.3zm2.66-1.2c.31-.18.55-.43.72-.74.17-.31.26-.64.26-.99-.22-.13-.48-.23-.77-.31-.29-.08-.59-.11-.91-.11-.59 0-1.02.12-1.29.35-.28.23-.41.54-.41.92 0 .34.13.61.38.83.25.21.59.32 1.01.32.37 0 .71-.09 1.02-.27zm4.39-5.86h1.43v1.05h.08c.16-.36.43-.67.82-.91.39-.24.8-.36 1.25-.36.33 0 .62.05.87.15v1.55a2.7 2.7 0 00-1.11-.25c-.53 0-.97.21-1.32.62-.35.41-.52.91-.52 1.5V212h-1.51v-7.14zm6.6 9.79c-.57-.4-.96-.88-1.16-1.44l1.4-.59c.15.38.39.69.74.92.34.23.74.35 1.18.35.66 0 1.18-.2 1.55-.61.37-.41.56-.98.56-1.71v-.69h-.08c-.23.34-.55.62-.94.81-.39.2-.84.29-1.34.29-.61 0-1.16-.15-1.67-.46-.51-.31-.92-.74-1.22-1.3-.3-.56-.46-1.2-.46-1.92s.15-1.36.46-1.92c.3-.56.71-.99 1.22-1.3s1.07-.46 1.67-.46c.5 0 .94.1 1.34.3.4.2.71.47.95.82h.08v-.9h1.44v6.76c0 .77-.15 1.42-.45 1.97s-.72.96-1.25 1.24c-.54.28-1.16.42-1.86.42-.87 0-1.59-.2-2.16-.59zm3.23-4.3c.32-.18.57-.45.76-.79s.29-.76.29-1.23-.1-.91-.29-1.25-.45-.61-.76-.79-.67-.27-1.05-.27-.74.09-1.06.27c-.32.18-.58.44-.77.79s-.29.77-.29 1.25.1.89.29 1.24.45.61.77.79c.32.18.67.27 1.06.27s.73-.09 1.05-.28zm5.86 1.38c-.56-.33-.99-.78-1.3-1.35-.31-.57-.47-1.22-.47-1.94 0-.68.15-1.31.46-1.9.3-.58.73-1.05 1.27-1.39.54-.35 1.15-.52 1.83-.52.72 0 1.34.16 1.86.47s.92.74 1.2 1.29.41 1.18.41 1.88c0 .19 0 .35-.03.48h-5.52c.06.68.31 1.21.73 1.58.42.37.91.55 1.47.55.46 0 .85-.1 1.18-.31.33-.21.59-.49.78-.83l1.25.6c-.33.59-.76 1.05-1.3 1.39-.54.34-1.19.5-1.95.5-.69 0-1.31-.16-1.87-.49zm3.76-4.11a1.839 1.839 0 00-.9-1.43c-.28-.17-.64-.26-1.06-.26-.5 0-.93.15-1.28.46-.35.31-.59.72-.72 1.23h3.96zm6.72-2.76h1.43v.98h.08c.21-.35.51-.64.92-.87.41-.22.85-.34 1.33-.34.86 0 1.51.25 1.96.76.45.51.67 1.21.67 2.09v4.51h-1.5v-4.31c0-.56-.14-.98-.42-1.25-.28-.28-.66-.41-1.15-.41-.35 0-.67.1-.95.29s-.49.46-.64.78c-.15.33-.23.68-.23 1.06v3.84h-1.51v-7.14zm9.82 6.87c-.57-.33-1.01-.79-1.33-1.37-.32-.58-.48-1.22-.48-1.93s.16-1.35.48-1.93c.32-.58.76-1.03 1.33-1.37.57-.33 1.21-.5 1.93-.5s1.35.17 1.92.5 1.01.79 1.33 1.37c.32.58.48 1.22.48 1.92s-.16 1.35-.48 1.93-.76 1.03-1.32 1.37-1.21.5-1.92.5-1.36-.17-1.93-.5zm3.04-1.19c.34-.2.61-.48.81-.84s.31-.79.31-1.27-.1-.91-.31-1.27-.48-.64-.81-.84-.7-.29-1.11-.29-.77.1-1.11.29-.61.48-.82.84c-.21.36-.31.79-.31 1.27s.1.91.31 1.27.48.64.82.84c.34.2.71.29 1.11.29s.77-.1 1.11-.29zm3.36-5.68h1.64l1.47 5.14h.06l1.61-5.14h1.55l1.61 5.14h.06l1.47-5.14h1.61l-2.3 7.14h-1.58l-1.65-5.17h-.06l-1.64 5.17h-1.57l-2.28-7.14z" fill="#9fc7ff"/><circle cx="144.66" cy="207" r="14" fill="#9fc7ff"/><path d="M146.33 202l-1.18 1.18 2.98 2.99h-10.14v1.67h10.14l-2.98 2.99 1.18 1.18 5-5-5-5z" fill="#161616"/><path d="M26.43 124.12h5.39c.88 0 1.69.2 2.45.59.76.4 1.36.95 1.82 1.66.45.71.68 1.51.68 2.41 0 .73-.17 1.42-.5 2.05-.33.63-.79 1.16-1.38 1.58-.59.43-1.24.71-1.95.86l-.04.07 4.5 6.45v.09h-2.23l-4.34-6.42h-2.5v6.42h-1.89v-15.75zm5.28 7.59c.55 0 1.07-.12 1.55-.37s.87-.6 1.16-1.04c.29-.45.44-.95.44-1.51 0-.48-.13-.95-.38-1.39-.25-.44-.61-.8-1.06-1.08s-.98-.42-1.57-.42h-3.52v5.81h3.39zm9.31 7.74a5.424 5.424 0 01-2.02-2.12c-.48-.9-.72-1.92-.72-3.05 0-1.07.23-2.06.68-2.98.45-.92 1.1-1.65 1.94-2.19.84-.54 1.8-.81 2.89-.81s2.08.25 2.9.74c.82.49 1.44 1.17 1.88 2.04.44.87.66 1.86.66 2.97 0 .18-.01.37-.04.57h-9c.04.85.25 1.57.62 2.16s.84 1.03 1.42 1.32c.57.29 1.17.44 1.79.44 1.48 0 2.61-.67 3.36-2.02l1.6.77c-.48.89-1.14 1.61-1.98 2.14s-1.86.8-3.05.8c-1.08 0-2.06-.26-2.92-.77zm6.2-6.38a3.58 3.58 0 00-.4-1.41c-.24-.47-.61-.87-1.11-1.19-.51-.32-1.14-.48-1.92-.48-.89 0-1.65.28-2.27.85s-1.03 1.31-1.23 2.23h6.93zm6.5 6.37a5.452 5.452 0 01-2.05-2.13c-.49-.9-.73-1.92-.73-3.05s.24-2.15.73-3.06c.49-.91 1.17-1.62 2.05-2.13.88-.51 1.86-.77 2.96-.77 1.23 0 2.27.28 3.11.85.84.56 1.44 1.32 1.79 2.25l-1.71.7c-.28-.69-.7-1.21-1.26-1.57s-1.23-.54-2.02-.54c-.67 0-1.29.18-1.87.54-.58.36-1.04.86-1.39 1.51-.35.65-.52 1.39-.52 2.22s.17 1.58.52 2.22.81 1.15 1.39 1.51c.58.36 1.2.54 1.87.54.8 0 1.49-.18 2.07-.55s1.01-.89 1.29-1.56l1.69.7c-.39.92-1.01 1.67-1.86 2.24-.86.57-1.89.86-3.11.86-1.1 0-2.09-.26-2.96-.78zm9.98-15.32h1.89v4.64l-.09 1.54h.09c.31-.57.81-1.05 1.48-1.43.68-.38 1.42-.57 2.22-.57 1.38 0 2.44.4 3.16 1.2.73.8 1.09 1.86 1.09 3.18v7.19h-1.89v-6.91c0-1.01-.26-1.76-.78-2.24-.52-.48-1.2-.73-2.03-.73-.59 0-1.14.18-1.64.53-.5.35-.89.81-1.18 1.36s-.43 1.14-.43 1.74v6.25H63.7v-15.75zm13.86 15.62c-.65-.32-1.16-.77-1.52-1.33-.36-.56-.53-1.21-.53-1.92 0-1.19.45-2.12 1.36-2.78.91-.67 2.05-1 3.43-1 .68 0 1.32.07 1.91.22.59.15 1.04.32 1.35.51v-.68c0-.84-.3-1.51-.89-2.01-.6-.51-1.35-.76-2.25-.76-.62 0-1.21.14-1.75.41s-.97.65-1.28 1.13l-1.43-1.06c.45-.67 1.06-1.2 1.85-1.58.79-.38 1.66-.57 2.61-.57 1.54 0 2.76.4 3.63 1.2.88.8 1.31 1.89 1.31 3.27v7.11h-1.8v-1.61h-.09c-.33.54-.82 1-1.47 1.39-.65.38-1.39.57-2.21.57s-1.58-.16-2.23-.48zm4.19-1.65c.55-.32.99-.75 1.31-1.3.33-.54.49-1.14.49-1.78a4.39 4.39 0 00-1.31-.57c-.52-.15-1.07-.22-1.65-.22-1.04 0-1.82.21-2.35.64s-.79.98-.79 1.65c0 .62.24 1.12.71 1.5.48.38 1.08.57 1.8.57.64 0 1.23-.16 1.78-.48zm6.24-9.44h1.81v1.8h.09c.22-.62.65-1.13 1.29-1.54.64-.41 1.31-.62 2-.62.52 0 .97.08 1.34.24v2c-.48-.23-1.01-.35-1.6-.35-.55 0-1.05.15-1.51.46-.46.31-.83.72-1.1 1.25-.28.52-.41 1.08-.41 1.69v6.28h-1.89v-11.22zm9.48 15.4c-.87-.62-1.45-1.36-1.75-2.22l1.74-.73c.24.65.65 1.17 1.24 1.57.59.4 1.28.6 2.08.6 1.17 0 2.08-.32 2.73-.97.65-.65.97-1.57.97-2.77v-1.25h-.09c-.37.57-.89 1.04-1.57 1.4-.68.36-1.45.54-2.31.54-.98 0-1.88-.25-2.69-.76-.81-.5-1.45-1.21-1.93-2.11-.47-.9-.71-1.94-.71-3.09s.24-2.17.71-3.08c.48-.91 1.12-1.62 1.93-2.12.81-.5 1.71-.76 2.69-.76.86 0 1.63.18 2.31.54.68.36 1.2.83 1.57 1.42h.09v-1.61h1.8v10.78c0 1.8-.51 3.18-1.52 4.12-1.01.95-2.34 1.42-3.99 1.42-1.34 0-2.44-.31-3.31-.92zm5.17-6.03c.56-.34 1-.83 1.34-1.47s.5-1.4.5-2.28-.17-1.66-.5-2.3-.78-1.13-1.34-1.46-1.18-.5-1.86-.5-1.31.17-1.87.51c-.57.34-1.01.83-1.35 1.48-.33.64-.5 1.4-.5 2.28s.17 1.64.5 2.29c.33.65.78 1.14 1.35 1.47.56.34 1.19.5 1.87.5s1.3-.17 1.86-.51zm8.48 1.43a5.355 5.355 0 01-2.02-2.12c-.48-.9-.72-1.92-.72-3.05 0-1.07.23-2.06.68-2.98.45-.92 1.1-1.65 1.94-2.19.84-.54 1.8-.81 2.89-.81s2.08.25 2.9.74c.82.49 1.44 1.17 1.88 2.04.44.87.66 1.86.66 2.97 0 .18-.01.37-.04.57h-9c.04.85.25 1.57.62 2.16.37.59.84 1.03 1.41 1.32.57.29 1.17.44 1.79.44 1.49 0 2.61-.67 3.36-2.02l1.61.77c-.48.89-1.14 1.61-1.98 2.14-.85.54-1.86.8-3.05.8-1.08 0-2.06-.26-2.92-.77zm6.2-6.38a3.58 3.58 0 00-.4-1.41c-.24-.47-.61-.87-1.11-1.19s-1.14-.48-1.92-.48c-.89 0-1.65.28-2.27.85-.62.56-1.03 1.31-1.23 2.23h6.93zm9.76-8.95h9.23v1.78h-7.33v5.39h6.62v1.76h-6.62v6.82h-1.89v-15.75zm15.1 0h2.14l6.06 15.75h-2.07l-1.61-4.33h-6.91l-1.6 4.33h-2.07l6.06-15.75zm3.88 9.66l-2.14-5.68-.62-1.69h-.09l-.62 1.69-2.14 5.68h5.62zm8.57 5.95c-.75-.33-1.41-.81-1.99-1.45-.58-.64-1-1.41-1.25-2.32l1.81-.73c.25.94.72 1.71 1.4 2.31.68.6 1.49.9 2.41.9s1.7-.25 2.34-.74c.64-.49.96-1.16.96-2.01 0-.73-.27-1.34-.81-1.82s-1.43-.92-2.66-1.33l-1-.35c-1.13-.4-2.05-.92-2.76-1.56s-1.07-1.54-1.07-2.68c0-.75.21-1.44.62-2.08.42-.64.99-1.15 1.74-1.53.74-.38 1.57-.57 2.5-.57s1.72.17 2.41.51c.68.34 1.23.75 1.64 1.23.41.48.69.96.86 1.43l-1.76.75c-.16-.54-.51-1.03-1.04-1.47-.53-.44-1.22-.66-2.08-.66s-1.52.23-2.09.68c-.58.46-.87 1.03-.87 1.72 0 .62.25 1.12.74 1.51s1.23.75 2.23 1.09l1.05.35c1.35.48 2.41 1.09 3.16 1.81.76.73 1.14 1.71 1.14 2.96 0 1.01-.26 1.86-.79 2.55s-1.19 1.2-1.99 1.52c-.8.32-1.63.48-2.47.48-.8 0-1.58-.17-2.33-.5zm13.45-13.83h-4.48v-1.78h10.83v1.78h-4.46v13.97h-1.89V125.9zm8.06 13.84c-.65-.32-1.16-.77-1.51-1.33-.36-.56-.54-1.21-.54-1.92 0-1.19.45-2.12 1.36-2.78.91-.67 2.05-1 3.43-1 .68 0 1.32.07 1.9.22.59.15 1.04.32 1.35.51v-.68c0-.84-.3-1.51-.89-2.01s-1.34-.76-2.25-.76c-.62 0-1.21.14-1.75.41-.54.27-.97.65-1.28 1.13l-1.43-1.06c.45-.67 1.06-1.2 1.85-1.58.79-.38 1.66-.57 2.61-.57 1.54 0 2.76.4 3.63 1.2.88.8 1.31 1.89 1.31 3.27v7.11h-1.8v-1.61h-.09c-.33.54-.82 1-1.47 1.39-.65.38-1.39.57-2.21.57s-1.58-.16-2.23-.48zm4.19-1.65c.55-.32.99-.75 1.31-1.3.33-.54.49-1.14.49-1.78a4.39 4.39 0 00-1.31-.57c-.52-.15-1.07-.22-1.65-.22-1.04 0-1.82.21-2.35.64s-.79.98-.79 1.65c0 .62.24 1.12.71 1.5.48.38 1.08.57 1.81.57.64 0 1.23-.16 1.78-.48zm7.81 5.96c-.87-.62-1.45-1.36-1.75-2.22l1.74-.73c.24.65.65 1.17 1.24 1.57.59.4 1.28.6 2.08.6 1.17 0 2.08-.32 2.73-.97.65-.65.97-1.57.97-2.77v-1.25h-.09c-.37.57-.9 1.04-1.57 1.4s-1.44.54-2.31.54c-.98 0-1.88-.25-2.68-.76-.81-.5-1.45-1.21-1.93-2.11-.48-.9-.71-1.94-.71-3.09s.24-2.17.71-3.08c.47-.91 1.12-1.62 1.93-2.12.81-.5 1.7-.76 2.68-.76.86 0 1.63.18 2.31.54.68.36 1.2.83 1.57 1.42h.09v-1.61h1.8v10.78c0 1.8-.5 3.18-1.51 4.12-1.01.95-2.34 1.42-3.99 1.42-1.34 0-2.44-.31-3.31-.92zm5.17-6.03c.56-.34 1-.83 1.34-1.47.33-.64.5-1.4.5-2.28s-.17-1.66-.5-2.3c-.33-.64-.78-1.13-1.34-1.46s-1.18-.5-1.86-.5-1.31.17-1.87.51c-.56.34-1.01.83-1.35 1.48s-.5 1.4-.5 2.28.17 1.64.5 2.29.78 1.14 1.35 1.47c.56.34 1.19.5 1.87.5s1.3-.17 1.86-.51zM36.14 164.83l1.51 1.96-1.43 1.06-1.14-1.47c-1.04.98-2.28 1.47-3.72 1.47-1.05 0-2.02-.24-2.9-.73a5.45 5.45 0 01-2.08-1.99c-.51-.84-.77-1.78-.77-2.8 0-.92.25-1.8.75-2.63.5-.83 1.18-1.51 2.04-2.04l-.02-.02c-.39-.5-.68-.96-.87-1.38s-.29-.85-.29-1.29c0-.64.17-1.24.51-1.79s.8-.99 1.38-1.31c.58-.32 1.21-.48 1.89-.48.89 0 1.64.25 2.25.76.61.51 1.04 1.14 1.29 1.9l-1.63.86c-.4-1.16-1.04-1.74-1.92-1.74-.55 0-1 .17-1.36.5s-.53.77-.53 1.31.19 1.05.56 1.52l5.37 6.93 1.47-2.49 1.49.88-1.87 3.01zm-2.09.15l-4.59-5.96c-.64.34-1.15.8-1.54 1.4s-.58 1.22-.58 1.88c0 .73.18 1.39.54 1.98.36.59.84 1.04 1.46 1.38.62.33 1.3.5 2.04.5 1.08 0 1.98-.39 2.67-1.17zm13.3 2.09a5.424 5.424 0 01-2.02-2.12c-.48-.9-.72-1.92-.72-3.05 0-1.07.23-2.06.68-2.98.45-.92 1.1-1.65 1.94-2.19.84-.54 1.8-.81 2.89-.81s2.08.25 2.9.74c.82.49 1.44 1.17 1.88 2.04.44.87.66 1.86.66 2.97 0 .18-.01.37-.04.57h-9c.04.85.25 1.57.62 2.16.37.59.84 1.03 1.42 1.32.57.29 1.17.44 1.79.44 1.48 0 2.61-.67 3.36-2.02l1.6.77c-.48.9-1.14 1.61-1.98 2.15s-1.86.8-3.05.8c-1.08 0-2.06-.26-2.92-.77zm6.19-6.38a3.58 3.58 0 00-.4-1.41c-.24-.47-.61-.87-1.11-1.19-.51-.32-1.14-.48-1.92-.48-.89 0-1.65.28-2.27.85s-1.03 1.31-1.23 2.23h6.93zm5.73 6.67c-.65-.32-1.16-.77-1.51-1.33-.36-.56-.54-1.21-.54-1.93 0-1.19.45-2.12 1.36-2.78.91-.67 2.05-1 3.43-1 .68 0 1.32.07 1.9.22.59.15 1.04.32 1.35.51v-.68c0-.84-.3-1.51-.89-2.01-.59-.51-1.34-.76-2.25-.76-.62 0-1.21.14-1.75.41-.54.27-.97.65-1.28 1.13l-1.43-1.06c.45-.67 1.06-1.2 1.85-1.58.79-.38 1.66-.57 2.61-.57 1.54 0 2.76.4 3.63 1.2s1.31 1.89 1.31 3.27v7.11h-1.8v-1.61h-.09c-.33.54-.82 1-1.47 1.39-.65.38-1.39.57-2.21.57s-1.58-.16-2.23-.48zm4.19-1.65c.55-.32.99-.75 1.31-1.3s.49-1.14.49-1.78c-.36-.23-.79-.42-1.31-.57-.52-.15-1.07-.22-1.65-.22-1.04 0-1.82.21-2.35.64-.53.43-.79.98-.79 1.65 0 .62.24 1.12.71 1.5.48.38 1.08.57 1.81.57.64 0 1.23-.16 1.78-.48zm6.24-9.44h1.8v1.8h.09c.22-.62.65-1.13 1.29-1.54s1.31-.62 2.01-.62c.52 0 .96.08 1.34.24v2c-.48-.23-1.01-.35-1.6-.35-.55 0-1.05.15-1.52.46-.46.31-.83.72-1.1 1.25-.27.52-.41 1.08-.41 1.69v6.29h-1.89v-11.22zm8.35 0h1.8v1.65h.09c.31-.56.81-1.03 1.49-1.42s1.41-.58 2.18-.58c1.37 0 2.41.39 3.13 1.18.72.79 1.08 1.85 1.08 3.2v7.19h-1.89v-6.91c0-1.04-.25-1.8-.76-2.27s-1.2-.7-2.07-.7c-.61 0-1.16.17-1.64.51s-.86.78-1.12 1.33-.4 1.13-.4 1.73v6.31h-1.89v-11.22zm18.67 10.38c-.72-.79-1.08-1.9-1.08-3.32v-7.06h1.89v6.78c0 1.07.25 1.86.74 2.35.49.5 1.15.75 1.98.75.64 0 1.21-.17 1.71-.51.5-.34.88-.78 1.16-1.32s.41-1.11.41-1.72v-6.34h1.89v11.22h-1.8v-1.63h-.09c-.31.56-.81 1.03-1.49 1.41-.68.38-1.41.57-2.18.57-1.37 0-2.41-.4-3.13-1.19zm11.42-10.38h1.81v1.67h.09c.34-.57.86-1.05 1.55-1.44.69-.39 1.47-.58 2.33-.58 1.02 0 1.95.26 2.77.77.82.51 1.47 1.22 1.95 2.13.48.91.71 1.93.71 3.06s-.24 2.17-.71 3.07c-.47.9-1.12 1.61-1.95 2.12-.82.51-1.75.77-2.77.77-.86 0-1.64-.19-2.33-.58-.69-.39-1.21-.86-1.55-1.42h-.09l.09 1.54v4.86h-1.89v-15.97zm7.42 9.35c.58-.35 1.04-.85 1.38-1.5s.51-1.39.51-2.24-.17-1.6-.51-2.24a3.85 3.85 0 00-1.38-1.5c-.58-.35-1.2-.53-1.85-.53s-1.29.18-1.86.53c-.57.35-1.03.85-1.38 1.5-.35.65-.52 1.39-.52 2.24s.17 1.6.52 2.24c.35.65.81 1.14 1.38 1.5.57.35 1.19.53 1.86.53s1.27-.18 1.85-.53zm14.25 2c-.39-.15-.72-.35-.99-.6-.59-.57-.89-1.35-.89-2.35v-6.7h-1.98v-1.69h1.98v-3.17h1.89v3.17h2.79v1.69h-2.79v6.25c0 .63.12 1.09.36 1.39.28.33.69.49 1.22.49.46 0 .88-.12 1.25-.37v1.83c-.22.1-.45.18-.68.22s-.52.07-.88.07c-.46 0-.89-.08-1.28-.22zm6.8-.57a5.536 5.536 0 01-2.08-2.16c-.5-.91-.75-1.91-.75-3.01s.25-2.1.75-3.01 1.19-1.63 2.08-2.16c.89-.53 1.89-.79 3.01-.79s2.12.26 3.01.79c.89.53 1.59 1.25 2.08 2.16s.75 1.91.75 3.01-.25 2.1-.75 3.01c-.5.91-1.19 1.63-2.08 2.16-.89.53-1.89.79-3.01.79s-2.12-.26-3.01-.79zm4.96-1.42c.6-.34 1.08-.84 1.45-1.49.36-.64.55-1.4.55-2.27s-.18-1.62-.55-2.27a3.85 3.85 0 00-3.4-2.01c-.7 0-1.35.17-1.96.52s-1.1.84-1.46 1.49c-.37.65-.55 1.4-.55 2.27s.18 1.62.55 2.27c.36.65.85 1.14 1.46 1.49s1.26.52 1.96.52 1.35-.17 1.95-.52zm21.69-11.65h-2.56c.65.6 1.05 1.28 1.2 2.05h1.36v1.56h-1.34c-.13.72-.43 1.36-.9 1.94-.47.57-1.05 1.02-1.74 1.33-.69.32-1.44.47-2.24.47h-.62l-.04.07 6.02 6.01v.09h-2.59l-5.9-6.01v-1.87h3.14c.68 0 1.29-.18 1.83-.55.54-.37.89-.86 1.07-1.47h-7.93v-1.56h7.93a2.96 2.96 0 00-1-1.45c-.49-.4-1.08-.59-1.76-.59h-5.17v-1.54h11.25V154zm4.57 13.41c-.7-.3-1.32-.75-1.85-1.36s-.91-1.36-1.14-2.25l1.67-.66c.24.89.65 1.61 1.25 2.14.59.54 1.31.8 2.14.8 1 0 1.81-.3 2.44-.9.63-.6.95-1.39.95-2.35s-.31-1.74-.94-2.36c-.62-.62-1.43-.94-2.41-.94-.53 0-1.04.12-1.51.36s-.86.58-1.16 1l-1.92-.84.98-7.59h7.89v1.78h-6.33l-.6 4.55.09.02c.79-.66 1.75-.99 2.9-.99.88 0 1.69.21 2.44.64.75.43 1.35 1.02 1.79 1.78s.67 1.61.67 2.55-.23 1.79-.68 2.56c-.45.77-1.08 1.38-1.87 1.83s-1.69.67-2.69.67c-.71 0-1.42-.15-2.12-.45zm12.54-.59c-.93-.7-1.64-1.64-2.14-2.84-.5-1.2-.75-2.53-.75-3.99s.25-2.8.75-3.99c.5-1.2 1.21-2.14 2.13-2.84.92-.7 1.99-1.04 3.21-1.04s2.29.35 3.21 1.04c.92.7 1.63 1.64 2.14 2.84.5 1.2.76 2.53.76 3.99s-.25 2.8-.76 3.99c-.51 1.2-1.22 2.14-2.15 2.84s-1.99 1.04-3.2 1.04-2.27-.35-3.2-1.04zm5.4-1.54c.62-.54 1.11-1.26 1.45-2.19.34-.92.51-1.96.51-3.1s-.17-2.18-.51-3.1-.82-1.65-1.45-2.19c-.62-.54-1.36-.8-2.21-.8s-1.58.27-2.21.8c-.62.54-1.1 1.27-1.44 2.19-.33.92-.5 1.96-.5 3.1s.17 2.18.5 3.1c.33.92.81 1.65 1.44 2.19.62.54 1.36.8 2.21.8s1.58-.27 2.21-.8zm8.97 1.54c-.93-.7-1.64-1.64-2.14-2.84s-.75-2.53-.75-3.99.25-2.8.75-3.99c.5-1.2 1.21-2.14 2.13-2.84.92-.7 1.99-1.04 3.21-1.04s2.29.35 3.21 1.04c.92.7 1.63 1.64 2.14 2.84.5 1.2.76 2.53.76 3.99s-.25 2.8-.76 3.99-1.22 2.14-2.15 2.84-1.99 1.04-3.2 1.04-2.27-.35-3.2-1.04zm5.4-1.54c.62-.54 1.11-1.26 1.45-2.19.34-.92.51-1.96.51-3.1s-.17-2.18-.51-3.1c-.34-.92-.83-1.65-1.45-2.19s-1.36-.8-2.21-.8-1.58.27-2.21.8c-.62.54-1.1 1.27-1.44 2.19s-.5 1.96-.5 3.1.17 2.18.5 3.1c.33.92.81 1.65 1.44 2.19.62.54 1.36.8 2.21.8s1.58-.27 2.21-.8z" fill="#fff"/><path fill="#4f4f4f" d="M32.55 227.93h3.23v3.23h-3.23zm-6.65 5.43h3.23v3.23H25.9zm.02-5.43h3.23v3.23h-3.23z"/></svg>