<?xml version="1.0" encoding="UTF-8"?><svg id="Layer_1" xmlns="http://www.w3.org/2000/svg" viewBox="0 0 412 248"><rect y="-.54" width="412" height="248" stroke-width="0"/><path d="M373.08,119.38c-59.73,0-111.04,31.7-133.44,77.03-7.73,15.64-12.03,32.91-12.03,51.06h0s65.66,0,65.66,0h118.72V119.38h-38.92Z" fill="#1f1f1f" stroke-width="0"/><path d="M376.76,62.24l1.17-.58c.18-.08.34-.22.45-.38.11-.17.17-.36.17-.56s-.06-.4-.17-.56c-.11-.17-.27-.3-.45-.38l-1.17-.58c-.11-.04-.2-.1-.29-.18-.08-.08-.15-.17-.19-.27l-.6-1.11c-.1-.18-.24-.33-.42-.43-.18-.1-.37-.16-.58-.16s-.4.06-.58.16c-.18.1-.32.25-.42.43l-.61,1.11c-.04.1-.11.2-.19.27-.08.08-.18.14-.29.18l-1.17.58c-.18.08-.34.21-.45.38-.11.17-.17.36-.17.56s.06.4.17.56c.11.17.26.3.45.38l1.17.58c.11.04.2.1.29.18.08.08.15.17.19.27l.61,1.11c.1.18.24.33.42.43.18.1.38.16.58.16s.4-.06.58-.16c.18-.1.32-.25.42-.43l.61-1.11c.12-.18.29-.33.47-.45Z" fill="#f4a519" stroke-width="0"/><path d="M365.95,68.98l.83-.41c.13-.06.24-.15.32-.27.08-.12.12-.26.12-.4s-.04-.28-.12-.4c-.08-.12-.19-.21-.32-.27l-.83-.41c-.08-.03-.14-.07-.2-.13-.06-.05-.1-.12-.14-.19l-.43-.79c-.07-.13-.17-.23-.3-.3-.12-.07-.27-.11-.41-.11s-.28.04-.41.11c-.12.07-.23.18-.3.3l-.43.79c-.03.07-.08.14-.14.19-.06.06-.13.1-.2.13l-.83.41c-.13.06-.24.15-.32.27-.08.12-.12.26-.12.4s.04.28.12.4c.08.12.19.21.32.27l.83.41c.08.03.14.07.2.13.06.05.11.12.14.19l.43.79c.07.13.17.23.29.3.12.07.27.11.41.11s.28-.04.41-.11c.12-.07.23-.18.29-.3l.43-.79c.09-.13.2-.24.33-.32Z" fill="#f4a519" stroke-width="0"/><circle cx="403.44" cy="176.2" r="2.1" fill="#c7c7c7" stroke-width="0"/><path d="M341.4,151.3h-35.53s-11.1,0-11.1,0c-2.13,0-3.9,1.53-4.27,3.54-.05.27-.08.55-.08.83l.22,65.68v1.17l4,3.21,4.69-3.31,4.69,3.31,4.69-3.31,4.69,3.31,4.71-3.31,4.69,3.31,4.69-3.31,4.69,3.31,4.71-3.31,4.69,3.31,4.1-3.28.08-66.79c0-2.41-1.95-4.36-4.36-4.36Z" fill="#303030" stroke-width="0"/><path d="M341.4,145.91h-35.53s-11.1,0-11.1,0c-2.13,0-3.9,1.53-4.27,3.54-.05.27-.08.55-.08.83l.22,65.68v1.17l4,3.21,4.69-3.31,4.69,3.31,4.69-3.31,4.69,3.31,4.71-3.31,4.69,3.31,4.69-3.31,4.69,3.31,4.71-3.31,4.69,3.31,4.1-3.28.08-66.79c0-2.41-1.95-4.36-4.36-4.36Z" fill="#f2f2f2" stroke-width="0"/><path d="M325.31,163.18h-3.04v-.05c-.03-.97-.31-1.92-.78-2.77h3.84c.19,0,.37-.05.56-.12.17-.07.34-.19.48-.31.14-.14.24-.29.31-.48.07-.17.1-.36.1-.54s-.03-.37-.1-.54c-.07-.17-.19-.32-.31-.46-.14-.14-.29-.24-.48-.31-.17-.07-.36-.1-.56-.1l-14.48.03c-.19,0-.37.03-.54.1-.17.07-.34.17-.48.31-.14.14-.24.29-.31.46-.07.17-.1.36-.1.54s.03.37.1.54c.07.17.19.32.31.46.14.14.29.24.48.31.17.07.36.1.54.1h6.25c2.29,0,2.36,2.8,2.36,2.8h-8.63c-.19,0-.37.05-.54.12-.17.07-.34.17-.48.31-.14.14-.24.29-.31.46-.07.17-.1.36-.1.54s.03.37.1.54c.07.17.19.32.31.46s.29.24.48.31c.17.07.36.1.54.1h8.61c.07,1.39-1.26,2.79-2.34,2.79h-5.61c-.31,0-.61.07-.87.22-.25.17-.46.41-.58.68-.1.29-.14.61-.1.92.03.31.14.61.29.87l9.79,10.91c.15.17.36.31.58.41s.46.14.7.14c.39-.03.75-.17,1.09-.36.32-.29.53-.7.56-1.12.03-.42-.1-.87-.39-1.19l-7.85-8.67h2.4c.66-.03,1.33-.19,1.94-.46.61-.27,1.16-.68,1.6-1.16.53-.53.93-1.14,1.21-1.82.29-.68.42-1.41.41-2.14h3.06c.19,0,.37-.05.54-.12.17-.07.34-.17.48-.31.14-.14.24-.29.31-.46.07-.17.1-.36.1-.54s-.03-.37-.1-.54c-.07-.17-.19-.32-.32-.46-.14-.14-.29-.24-.48-.31-.17-.07-.36-.1-.54-.1h.02Z" fill="#1b6ef3" stroke-width="0"/><path d="M310.54,195.03c-.34,0-.66-.07-.97-.19-.31-.12-.58-.31-.82-.53-.48-.46-.74-1.07-.74-1.72,0-.32.06-.63.19-.93.13-.29.32-.56.55-.78.24-.22.52-.41.82-.53.31-.12.65-.19.97-.19h27.34c.68,0,1.32.27,1.81.73.48.46.74,1.07.74,1.72s-.27,1.26-.74,1.72c-.48.46-1.13.71-1.81.71h-27.34v-.02Z" fill="#7cacf8" stroke-width="0"/><path d="M310.54,205.07c-.34,0-.66-.07-.97-.19-.31-.12-.58-.31-.82-.53-.48-.46-.74-1.07-.74-1.72,0-.32.06-.63.19-.93.13-.29.32-.56.55-.78.24-.22.52-.41.82-.53.31-.12.65-.19.97-.19h27.34c.68,0,1.32.27,1.81.73.48.46.74,1.07.74,1.72s-.27,1.26-.74,1.72c-.48.46-1.13.71-1.81.71h-27.34v-.02Z" fill="#7cacf8" stroke-width="0"/><circle cx="300.24" cy="202.65" r="4.49" fill="#a8c7fa" stroke-width="0"/><circle cx="300.24" cy="191.75" r="4.49" fill="#a8c7fa" stroke-width="0"/><polyline points="304.11 189.39 299.85 193.62 298 191.36" fill="none" stroke="#0b57d0" stroke-linecap="round" stroke-miterlimit="10" stroke-width="1.95"/><polyline points="304.11 200.1 299.85 204.32 298 202.07" fill="none" stroke="#0b57d0" stroke-linecap="round" stroke-miterlimit="10" stroke-width="1.95"/><path d="M400.71,224.81c-.78-9.33-1.89-18.36-2.6-26.67l-11.66-5.68s0,0,0,0c-10.17,9.21-20.28,13.74-32.63,18.28-1.05,11.49-2.04,24.25-1.68,36.69,0,0,34.71.06,40.27,0l-.03-22.62h8.33Z" fill="#28a498" stroke-width="0"/><path d="M400.71,224.81h-8.33s.03,22.62.03,22.62c2.92-.03,9.19.03,9.19.03.8-10.09-.07-12.76-.89-22.65Z" fill="#28a498" stroke-width="0"/><path d="M378.35,185.51c-10.23-.35-19.33,1.67-25.2,6.52-6.26,5.17-9.41,15.79-12.22,31.05,6.25,3.68,13.87,4.88,18.21,5.25l19.22-42.82Z" fill="#28a498" stroke-width="0"/><path d="M374.62,185.51c10.23-.35,19.33,1.67,25.2,6.52,6.26,5.17,9.41,15.79,12.22,31.05-6.25,3.68-8.6,4.17-12.94,4.54l-24.48-42.11Z" fill="#28a498" stroke-width="0"/><path d="M399.1,227.62c0-4.22-.33-12.65-.5-19.09-.02-.74,1.07-.86,1.2-.12,1.14,6.21,2.03,14.32,2.17,18.6-1.16.3-1.71.32-2.87.61Z" fill="#049486" stroke-width="0"/><path d="M375.11,183.19c-1.17,0-2.33-.29-3.35-.87-.74-.42-1.56-.96-2.08-1.52-2.71-2.95-5.22-5.5-5.33-10.22-.13-5.55-.27-9.33-.18-11.68.12-2.98,1.49-10.53,9.33-10.53h5.19c7.84,0,9.21,7.55,9.33,10.53.09,2.34-.05,6.13-.18,11.68-.11,4.72-2.62,7.27-5.33,10.22-.52.56-1.33,1.1-2.08,1.52-1.02.58-2.18.87-3.35.87h-1.96Z" fill="#dfa060" stroke-width="0"/><path d="M386.22,163.61c1.51-.66,3.47-.01,4.28,1.42.29.51.44,1.08.51,1.65.14,1.06,0,2.19-.6,3.07-.79,1.15-2.22,1.67-3.59,1.97" fill="#dfa060" stroke-width="0"/><path d="M365.61,163.61c-1.51-.66-3.47-.01-4.28,1.42-.29.51-.44,1.08-.51,1.65-.14,1.06,0,2.19.6,3.07.79,1.15,2.22,1.67,3.59,1.97" fill="#dfa060" stroke-width="0"/><path d="M370.77,178.25c-.05,3.32-.1,4.84-.15,8.17,1.55,1.73,3.54,2.76,5.75,2.82,2.22.06,4.44-.86,6.07-2.5-.07-3.41-.04-5.08-.11-8.49" fill="#dfa060" stroke-width="0"/><path d="M382.39,184.15c-.01-1.49-.02-2.99-.06-4.46h-11.56s-.09,4.62-.09,4.62c3.72,1.29,8.04,1.23,11.71-.16Z" fill="#bc8650" stroke-width="0"/><path d="M380.53,163.57c0,.66-.05,1.34.13,1.98.06.23.19.48.45.54.21.04.43-.08.54-.24.11-.16.14-.36.15-.55.04-.58.11-1.51-.16-2.34-.2-.6-1.13-.54-1.11.62Z" stroke-width="0"/><path d="M362.51,155.53c.61,3.34.5,6.81.45,10.23-.06,4.3,0,7.52,1.72,11.47,1.71,3.94,5.47,6.1,9.78,6.08h2.83c4.31.02,8.07-2.14,9.78-6.08,1.71-3.94,1.79-7.17,1.72-11.47-.06-4.3,4.95-12-2.46-20.05-1.95-2.12-5.11-2.91-7.98-2.64-2.19.2-4.64-.35-6.66-1.21-3.02-1.27-5.73-3.7-9-3.72-2.71-.02-5.23,1.89-6.26,4.38-1.03,2.49-.67,5.43.63,7.8,1.3,2.37,3.06,3.95,5.46,5.2ZM383.19,171.27c-3.85.62-11.6.57-14.62,0-2.26-.43-2.38-3.79-2.4-6.08-.02-2.29.39-4.59.05-6.85,2.19-.27,6.58-1.58,9.66-5.37,1.77,5.14,9.66,5.37,9.66,5.37-.34,2.26.07,4.56.05,6.85-.02,2.29-.13,5.71-2.4,6.08Z" fill="#561b06" stroke-width="0"/><path d="M369.49,163.57c0,.66-.05,1.34.13,1.98.06.23.19.48.45.54.21.04.43-.08.54-.24.11-.16.14-.36.15-.55.04-.58.11-1.51-.16-2.34-.2-.6-1.13-.54-1.11.62Z" stroke-width="0"/><path d="M374.28,174.09c-.16,0-.32-.01-.46.05-.24.11-.36.4-.33.67.03.26.17.5.34.71.75.96,2.03,1.54,3.22,1.27.92-.22,1.86-1.15,1.91-2.14.01-.31-.27-.56-.58-.56-1.36,0-2.72.06-4.1,0Z" fill="#fdfcfb" stroke-width="0"/><path d="M375.32,161.4c-.76,2.75-1.15,5.05-1.83,7.78-.04.19-.09.38-.01.57.19.47.93.52,1.5.48.78-.06,1.69-.18,2.02-.78" fill="none" stroke="#915d21" stroke-linecap="round" stroke-linejoin="round" stroke-width="1.22"/><path d="M354.37,208.54c.02-.74-1.07-.86-1.2-.12-1.14,6.21-2.03,14.32-2.17,18.6,1.16.3,1.71.32,2.87.61l.5-19.09Z" fill="#0b8047" stroke-width="0"/><path d="M371.24,217.26h11.38c1.4,0,2.53-1.13,2.53-2.52v-23.48c0-1.39-1.13-2.52-2.53-2.52h-11.38c-1.4,0-2.53,1.13-2.53,2.52v23.48c0,1.39,1.13,2.52,2.53,2.52Z" fill="#3c4043" stroke-width="0"/><path d="M410.44,223.96s-5.33,2.17-11.33,3.66c-2.11-1.89-6.33-4.95-9.51-8.41-1.35-1.48-2.3-4.32-2.25-6.32.1-3.9-2.14-8.47-2.14-8.47-.02,1.08-.29,2.26-.51,3.05-.11.4-.63.5-.89.18l-7.15-9.08c-.2-.25-.48-.53-.78-.43-.4.13-.33.72-.16,1.12.61,1.47,2.31,5.52,3.11,7.45l-5.05-7.51c-.2-.25-.48-.53-.78-.43-.41.13-.33.72-.16,1.12.4.98,1.83,4.48,3.03,7.44l-3.91-5.8c-.2-.25-.48-.53-.78-.43-.4.13-.33.72-.16,1.12.67,1.62,2.57,6.38,3.32,7.95.01.02.02.05.04.07l-2.53-2.18c-.25-.19-.6-.39-.87-.21-.36.23-.06.74.14,1.12,3.07,5.86,9.83,11.3,9.83,11.3,3.95,6.89,6.14,13.17,10.63,18.39,0,0,0,0,0,0,1.52,1.77,3.3,3.41,5.5,4.91.94.73,1.88,1.35,2.74,1.68,2.67,1.04,4.99.78,7.31-.9,2.39-1.73,3.31-4.81,3.88-7.7.63-3.18-.06-8.63-.54-12.68Z" fill="#dfa060" stroke-width="0"/><path d="M410.91,228.15c-.15-1.46-.32-2.9-.48-4.19,0,0-5.33,2.17-11.33,3.66l3.21,2.44c.72.55,1.64.74,2.52.54,1.64-.38,4.33-1.16,6.08-2.44Z" fill="#d89651" stroke-width="0"/><path d="M410.91,228.15c-.15-1.46-.32-2.9-.48-4.19,0,0-5.33,2.17-11.33,3.66l3.21,2.44c.72.55,1.64.74,2.52.54,1.64-.38,4.33-1.16,6.08-2.44Z" fill="#d89651" stroke-width="0"/><path d="M366.94,197.65c-.29-.33-.78-.24-1.19-.13-2.18.58-4.32,1.17-6.49,1.82-1.34.4-2.53,1.21-3.39,2.31l-.7.9c-.62.72-1.15,1.52-1.58,2.36l-6.13,21.08-4.67-1.91s-.2,1.17-.28,1.86c0,.02,0,.05,0,.07-.08.69-.16,1.41-.23,2.13h0c-.31,3.11-.5,6.33-.07,8.49.57,2.89,1.49,5.98,3.88,7.7,2.32,1.68,4.83,2.34,7.31.9,6.25-3.64,5.29-28.38,5.29-28.38,3.19-2.17,5.37-6.07,5.81-6.78.71-1.14.45-1.73-.03-2.7-.56-1.13-1.39-2.16-2.24-3.1-.65-.73-1.15-1.22-2.05-1.63-.25-.11-.53-.19-.81-.23l.03-.03c2.16-.97,4.35-2.06,6.5-3.03.43-.19.89-.41,1.11-.85.14-.28.14-.63-.07-.86Z" fill="#dfa060" stroke-width="0"/><path d="M347.46,225.99l-4.67-1.91s-.2,1.17-.28,1.86c0,.02,0,.05,0,.07-.08.69-.16,1.41-.23,2.13h0s0,.06,0,.06c1.14.82,2.65,1.43,4.02,1.85l1.19-4.1v.04Z" fill="#d89651" stroke-width="0"/><rect x="373.85" y="88.49" width="28.64" height="37.23" rx="6.21" ry="6.21" transform="translate(776.35 214.22) rotate(-180)" fill="#2d2d2d" stroke-width="0"/><path d="M389.72,131.26v-7.26h-7.52l5.18,8.32c.78,1.25,2.34.54,2.34-1.06Z" fill="#2d2d2d" stroke-width="0"/><path d="M402.5,94.7c0-3.43-2.78-6.21-6.21-6.21h-16.22c-3.43,0-6.21,2.78-6.21,6.21v24.64h28.64v-24.64Z" fill="#3a3a3a" stroke-width="0"/><rect x="369.98" y="86.57" width="28.64" height="37.23" rx="6.21" ry="6.21" transform="translate(768.6 210.36) rotate(-180)" fill="#5e5e5e" stroke-width="0"/><path d="M385.85,129.33v-7.26h-7.52l5.18,8.32c.78,1.25,2.34.54,2.34-1.06Z" fill="#5e5e5e" stroke-width="0"/><path d="M391.35,96.56h-12.69v11.01h12.69v-11.01Z" fill="#f2f2f2" stroke-width="0"/><path d="M383.65,90.63l-6.87,6.02c-.58.51-.22,1.47.56,1.47h15.32c.78,0,1.14-.96.56-1.47l-6.87-6.02c-.77-.68-1.93-.68-2.71,0Z" fill="#dc362e" stroke-width="0"/><path d="M385,99.22h0c1.37,0,2.48,1.11,2.48,2.48v5.86h-4.96v-5.86c0-1.37,1.11-2.48,2.48-2.48Z" fill="#8f8f8f" stroke-width="0"/><polygon points="384.95 92.82 378.66 98.18 378.66 98.99 391.35 98.99 391.35 98.16 384.95 92.82" fill="#f2f2f2" stroke-width="0"/><line x1="377.03" y1="112.72" x2="392.98" y2="112.72" fill="none" stroke="#8f8f8f" stroke-linecap="round" stroke-miterlimit="10" stroke-width="1.61"/><line x1="377.03" y1="116.91" x2="392.98" y2="116.91" fill="none" stroke="#8f8f8f" stroke-linecap="round" stroke-miterlimit="10" stroke-width="1.61"/><path d="M275.94,238.8h-23.75c-.41,0-.79.16-1.08.44-.29.28-.45.67-.45,1.07v5.44c0,.4.16.79.45,1.07.29.28.68.44,1.08.44h23.75c.2,0,.4-.04.58-.11.19-.08.36-.19.5-.33.14-.14.25-.31.33-.49.08-.18.12-.38.12-.58v-5.44c0-.2-.04-.4-.12-.58-.08-.18-.19-.35-.33-.49-.14-.14-.31-.25-.5-.33-.19-.08-.38-.12-.58-.12ZM262.17,243.83c0,.2-.08.38-.22.52s-.33.22-.53.22h-6.98c-.2,0-.39-.08-.53-.22s-.22-.33-.22-.52v-1.57c0-.2.08-.39.22-.52s.33-.22.53-.22h6.98c.1,0,.19.02.29.06.09.04.17.09.24.16.07.07.12.15.16.24.04.09.06.19.06.28v1.57ZM267.97,243.86c-.16,0-.32-.05-.46-.14-.14-.09-.24-.22-.3-.37s-.08-.31-.05-.47c.03-.16.11-.3.23-.42.12-.11.26-.19.42-.22.16-.03.33-.02.48.05.15.06.28.17.37.3.09.13.14.29.14.45,0,.22-.09.42-.24.58-.16.15-.37.24-.58.24h0ZM270.86,243.86c-.16,0-.32-.05-.46-.14-.14-.09-.24-.22-.3-.37s-.08-.31-.05-.47c.03-.16.11-.3.23-.42.12-.11.26-.19.42-.22.16-.03.33-.02.48.05.15.06.28.17.37.3.09.13.14.29.14.45,0,.22-.09.42-.24.58-.16.15-.37.24-.58.24h0ZM273.76,243.86c-.16,0-.32-.05-.46-.14-.14-.09-.24-.22-.3-.37s-.08-.31-.05-.47c.03-.16.11-.3.23-.42.12-.11.26-.19.42-.22.16-.03.33-.02.48.05.15.06.28.17.37.3.09.13.14.29.14.45,0,.22-.09.42-.24.58-.16.15-.36.24-.58.24h0Z" fill="#4c8df6" stroke-width="0"/><path d="M263.91,232.06h-4.26l-1.27,6.74h6.81l-1.27-6.74Z" fill="#3998d3" stroke-width="0"/><path d="M264.61,236.31h.1s-.81-4.25-.81-4.25h-4.26l-.43,2.3c1.64,1.03,3.48,1.7,5.4,1.95Z" fill="#047db7" stroke-width="0"/><path d="M259.55,216.19c-.25-.24-.54-.43-.87-.54-.33-.11-.68-.15-1.02-.12-.35.04-.68.15-.97.33-.29.18-.54.43-.73.72-1.46,2.34-2.08,5.1-1.76,7.84.32,2.73,1.56,5.28,3.53,7.23,1.97,1.95,4.54,3.18,7.3,3.5,2.76.32,5.55-.3,7.91-1.75.29-.18.54-.43.73-.72.18-.29.3-.62.34-.96.04-.34,0-.69-.12-1.01-.11-.32-.3-.62-.55-.86l-13.78-13.65Z" fill="#4c8df6" stroke-width="0"/><path d="M265.59,222.36l2.07,2.05,4.39-5.2-1.21-1.2-5.25,4.35Z" fill="#3998d3" stroke-width="0"/><path d="M271.65,220.23c1.01,0,1.84-.81,1.84-1.82s-.82-1.82-1.84-1.82-1.83.81-1.83,1.82.82,1.82,1.83,1.82Z" fill="#d68400" stroke-width="0"/><path d="M268.34,223.61l-1.94-1.92-.81.67,2.07,2.05.67-.8Z" fill="#047db7" stroke-width="0"/><path d="M261.42,241.51h-6.98c-.41,0-.75.33-.75.74v1.57c0,.41.33.74.75.74h6.98c.41,0,.75-.33.75-.74v-1.57c0-.41-.33-.74-.75-.74Z" fill="#0070fb" stroke-width="0"/><path d="M267.97,243.86c-.16,0-.32-.05-.46-.14-.14-.09-.24-.22-.3-.37s-.08-.31-.05-.47c.03-.16.11-.3.23-.42.12-.11.26-.19.42-.22.16-.03.33-.02.48.05.15.06.28.17.37.3.09.13.14.29.14.45,0,.22-.09.42-.24.58-.16.15-.37.24-.58.24Z" fill="#e3e3e3" stroke-width="0"/><path d="M270.86,243.86c-.16,0-.32-.05-.46-.14-.14-.09-.24-.22-.3-.37s-.08-.31-.05-.47c.03-.16.11-.3.23-.42.11-.11.26-.19.42-.22.16-.03.33-.02.48.05.15.06.28.17.37.3.09.13.14.29.14.45,0,.22-.09.42-.24.58-.16.15-.37.24-.58.24Z" fill="#e3e3e3" stroke-width="0"/><path d="M273.76,243.86c-.16,0-.32-.05-.46-.14-.14-.09-.24-.22-.3-.37s-.08-.31-.05-.47c.03-.16.11-.3.23-.42.11-.11.26-.19.42-.22.16-.03.33-.02.48.05.15.06.28.17.37.3.09.13.14.29.14.45,0,.22-.09.42-.24.58-.16.15-.36.24-.58.24Z" fill="#e3e3e3" stroke-width="0"/><path d="M199.16,238.84l40.23-1.36-7.19-24.59h-25.7l-7.34,25.94Z" fill="#fff0d1" stroke-width="0"/><path d="M239.39,237.49l-7.19-24.59h-25.7l.37.06c14.24,2.28,26.42,11.46,32.52,24.53h0Z" fill="#ffdf99" stroke-width="0"/><rect x="210.35" y="232.62" width="18.38" height="7.76" fill="#e2aaaa" stroke-width="0"/><path d="M213.02,210.18c-2.81.28-4.51.67-5.53,1.27-.98.57-1.48,1.14-2.53,2.88-1.32,2.15-2.07,4.05-2.94,7.34l-.12.45-.53-.79c-.94-1.43-1.79-1.93-3.27-1.94-1.16,0-1.5.17-1.77.87-.25.63-.2,2.6.08,3.02.4.61.55.65,2.86.67,1.17.03,2.12.05,2.12.08s-.22.28-.53.57c-1.23,1.25-2.16,2.81-2.64,4.34-.42,1.31-.53,2.63-.38,4.8.22,3.81.54,5.81,1.15,7.31.42,1.03.73,1.45,1.33,1.73l.49.22.05,1.62c.07,1.89.17,2.19.87,2.52.37.17.7.2,2.22.2,1.64,0,1.82-.03,2.24-.24.7-.34.83-.7.83-2.15v-1.19l1.17.07c.65.04,2.19.13,3.42.2,2.9.16,12.96.16,15.86,0,1.23-.08,2.77-.16,3.41-.2l1.17-.07.03,1.29c.05,1.5.16,1.77.86,2.09.37.17.7.2,2.22.2,1.52,0,1.83-.03,2.22-.2.7-.33.81-.62.87-2.52l.05-1.62.49-.22c.29-.15.62-.41.81-.66.37-.51.87-1.87,1.1-2.97.42-2.07.75-6.76.58-8.34-.26-2.34-1.28-4.45-3.02-6.23-.29-.29-.53-.55-.53-.57s.95-.05,2.12-.08c1.81-.03,2.16-.07,2.4-.22.53-.34.65-.65.69-1.87.04-1.36-.12-1.95-.66-2.27-.46-.28-2.02-.28-2.65,0-.71.33-1.35.91-1.9,1.76l-.51.78-.12-.45c-.67-2.57-1.2-4.04-2.09-5.78-.84-1.68-1.77-3.08-2.43-3.72-1.24-1.19-3.56-1.79-7.89-2.07-1.89-.12-10.2-.04-11.65.11h-.01ZM225.55,213.1c2.96.3,5.2.84,5.68,1.37.37.38,1.56,2.72,2.14,4.17.45,1.15,1.12,3.29,1.27,4.1.08.37.08.38-.22.33-.49-.08-4.61-.36-7.09-.46-7.22-.33-14.36-.21-21.27.34-.86.07-1.57.08-1.6.04-.08-.13.54-2.38,1.02-3.67.53-1.43,1.99-4.43,2.38-4.86.51-.54,2.65-1.07,5.7-1.37,2.76-.28,9.29-.28,12.01,0ZM236.15,228.78c1.57,1.61,1.1,4.29-.92,5.28-.78.38-1.99.42-2.76.07-.73-.33-1.37-.98-1.7-1.72-.25-.57-.28-.74-.24-1.49.08-1.36.7-2.3,1.91-2.84,1.29-.58,2.72-.32,3.71.7ZM207.04,228.27c.59.34.98.79,1.32,1.52.34.75.3,2.01-.08,2.77-.32.62-1,1.27-1.65,1.57-.77.36-1.97.33-2.76-.07-.33-.17-.78-.5-1.02-.78-1.48-1.66-.92-4.3,1.07-5.2,1.06-.48,2.11-.41,3.11.18ZM219.49,234.31c7.62,0,7.44,0,7.73.53.33.62.11,1.15-.98,2.26-1,1.02-.62.98-6.72.98s-5.71.05-6.72-.98c-1.25-1.29-1.43-1.98-.66-2.6.2-.17.74-.18,7.31-.17h.03Z" fill="#d68400" stroke-width="0"/><path d="M232.06,243.77l.02,1.26c.05,1.52.16,1.78.86,2.1.37.17.71.2,2.24.2s1.85-.03,2.23-.2c.7-.33.81-.63.88-2.54l.05-1.55-.08-.03-6.21.76Z" fill="#5e5e5e" stroke-width="0"/><path d="M201.75,247.13c.37.17.7.2,2.23.2,1.65,0,1.84-.03,2.26-.24.7-.35.84-.7.84-2.17v-1.12l-.08-.02-6.18-.76.05,1.57c.07,1.9.17,2.21.88,2.54Z" fill="#5e5e5e" stroke-width="0"/><path d="M350.98,138.67c8.38-3.98,11.34-9.7,12.14-14.91.14-1.08.28-2.81.28-3.52v-8.76l-12.43-4.12-12.38,4.12v8.76c0,.7.09,2.44.28,3.52.71,5.2,3.72,10.97,12.1,14.91Z" fill="#26c6b6" stroke-width="0"/><path d="M354.75,119.45h-1.32v-1.59c0-1.27-1.04-2.25-2.26-2.25s-2.26,1.03-2.26,2.25v1.59h-1.32v-1.59c0-1.97,1.6-3.56,3.58-3.56s3.58,1.59,3.58,3.56v1.59Z" fill="#ecf3fe" stroke-width="0"/><path d="M353.43,117.85v1.59h1.32v-1.69h-1.32v.09Z" fill="#a8c7fa" stroke-width="0"/><path d="M348.86,117.85v-.09h-1.32v1.69h1.32v-1.59Z" fill="#a8c7fa" stroke-width="0"/><path d="M357.1,127.74v-8.01c0-.61-.47-1.08-1.08-1.08h-9.79c-.61,0-1.08.47-1.08,1.08v8.06c0,.61.47,1.08,1.08,1.08h9.79c.61-.05,1.08-.52,1.08-1.12Z" fill="#ecf3fe" stroke-width="0"/><path d="M351.12,123.95c.57,0,1.04-.46,1.04-1.03s-.46-1.03-1.04-1.03-1.04.46-1.04,1.03.46,1.03,1.04,1.03Z" fill="#049486" stroke-width="0"/><path d="M351.74,125.59h-1.22l.19-2.06h.85l.19,2.06Z" fill="#049486" stroke-width="0"/><rect x="253.85" y="167.91" width="26.75" height="34.24" rx="5.8" ry="5.8" transform="translate(534.46 370.05) rotate(-180)" fill="#303030" stroke-width="0"/><rect x="253.85" y="165.44" width="26.75" height="34.24" rx="5.8" ry="5.8" transform="translate(534.46 365.11) rotate(-180)" fill="#5e5e5e" stroke-width="0"/><line x1="259.89" y1="189.28" x2="274.78" y2="189.28" fill="none" stroke="#8f8f8f" stroke-linecap="round" stroke-miterlimit="10" stroke-width="1.61"/><line x1="259.89" y1="193.19" x2="274.78" y2="193.19" fill="none" stroke="#8f8f8f" stroke-linecap="round" stroke-miterlimit="10" stroke-width="1.61"/><path d="M274.39,172.26h-14.11c-.94,0-1.71.76-1.71,1.69v8.03c0,.93.76,1.69,1.71,1.69h14.11c.94,0,1.71-.76,1.71-1.69v-8.03c0-.93-.76-1.69-1.71-1.69Z" fill="#f4a519" stroke-width="0"/><path d="M261.13,180.05h-.6c-.14,0-.26.12-.26.26v1c0,.14.12.26.26.26h.6c.14,0,.26-.12.26-.26v-1c0-.14-.12-.26-.26-.26Z" fill="#f09d00" stroke-width="0"/><path d="M260.28,172.26c-.94,0-1.71.76-1.71,1.69v8.03c0,.93.76,1.69,1.71,1.69h4.98c2.91-3.19,4.7-8.16,5.62-11.41h-10.6Z" fill="#ffcb64" stroke-width="0"/><path d="M262.65,180.05h-.6c-.14,0-.26.12-.26.26v1c0,.14.12.26.26.26h.6c.14,0,.26-.12.26-.26v-1c0-.14-.12-.26-.26-.26Z" fill="#d68400" stroke-width="0"/><path d="M264.18,180.05h-.6c-.14,0-.26.12-.26.26v1c0,.14.12.26.26.26h.6c.14,0,.26-.12.26-.26v-1c0-.14-.12-.26-.26-.26Z" fill="#d68400" stroke-width="0"/><path d="M265.71,180.05h-.6c-.14,0-.26.12-.26.26v1c0,.14.12.26.26.26h.6c.14,0,.26-.12.26-.26v-1c0-.14-.12-.26-.26-.26Z" fill="#d68400" stroke-width="0"/><path d="M269.49,180.05h-.6c-.14,0-.26.12-.26.26v1c0,.14.12.26.26.26h.6c.14,0,.26-.12.26-.26v-1c0-.14-.12-.26-.26-.26Z" fill="#d68400" stroke-width="0"/><path d="M271.01,180.05h-.6c-.14,0-.26.12-.26.26v1c0,.14.12.26.26.26h.6c.14,0,.26-.12.26-.26v-1c0-.14-.12-.26-.26-.26Z" fill="#d68400" stroke-width="0"/><path d="M272.54,180.05h-.6c-.14,0-.26.12-.26.26v1c0,.14.12.26.26.26h.6c.14,0,.26-.12.26-.26v-1c0-.14-.12-.26-.26-.26Z" fill="#d68400" stroke-width="0"/><path d="M274.06,180.05h-.6c-.14,0-.26.12-.26.26v1c0,.14.12.26.26.26h.6c.14,0,.26-.12.26-.26v-1c0-.14-.12-.26-.26-.26Z" fill="#d68400" stroke-width="0"/><path d="M262.6,173.92h-1.86c-.29,0-.53.23-.53.52v.9c0,.29.24.52.53.52h1.86c.29,0,.53-.23.53-.52v-.9c0-.29-.24-.52-.53-.52Z" fill="#d68400" stroke-width="0"/><path d="M306.47,97.3h18.7c3.95,0,7.16,3.21,7.16,7.16v23.23c0,3.95-3.21,7.16-7.16,7.16h-18.12c-4.27,0-7.73-3.46-7.73-7.73v-22.66c0-3.95,3.21-7.16,7.16-7.16Z" transform="translate(631.63 232.15) rotate(-180)" fill="#2d2d2d" stroke-width="0"/><path d="M332.32,105.03c0-3.95-3.2-7.73-7.16-7.73h-18.7c-3.95,0-7.16,3.78-7.16,7.73l.02,23.15c.11,2.73,2.27,5.76,5.04,6.36,0,0,19.36-7.59,27.95-9.98v-19.53Z" fill="#3a3a3a" stroke-width="0"/><path d="M325.66,139.67v-6.55h-6.79l4.68,7.5c.7,1.12,2.11.49,2.11-.95Z" fill="#2d2d2d" stroke-width="0"/><rect x="296.65" y="94.64" width="33.01" height="37.55" rx="7.16" ry="7.16" transform="translate(626.3 226.82) rotate(-180)" fill="#5e5e5e" stroke-width="0"/><path d="M323,137v-6.55h-6.79l4.68,7.5c.7,1.12,2.11.49,2.11-.95Z" fill="#5e5e5e" stroke-width="0"/><path d="M320.51,109.64c0-4.06-3.29-7.93-7.36-7.93s-7.36,3.87-7.36,7.93c0,2.33,1.08,4.4,2.77,5.75l.49.63c.79,1.03,1.09,2.16,1.02,3.32h6.15c-.07-1.16.23-2.29,1.02-3.32l.49-.63c1.69-1.35,2.77-3.42,2.77-5.75Z" fill="#f4a519" stroke-width="0"/><path d="M313.15,101.72c-4.06,0-7.36,3.87-7.36,7.93,0,2.33,1.08,4.4,2.77,5.75l.39.51,9.12-12.03c-1.21-1.36-3.1-2.16-4.94-2.16Z" fill="#ffdf99" stroke-width="0"/><path d="M310.8,123.09h4.71c0,.75-.61,1.35-1.35,1.35h-2c-.75,0-1.35-.61-1.35-1.35h0Z" fill="#7cacf8" stroke-width="0"/><path d="M310.59,110.68l1.6.38c.06.01.12.05.15.11.03.05.04.12.03.18l-.71,2.94c-.01.05,0,.11.02.16.02.05.06.09.11.11.05.02.11.03.16.02.05-.01.1-.04.14-.09l3.77-4.71s.04-.07.05-.11c0-.04,0-.08,0-.12-.01-.04-.04-.07-.07-.1-.03-.03-.07-.05-.11-.06l-1.6-.38c-.06-.02-.12-.05-.15-.11-.03-.05-.04-.12-.03-.18l.71-2.94c.01-.05,0-.11-.02-.16-.02-.05-.06-.09-.11-.11-.05-.02-.11-.03-.16-.02-.05.01-.1.04-.14.09l-3.77,4.71s-.04.07-.05.11c0,.04,0,.08,0,.12.01.04.04.07.07.1.03.03.07.05.11.06Z" fill="#d68400" stroke-width="0"/><rect x="310.04" y="120.11" width="6.15" height="1.98" fill="#757575" stroke-width="0"/><rect x="309.63" y="121.42" width="7.04" height="1.97" rx=".83" ry=".83" fill="#7fcfff" stroke-width="0"/><rect x="309.63" y="118.95" width="7.04" height="1.97" rx=".83" ry=".83" fill="#7fcfff" stroke-width="0"/><path d="M307.01,234.58l.94-.46c.15-.07.27-.17.36-.31.09-.13.14-.29.14-.45s-.05-.32-.14-.45c-.09-.13-.21-.24-.36-.31l-.94-.46c-.09-.03-.16-.08-.23-.14-.07-.06-.12-.14-.15-.22l-.49-.89c-.08-.14-.19-.26-.34-.34-.14-.08-.3-.13-.46-.13s-.32.04-.46.13c-.14.08-.26.2-.34.34l-.49.89c-.04.08-.09.16-.15.22-.07.06-.14.11-.23.14l-.94.46c-.15.07-.27.17-.36.31-.09.13-.13.29-.13.45s.05.32.13.45c.09.13.21.24.36.31l.94.46c.09.03.16.08.23.14.07.06.12.14.16.22l.49.89c.08.14.19.26.33.35.14.08.3.13.47.13s.32-.04.46-.13c.14-.08.26-.2.33-.35l.49-.89c.1-.15.23-.27.38-.36Z" fill="#c7c7c7" stroke-width="0"/><path d="M297.83,240.19l.67-.33c.1-.05.19-.12.26-.22.06-.1.1-.21.1-.32s-.03-.23-.1-.32c-.06-.1-.15-.17-.26-.22l-.67-.33c-.06-.02-.12-.06-.16-.1-.05-.04-.08-.1-.11-.16l-.34-.63c-.06-.1-.14-.18-.24-.24-.1-.06-.21-.09-.33-.09s-.23.03-.33.09c-.1.06-.18.14-.24.24l-.34.63c-.03.06-.06.11-.11.16-.05.04-.1.08-.16.1l-.67.33c-.1.05-.19.12-.25.22-.06.1-.1.21-.1.32s.03.22.1.32c.06.1.15.17.25.22l.67.33c.06.02.12.06.16.1.05.04.08.1.11.16l.34.63c.06.1.14.19.24.24.1.06.21.09.33.09s.23-.03.33-.09c.1-.06.18-.14.24-.24l.34-.63c.07-.1.16-.19.27-.26Z" fill="#c7c7c7" stroke-width="0"/><g isolation="isolate"><path d="M29.47,164.9c-.69,0-1.32-.13-1.9-.38s-1.07-.61-1.5-1.07c-.42-.46-.75-1.01-.98-1.65-.23-.64-.34-1.35-.34-2.13s.11-1.5.34-2.14c.23-.64.56-1.19.98-1.65.42-.46.92-.82,1.5-1.07s1.21-.38,1.9-.38,1.32.13,1.89.38,1.07.61,1.49,1.07.75,1.01.98,1.65c.23.64.34,1.35.34,2.14s-.12,1.5-.34,2.13-.55,1.19-.98,1.65-.92.82-1.49,1.07-1.2.38-1.89.38ZM29.47,163.77c.66,0,1.26-.16,1.78-.48s.95-.78,1.26-1.39c.31-.61.47-1.36.47-2.23s-.16-1.62-.47-2.23c-.31-.61-.73-1.08-1.26-1.39s-1.12-.48-1.78-.48-1.26.16-1.79.48c-.53.32-.95.78-1.26,1.39-.31.61-.46,1.36-.46,2.23s.15,1.62.46,2.23c.31.61.73,1.08,1.26,1.39.53.32,1.13.48,1.79.48Z" fill="#fff" stroke-width="0"/><path d="M36,164.68v-7.36h1.12v.97h.06c.18-.34.46-.63.85-.85s.83-.34,1.34-.34c.83,0,1.47.24,1.91.73.44.49.67,1.14.67,1.97v4.89h-1.18v-4.73c0-.64-.16-1.1-.48-1.37-.32-.27-.72-.41-1.2-.41-.39,0-.73.1-1.02.29s-.5.44-.66.76-.23.66-.23,1.04v4.42h-1.18Z" fill="#fff" stroke-width="0"/><path d="M47.07,164.9c-.69,0-1.29-.17-1.8-.51s-.9-.8-1.18-1.39-.41-1.25-.41-1.99.14-1.43.43-2.02c.28-.59.68-1.06,1.19-1.39.51-.34,1.09-.5,1.76-.5.71,0,1.31.14,1.8.42.49.28.87.68,1.13,1.2.26.52.39,1.14.39,1.85,0,.12,0,.24,0,.36,0,.12-.01.22-.02.3h-5.49c.02.5.11.94.28,1.32.19.42.45.74.79.96.34.22.74.33,1.18.33.59,0,1.03-.12,1.34-.37.3-.25.52-.57.66-.96l1.04.28c-.15.6-.48,1.1-.99,1.51-.51.41-1.21.62-2.09.62ZM44.91,160.24h4.23c0-.32-.06-.6-.15-.86-.09-.26-.22-.48-.39-.66s-.39-.32-.64-.42c-.26-.1-.56-.15-.9-.15-.44,0-.82.11-1.16.33-.33.22-.59.54-.76.96-.1.23-.18.5-.22.8Z" fill="#fff" stroke-width="0"/><path d="M55.39,157.31h1.16v-2.02h1.18v2.02h1.67v1.08h-1.67v4.17c0,.36.08.63.24.83s.4.29.71.29c.16,0,.3-.02.41-.06s.23-.09.33-.15v1.15c-.12.05-.25.09-.39.12-.14.03-.32.05-.54.05-.58,0-1.05-.18-1.4-.53-.36-.35-.53-.84-.53-1.46v-4.41h-1.16v-1.08Z" fill="#fff" stroke-width="0"/><path d="M61.84,155.52c-.23,0-.43-.08-.6-.25s-.25-.37-.25-.6.08-.45.25-.61.37-.25.6-.25.45.08.61.25c.16.16.24.37.24.61s-.08.43-.24.6c-.16.17-.37.25-.61.25ZM61.25,164.68v-7.36h1.18v7.36h-1.18Z" fill="#fff" stroke-width="0"/><path d="M64.65,164.68v-7.36h1.12v.94h.06c.12-.22.28-.42.49-.6.21-.17.44-.31.71-.41s.55-.15.85-.15c.5,0,.92.11,1.26.34.35.23.59.54.74.93.21-.38.52-.69.9-.92.39-.23.84-.35,1.35-.35.73,0,1.29.22,1.69.67s.59,1.04.59,1.8v5.12h-1.16v-4.93c0-.55-.12-.95-.37-1.21-.25-.26-.6-.39-1.06-.39-.33,0-.62.08-.88.25-.26.17-.46.4-.6.69s-.22.62-.22.98v4.61h-1.18v-4.91c0-.55-.13-.96-.38-1.22s-.6-.39-1.05-.39c-.33,0-.62.09-.88.26-.26.17-.46.41-.6.7-.15.29-.22.62-.22.99v4.58h-1.18Z" fill="#fff" stroke-width="0"/><path d="M79.55,164.9c-.69,0-1.29-.17-1.8-.51s-.9-.8-1.18-1.39-.41-1.25-.41-1.99.14-1.43.43-2.02c.29-.59.68-1.06,1.19-1.39s1.09-.5,1.76-.5c.71,0,1.31.14,1.8.42s.87.68,1.13,1.2c.26.52.39,1.14.39,1.85,0,.12,0,.24,0,.36,0,.12-.01.22-.02.3h-5.49c.02.5.11.94.28,1.32.19.42.45.74.79.96.34.22.73.33,1.18.33.59,0,1.03-.12,1.34-.37.3-.25.53-.57.67-.96l1.04.28c-.15.6-.48,1.1-.99,1.51-.51.41-1.21.62-2.09.62ZM77.39,160.24h4.23c0-.32-.06-.6-.15-.86-.09-.26-.22-.48-.39-.66-.17-.18-.39-.32-.64-.42s-.56-.15-.9-.15c-.44,0-.82.11-1.15.33-.33.22-.59.54-.76.96-.1.23-.18.5-.22.8Z" fill="#fff" stroke-width="0"/><path d="M91.25,164.9c-.63,0-1.21-.12-1.73-.35s-.94-.57-1.28-1.02c-.34-.45-.56-.99-.67-1.64l1.2-.27c.1.62.36,1.14.78,1.54.42.4.99.6,1.73.6.45,0,.84-.07,1.18-.22.34-.14.61-.35.8-.62.19-.27.29-.58.29-.93s-.08-.64-.24-.87c-.16-.22-.41-.42-.74-.58s-.74-.32-1.23-.47l-.77-.24c-.37-.11-.72-.25-1.05-.4-.33-.15-.61-.34-.86-.55-.25-.21-.44-.47-.57-.77-.13-.3-.2-.65-.2-1.05,0-.5.14-.94.42-1.34.28-.4.67-.71,1.17-.95.5-.24,1.07-.36,1.71-.36.7,0,1.29.12,1.76.36.47.24.83.56,1.09.96.26.4.4.83.44,1.29l-1.12.17c-.07-.34-.19-.63-.36-.88-.18-.25-.41-.44-.71-.57-.29-.13-.66-.2-1.09-.2-.39,0-.75.06-1.07.19s-.58.3-.77.52c-.19.22-.29.49-.29.78,0,.42.18.76.55,1.02.37.26.89.5,1.57.71l.77.24c.35.11.7.24,1.03.39.33.15.63.34.89.57.26.23.47.5.62.83.15.32.23.72.23,1.18s-.09.87-.27,1.22-.42.67-.74.92-.69.44-1.11.57c-.43.13-.88.19-1.37.19Z" fill="#fff" stroke-width="0"/><path d="M96.78,164.68v-10.02h1.71l3,8.18h.06l3.01-8.18h1.7v10.02h-1.16v-6.37l.06-1.88h-.06l-3.08,8.25h-.98l-3.08-8.25h-.06l.06,1.88v6.37h-1.16Z" fill="#fff" stroke-width="0"/><path d="M111.87,164.9c-.63,0-1.21-.12-1.73-.35-.52-.23-.95-.57-1.28-1.02-.34-.45-.56-.99-.67-1.64l1.2-.27c.1.62.36,1.14.78,1.54.42.4.99.6,1.73.6.45,0,.84-.07,1.18-.22s.61-.35.8-.62c.19-.27.29-.58.29-.93s-.08-.64-.25-.87c-.16-.22-.41-.42-.73-.58-.33-.16-.74-.32-1.23-.47l-.77-.24c-.37-.11-.72-.25-1.05-.4-.33-.15-.61-.34-.86-.55s-.44-.47-.57-.77-.2-.65-.2-1.05c0-.5.14-.94.42-1.34.28-.4.67-.71,1.17-.95.5-.24,1.07-.36,1.71-.36.7,0,1.29.12,1.76.36.47.24.83.56,1.09.96.26.4.4.83.44,1.29l-1.12.17c-.06-.34-.19-.63-.36-.88-.18-.25-.41-.44-.71-.57-.29-.13-.66-.2-1.08-.2-.39,0-.75.06-1.07.19s-.58.3-.77.52c-.19.22-.29.49-.29.78,0,.42.18.76.55,1.02.37.26.89.5,1.58.71l.77.24c.35.11.7.24,1.03.39s.63.34.89.57c.26.23.47.5.62.83.15.32.23.72.23,1.18s-.09.87-.27,1.22c-.18.36-.43.67-.74.92-.32.25-.69.44-1.11.57-.42.13-.88.19-1.37.19Z" fill="#fff" stroke-width="0"/><path d="M121.03,167.7v-10.39h1.12v1.08h.06c.13-.23.31-.45.54-.64.23-.2.5-.35.81-.48.31-.12.64-.18.99-.18.66,0,1.24.16,1.74.49.49.33.88.78,1.15,1.37.27.59.41,1.27.41,2.04s-.14,1.46-.41,2.04-.66,1.04-1.15,1.37c-.49.33-1.07.49-1.73.49-.57,0-1.05-.12-1.46-.36-.4-.24-.7-.52-.88-.83h-.06l.06.97v3.02h-1.18ZM124.42,163.82c.44,0,.83-.11,1.16-.32.34-.21.6-.53.79-.96s.29-.94.29-1.55-.1-1.13-.29-1.55-.45-.74-.79-.95c-.34-.21-.72-.32-1.16-.32s-.83.11-1.17.32c-.34.21-.61.53-.8.95s-.29.94-.29,1.55.1,1.12.29,1.55.46.74.8.96c.34.21.73.32,1.17.32Z" fill="#fff" stroke-width="0"/><path d="M132.6,164.9c-.69,0-1.29-.17-1.8-.51-.51-.34-.9-.8-1.18-1.39s-.41-1.25-.41-1.99.14-1.43.43-2.02c.29-.59.68-1.06,1.19-1.39.51-.34,1.09-.5,1.76-.5.71,0,1.31.14,1.8.42s.87.68,1.13,1.2c.26.52.39,1.14.39,1.85,0,.12,0,.24,0,.36,0,.12-.01.22-.02.3h-5.49c.02.5.11.94.28,1.32.19.42.45.74.79.96.34.22.73.33,1.18.33.59,0,1.03-.12,1.34-.37.3-.25.53-.57.67-.96l1.04.28c-.15.6-.48,1.1-.99,1.51-.51.41-1.21.62-2.09.62ZM130.44,160.24h4.23c0-.32-.06-.6-.15-.86s-.22-.48-.39-.66c-.17-.18-.39-.32-.64-.42-.26-.1-.56-.15-.9-.15-.44,0-.82.11-1.16.33-.33.22-.59.54-.76.96-.1.23-.18.5-.22.8Z" fill="#fff" stroke-width="0"/><path d="M137.7,164.68v-7.36h1.12v1.02h.06c.09-.24.24-.46.43-.64.2-.19.42-.33.68-.43.26-.1.52-.15.79-.15.18,0,.32,0,.43.03s.21.05.29.08v1.25c-.13-.07-.27-.11-.42-.14-.15-.03-.3-.04-.46-.04-.33,0-.62.09-.89.28-.27.19-.48.44-.63.75-.15.31-.23.66-.23,1.03v4.34h-1.18Z" fill="#fff" stroke-width="0"/><path d="M143.21,164.68v-7.36h1.12v.94h.06c.12-.22.28-.42.49-.6.21-.17.44-.31.71-.41s.55-.15.85-.15c.5,0,.92.11,1.26.34.35.23.59.54.74.93.21-.38.52-.69.9-.92.39-.23.84-.35,1.35-.35.73,0,1.29.22,1.69.67s.59,1.04.59,1.8v5.12h-1.16v-4.93c0-.55-.12-.95-.37-1.21-.25-.26-.6-.39-1.06-.39-.33,0-.62.08-.88.25-.26.17-.46.4-.6.69s-.22.62-.22.98v4.61h-1.18v-4.91c0-.55-.13-.96-.38-1.22s-.6-.39-1.05-.39c-.33,0-.62.09-.88.26-.26.17-.46.41-.6.7-.15.29-.22.62-.22.99v4.58h-1.18Z" fill="#fff" stroke-width="0"/><path d="M155.72,155.52c-.23,0-.43-.08-.6-.25s-.25-.37-.25-.6.08-.45.25-.61.37-.25.6-.25.45.08.61.25.25.37.25.61-.08.43-.25.6-.37.25-.61.25ZM155.14,164.68v-7.36h1.18v7.36h-1.18Z" fill="#fff" stroke-width="0"/><path d="M161.03,164.9c-.5,0-.97-.09-1.41-.26-.44-.17-.8-.42-1.08-.76-.29-.33-.46-.74-.51-1.21l1.13-.2c.07.37.27.7.59.97.32.27.75.41,1.29.41.47,0,.86-.1,1.19-.3.33-.2.49-.49.49-.86,0-.22-.05-.42-.17-.58-.11-.16-.28-.3-.5-.41-.22-.11-.5-.2-.83-.25l-.91-.17c-.41-.07-.78-.2-1.1-.38-.32-.18-.57-.41-.76-.69-.18-.29-.27-.63-.27-1.03s.12-.79.37-1.1c.25-.31.58-.56.99-.73.41-.17.87-.26,1.37-.26.45,0,.87.07,1.25.2.39.13.71.35.98.64s.43.68.5,1.17l-1.09.17c-.09-.41-.29-.7-.59-.88-.3-.17-.65-.26-1.04-.26-.43,0-.79.09-1.09.27-.3.18-.45.43-.45.75,0,.28.11.51.34.69.22.18.58.32,1.06.42l1.04.21c.66.13,1.18.37,1.54.72.36.35.55.83.55,1.45,0,.46-.13.85-.38,1.19s-.59.6-1.02.78c-.43.19-.92.28-1.46.28Z" fill="#fff" stroke-width="0"/><path d="M168.06,164.9c-.5,0-.98-.09-1.41-.26-.44-.17-.8-.42-1.09-.76s-.46-.74-.51-1.21l1.13-.2c.07.37.27.7.59.97.32.27.75.41,1.29.41.47,0,.86-.1,1.19-.3.33-.2.49-.49.49-.86,0-.22-.06-.42-.17-.58-.11-.16-.28-.3-.5-.41-.22-.11-.5-.2-.83-.25l-.91-.17c-.41-.07-.78-.2-1.1-.38-.32-.18-.57-.41-.76-.69-.18-.29-.27-.63-.27-1.03s.12-.79.37-1.1c.25-.31.58-.56.99-.73.42-.17.87-.26,1.37-.26.45,0,.87.07,1.25.2.39.13.71.35.98.64s.43.68.5,1.17l-1.09.17c-.09-.41-.29-.7-.6-.88-.3-.17-.65-.26-1.04-.26-.43,0-.79.09-1.09.27-.3.18-.45.43-.45.75,0,.28.11.51.34.69.22.18.58.32,1.06.42l1.04.21c.66.13,1.18.37,1.54.72.36.35.55.83.55,1.45,0,.46-.13.85-.38,1.19s-.59.6-1.02.78-.91.28-1.46.28Z" fill="#fff" stroke-width="0"/><path d="M173.1,155.52c-.23,0-.43-.08-.6-.25s-.25-.37-.25-.6.08-.45.25-.61.37-.25.6-.25.45.08.61.25c.16.16.25.37.25.61s-.08.43-.25.6c-.16.17-.37.25-.61.25ZM172.51,164.68v-7.36h1.18v7.36h-1.18Z" fill="#fff" stroke-width="0"/><path d="M178.94,164.9c-.72,0-1.34-.17-1.87-.5-.53-.33-.94-.79-1.23-1.38s-.43-1.26-.43-2.03.14-1.45.43-2.04.7-1.04,1.23-1.37,1.15-.5,1.87-.5,1.34.17,1.86.5c.52.33.93.79,1.21,1.37.28.58.43,1.26.43,2.04s-.14,1.44-.43,2.03c-.29.59-.69,1.05-1.21,1.38-.52.33-1.14.5-1.86.5ZM178.94,163.82c.46,0,.86-.11,1.21-.34.35-.22.62-.55.82-.97.2-.42.29-.93.29-1.53s-.1-1.11-.29-1.53c-.2-.42-.47-.74-.82-.97-.35-.22-.75-.34-1.21-.34s-.86.11-1.22.34c-.36.22-.63.55-.83.97-.2.42-.3.93-.3,1.53s.1,1.11.3,1.53c.2.42.48.74.83.97.35.22.76.34,1.22.34Z" fill="#fff" stroke-width="0"/><path d="M184.1,164.68v-7.36h1.12v.97h.06c.18-.34.46-.63.85-.85s.83-.34,1.34-.34c.83,0,1.47.24,1.91.73.44.49.67,1.14.67,1.97v4.89h-1.18v-4.73c0-.64-.16-1.1-.48-1.37-.32-.27-.72-.41-1.2-.41-.39,0-.73.1-1.01.29s-.5.44-.66.76c-.15.31-.23.66-.23,1.04v4.42h-1.18Z" fill="#fff" stroke-width="0"/><path d="M196,164.68v-7.36h1.12v.97h.06c.18-.34.46-.63.85-.85.39-.22.83-.34,1.34-.34.83,0,1.47.24,1.91.73.44.49.66,1.14.66,1.97v4.89h-1.18v-4.73c0-.64-.16-1.1-.48-1.37-.32-.27-.72-.41-1.2-.41-.39,0-.73.1-1.02.29-.28.19-.5.44-.66.76-.15.31-.23.66-.23,1.04v4.42h-1.18Z" fill="#fff" stroke-width="0"/><path d="M207.08,164.9c-.69,0-1.29-.17-1.8-.51s-.9-.8-1.18-1.39-.41-1.25-.41-1.99.14-1.43.43-2.02c.28-.59.68-1.06,1.19-1.39.51-.34,1.09-.5,1.76-.5.71,0,1.31.14,1.8.42.49.28.87.68,1.13,1.2.26.52.39,1.14.39,1.85,0,.12,0,.24,0,.36,0,.12-.01.22-.02.3h-5.49c.02.5.11.94.28,1.32.19.42.45.74.79.96.34.22.74.33,1.18.33.59,0,1.03-.12,1.34-.37.3-.25.52-.57.66-.96l1.04.28c-.15.6-.48,1.1-.99,1.51-.51.41-1.21.62-2.09.62ZM204.92,160.24h4.23c0-.32-.06-.6-.15-.86-.09-.26-.22-.48-.39-.66s-.39-.32-.64-.42c-.26-.1-.56-.15-.9-.15-.44,0-.82.11-1.16.33-.33.22-.59.54-.76.96-.1.23-.18.5-.22.8Z" fill="#fff" stroke-width="0"/><path d="M215.21,164.9c-.69,0-1.29-.17-1.8-.51-.51-.34-.9-.8-1.18-1.39s-.41-1.25-.41-1.99.14-1.43.43-2.02c.28-.59.68-1.06,1.19-1.39.51-.34,1.09-.5,1.76-.5.71,0,1.31.14,1.8.42.49.28.87.68,1.13,1.2.26.52.39,1.14.39,1.85,0,.12,0,.24,0,.36,0,.12-.01.22-.02.3h-5.49c.02.5.11.94.28,1.32.19.42.45.74.79.96.34.22.74.33,1.18.33.59,0,1.03-.12,1.34-.37.3-.25.52-.57.67-.96l1.04.28c-.15.6-.48,1.1-.99,1.51-.51.41-1.21.62-2.09.62ZM213.05,160.24h4.23c0-.32-.06-.6-.15-.86s-.22-.48-.39-.66c-.17-.18-.39-.32-.64-.42-.26-.1-.56-.15-.9-.15-.44,0-.82.11-1.15.33-.33.22-.59.54-.76.96-.1.23-.18.5-.22.8Z" fill="#fff" stroke-width="0"/><path d="M223.25,164.9c-.66,0-1.24-.17-1.74-.5-.5-.33-.88-.79-1.15-1.38-.27-.59-.41-1.26-.41-2.03s.14-1.45.41-2.04c.27-.58.65-1.04,1.14-1.37.49-.33,1.07-.5,1.73-.5.37,0,.71.06,1.02.17.31.12.57.27.8.46s.4.39.52.6h.05l-.05-1.01v-3.5h1.18v10.86h-1.12v-1.04h-.05c-.12.21-.29.42-.52.62s-.49.35-.79.47c-.3.12-.64.17-1.01.17ZM223.37,163.82c.45,0,.84-.11,1.18-.32s.6-.53.79-.96c.19-.42.29-.94.29-1.55s-.1-1.13-.29-1.55c-.19-.42-.46-.74-.79-.95-.34-.21-.73-.32-1.18-.32s-.83.11-1.17.32c-.34.21-.61.53-.79.95-.19.42-.28.94-.28,1.55s.09,1.12.28,1.55c.19.42.45.74.79.96.34.21.73.32,1.17.32Z" fill="#fff" stroke-width="0"/><path d="M231.87,164.9c-.69,0-1.29-.17-1.8-.51s-.9-.8-1.18-1.39-.41-1.25-.41-1.99.14-1.43.43-2.02c.29-.59.68-1.06,1.19-1.39s1.09-.5,1.76-.5c.71,0,1.31.14,1.8.42s.87.68,1.13,1.2c.26.52.39,1.14.39,1.85,0,.12,0,.24,0,.36,0,.12-.01.22-.02.3h-5.49c.02.5.11.94.28,1.32.19.42.45.74.79.96.34.22.73.33,1.18.33.59,0,1.03-.12,1.34-.37.3-.25.53-.57.67-.96l1.04.28c-.15.6-.48,1.1-.99,1.51-.51.41-1.21.62-2.09.62ZM229.71,160.24h4.23c0-.32-.06-.6-.15-.86-.09-.26-.22-.48-.39-.66-.17-.18-.39-.32-.64-.42s-.56-.15-.9-.15c-.44,0-.82.11-1.15.33-.33.22-.59.54-.76.96-.1.23-.18.5-.22.8Z" fill="#fff" stroke-width="0"/><path d="M239.91,164.9c-.66,0-1.24-.17-1.74-.5-.5-.33-.88-.79-1.15-1.38-.27-.59-.41-1.26-.41-2.03s.14-1.45.41-2.04c.27-.58.65-1.04,1.14-1.37.49-.33,1.07-.5,1.73-.5.37,0,.71.06,1.02.17.31.12.57.27.8.46s.4.39.52.6h.05l-.05-1.01v-3.5h1.18v10.86h-1.12v-1.04h-.05c-.12.21-.29.42-.52.62s-.49.35-.79.47c-.3.12-.64.17-1.01.17ZM240.03,163.82c.45,0,.84-.11,1.18-.32s.6-.53.79-.96c.19-.42.29-.94.29-1.55s-.1-1.13-.29-1.55c-.19-.42-.46-.74-.79-.95-.34-.21-.73-.32-1.18-.32s-.83.11-1.17.32c-.34.21-.61.53-.79.95-.19.42-.28.94-.28,1.55s.09,1.12.28,1.55c.19.42.45.74.79.96.34.21.73.32,1.17.32Z" fill="#fff" stroke-width="0"/></g><g isolation="isolate"><path d="M25.77,123.58h1.89v13.97h6.97v1.78h-8.87v-15.75Z" fill="#fff" stroke-width="0"/><path d="M38.6,138.92c-.86-.51-1.53-1.22-2.02-2.12-.48-.9-.72-1.92-.72-3.05,0-1.07.23-2.06.68-2.98.45-.92,1.1-1.65,1.94-2.19.84-.54,1.8-.81,2.89-.81s2.08.25,2.9.74c.82.49,1.44,1.17,1.88,2.04s.66,1.86.66,2.97c0,.18-.01.37-.04.57h-9c.04.85.25,1.57.62,2.16.37.59.84,1.03,1.42,1.32.57.29,1.17.44,1.79.44,1.49,0,2.61-.67,3.36-2.02l1.6.77c-.48.9-1.14,1.61-1.98,2.15s-1.86.8-3.05.8c-1.08,0-2.06-.26-2.92-.77ZM44.8,132.54c-.03-.47-.16-.94-.4-1.41-.24-.47-.61-.87-1.11-1.19-.5-.32-1.14-.48-1.92-.48-.89,0-1.65.28-2.27.85s-1.03,1.31-1.23,2.23h6.93Z" fill="#fff" stroke-width="0"/><path d="M51.76,139.46c-.39-.15-.72-.35-.99-.6-.59-.57-.89-1.35-.89-2.35v-6.7h-1.98v-1.69h1.98v-3.17h1.89v3.17h2.79v1.69h-2.79v6.25c0,.63.12,1.09.36,1.39.28.33.69.49,1.23.49.46,0,.88-.12,1.25-.37v1.83c-.22.1-.45.18-.68.22s-.52.07-.88.07c-.46,0-.89-.08-1.28-.22Z" fill="#fff" stroke-width="0"/><path d="M65.28,138.61c-1.26-.72-2.27-1.71-3.01-2.97-.74-1.26-1.11-2.65-1.11-4.18s.37-2.92,1.11-4.18c.74-1.26,1.75-2.25,3.01-2.97s2.64-1.08,4.14-1.08c1.17,0,2.28.21,3.31.62,1.03.41,1.88.99,2.55,1.74l-1.34,1.34c-.52-.62-1.17-1.09-1.96-1.42-.79-.33-1.63-.5-2.54-.5-1.11,0-2.16.27-3.14.8-.98.54-1.76,1.29-2.35,2.27-.59.98-.88,2.1-.88,3.38s.29,2.4.88,3.38c.59.98,1.37,1.73,2.35,2.27.98.54,2.03.8,3.14.8s1.96-.17,2.69-.49c.72-.33,1.34-.77,1.86-1.31.39-.41.7-.91.94-1.49.24-.58.39-1.22.45-1.92h-5.91v-1.74h7.67c.07.41.11.79.11,1.14,0,.97-.16,1.91-.47,2.83-.31.92-.81,1.72-1.49,2.41-1.47,1.57-3.42,2.35-5.86,2.35-1.5,0-2.88-.36-4.14-1.08Z" fill="#fff" stroke-width="0"/><path d="M81.79,138.9c-.89-.53-1.59-1.25-2.08-2.16-.5-.91-.75-1.91-.75-3.01s.25-2.1.75-3.01c.5-.91,1.19-1.63,2.08-2.16s1.89-.79,3.01-.79,2.12.26,3.01.79,1.58,1.25,2.08,2.16.75,1.91.75,3.01-.25,2.1-.75,3.01c-.5.91-1.19,1.63-2.08,2.16-.89.53-1.89.79-3.01.79s-2.12-.26-3.01-.79ZM86.74,137.48c.6-.34,1.08-.84,1.45-1.49.36-.64.55-1.4.55-2.27s-.18-1.62-.55-2.27-.85-1.14-1.45-1.49-1.25-.52-1.95-.52-1.35.17-1.96.52c-.61.34-1.1.84-1.46,1.49-.36.65-.55,1.4-.55,2.27s.18,1.62.55,2.27c.36.65.85,1.14,1.46,1.49.61.34,1.26.52,1.96.52s1.35-.17,1.95-.52Z" fill="#fff" stroke-width="0"/><path d="M95.07,138.9c-.89-.53-1.59-1.25-2.08-2.16-.5-.91-.75-1.91-.75-3.01s.25-2.1.75-3.01c.5-.91,1.19-1.63,2.08-2.16s1.89-.79,3.01-.79,2.12.26,3.01.79,1.58,1.25,2.08,2.16.75,1.91.75,3.01-.25,2.1-.75,3.01c-.5.91-1.19,1.63-2.08,2.16-.89.53-1.89.79-3.01.79s-2.12-.26-3.01-.79ZM100.03,137.48c.6-.34,1.08-.84,1.45-1.49.36-.64.55-1.4.55-2.27s-.18-1.62-.55-2.27-.85-1.14-1.45-1.49-1.25-.52-1.95-.52-1.35.17-1.96.52c-.61.34-1.1.84-1.46,1.49-.36.65-.55,1.4-.55,2.27s.18,1.62.55,2.27c.36.65.85,1.14,1.46,1.49.61.34,1.26.52,1.96.52s1.35-.17,1.95-.52Z" fill="#fff" stroke-width="0"/><path d="M107.8,143.52c-.87-.62-1.45-1.36-1.75-2.22l1.74-.73c.24.65.65,1.17,1.24,1.57s1.28.61,2.08.61c1.17,0,2.08-.32,2.73-.97.65-.65.97-1.57.97-2.77v-1.25h-.09c-.37.57-.9,1.04-1.57,1.4s-1.44.54-2.31.54c-.98,0-1.88-.25-2.69-.76-.81-.5-1.45-1.21-1.93-2.11-.48-.91-.71-1.94-.71-3.09s.24-2.17.71-3.08,1.12-1.62,1.93-2.12c.81-.5,1.71-.76,2.69-.76.86,0,1.63.18,2.31.54s1.2.83,1.57,1.42h.09v-1.61h1.8v10.78c0,1.8-.5,3.18-1.51,4.12-1.01.95-2.34,1.42-3.99,1.42-1.34,0-2.44-.31-3.31-.92ZM112.97,137.48c.56-.34,1-.83,1.34-1.47s.5-1.4.5-2.28-.17-1.66-.5-2.3c-.33-.64-.78-1.13-1.34-1.46-.56-.34-1.18-.5-1.86-.5s-1.31.17-1.87.51c-.57.34-1.01.83-1.35,1.47-.33.64-.5,1.4-.5,2.28s.17,1.64.5,2.29c.33.65.78,1.14,1.35,1.48.56.33,1.19.5,1.87.5s1.3-.17,1.86-.51Z" fill="#fff" stroke-width="0"/><path d="M119.42,123.58h1.89v15.75h-1.89v-15.75Z" fill="#fff" stroke-width="0"/><path d="M126.15,138.92c-.86-.51-1.53-1.22-2.02-2.12-.48-.9-.72-1.92-.72-3.05,0-1.07.23-2.06.68-2.98.45-.92,1.1-1.65,1.94-2.19.84-.54,1.8-.81,2.89-.81s2.08.25,2.9.74c.82.49,1.45,1.17,1.88,2.04.44.87.66,1.86.66,2.97,0,.18-.02.37-.04.57h-9c.04.85.25,1.57.62,2.16.37.59.84,1.03,1.42,1.32.57.29,1.17.44,1.79.44,1.49,0,2.61-.67,3.37-2.02l1.6.77c-.48.9-1.14,1.61-1.98,2.15s-1.86.8-3.05.8c-1.08,0-2.06-.26-2.92-.77ZM132.35,132.54c-.03-.47-.16-.94-.4-1.41-.24-.47-.61-.87-1.11-1.19-.5-.32-1.14-.48-1.92-.48-.89,0-1.65.28-2.27.85s-1.03,1.31-1.23,2.23h6.93Z" fill="#fff" stroke-width="0"/><path d="M142.64,138.84c-.82-.56-1.4-1.29-1.74-2.17l1.69-.75c.28.67.7,1.2,1.26,1.56.56.37,1.17.55,1.84.55.71,0,1.32-.14,1.83-.43s.76-.69.76-1.22c0-.47-.2-.85-.6-1.13s-1.03-.53-1.89-.74l-1.38-.35c-.91-.22-1.65-.59-2.23-1.12-.58-.53-.87-1.21-.87-2.05,0-.65.2-1.21.59-1.71s.92-.87,1.57-1.13c.65-.26,1.36-.4,2.12-.4,1,0,1.88.21,2.66.64.78.43,1.33,1.02,1.66,1.78l-1.65.75c-.5-1-1.4-1.5-2.7-1.5-.62,0-1.17.14-1.64.43-.47.29-.7.65-.7,1.09,0,.41.16.74.49,1,.33.26.82.47,1.47.63l1.65.42c1.11.28,1.95.69,2.52,1.24.56.55.85,1.22.85,2.01,0,.69-.2,1.29-.6,1.81-.4.52-.94.92-1.63,1.2-.68.28-1.44.42-2.27.42-1.22,0-2.24-.28-3.05-.85Z" fill="#fff" stroke-width="0"/><path d="M154.52,138.92c-.86-.51-1.53-1.22-2.02-2.12-.48-.9-.72-1.92-.72-3.05,0-1.07.23-2.06.68-2.98.45-.92,1.1-1.65,1.94-2.19.84-.54,1.8-.81,2.89-.81s2.08.25,2.9.74c.82.49,1.44,1.17,1.88,2.04s.66,1.86.66,2.97c0,.18-.01.37-.04.57h-9c.04.85.25,1.57.62,2.16.37.59.84,1.03,1.42,1.32.57.29,1.17.44,1.79.44,1.49,0,2.61-.67,3.36-2.02l1.6.77c-.48.9-1.14,1.61-1.98,2.15s-1.86.8-3.05.8c-1.08,0-2.06-.26-2.92-.77ZM160.71,132.54c-.03-.47-.16-.94-.4-1.41-.24-.47-.61-.87-1.11-1.19-.5-.32-1.14-.48-1.92-.48-.89,0-1.65.28-2.27.85s-1.03,1.31-1.23,2.23h6.93Z" fill="#fff" stroke-width="0"/><path d="M167.67,139.46c-.39-.15-.72-.35-.99-.6-.59-.57-.89-1.35-.89-2.35v-6.7h-1.98v-1.69h1.98v-3.17h1.89v3.17h2.79v1.69h-2.79v6.25c0,.63.12,1.09.36,1.39.28.33.69.49,1.22.49.46,0,.88-.12,1.25-.37v1.83c-.22.1-.45.18-.68.22s-.52.07-.88.07c-.46,0-.89-.08-1.28-.22Z" fill="#fff" stroke-width="0"/><path d="M178.91,138.5c-.72-.79-1.08-1.9-1.08-3.32v-7.06h1.89v6.78c0,1.07.24,1.86.73,2.35.49.5,1.15.75,1.98.75.64,0,1.21-.17,1.71-.51.5-.34.88-.78,1.16-1.32.28-.54.41-1.11.41-1.72v-6.34h1.89v11.22h-1.8v-1.63h-.09c-.31.56-.81,1.03-1.49,1.41-.68.38-1.41.57-2.18.57-1.37,0-2.41-.4-3.13-1.19Z" fill="#fff" stroke-width="0"/><path d="M190.32,128.12h1.81v1.67h.09c.34-.57.86-1.05,1.55-1.44.69-.39,1.47-.58,2.33-.58,1.03,0,1.95.26,2.77.77.82.51,1.47,1.22,1.95,2.13.47.91.71,1.93.71,3.06s-.24,2.17-.71,3.07c-.48.9-1.13,1.61-1.95,2.12-.82.51-1.75.77-2.77.77-.86,0-1.64-.19-2.33-.58-.69-.39-1.21-.86-1.55-1.42h-.09l.09,1.54v4.86h-1.89v-15.97ZM197.74,137.47c.58-.35,1.04-.85,1.38-1.5s.51-1.39.51-2.24-.17-1.6-.51-2.24c-.34-.64-.8-1.14-1.38-1.5-.58-.35-1.2-.53-1.85-.53s-1.29.18-1.86.53c-.57.35-1.03.85-1.38,1.5-.35.65-.52,1.39-.52,2.24s.17,1.6.52,2.24c.35.65.81,1.14,1.38,1.5.57.35,1.19.53,1.86.53s1.27-.18,1.85-.53Z" fill="#fff" stroke-width="0"/><path d="M210.31,139.2c-.65-.32-1.16-.77-1.52-1.33s-.53-1.21-.53-1.93c0-1.19.45-2.12,1.36-2.78.91-.67,2.05-1,3.43-1,.68,0,1.32.07,1.91.22s1.04.32,1.35.51v-.68c0-.84-.3-1.51-.89-2.01-.59-.51-1.34-.76-2.25-.76-.62,0-1.21.14-1.75.41s-.97.65-1.28,1.13l-1.43-1.06c.45-.67,1.06-1.2,1.85-1.58.79-.38,1.66-.57,2.61-.57,1.54,0,2.76.4,3.63,1.2.88.8,1.31,1.89,1.31,3.27v7.11h-1.8v-1.61h-.09c-.33.54-.82,1-1.47,1.39-.65.38-1.39.57-2.21.57s-1.58-.16-2.23-.48ZM214.5,137.55c.55-.32.99-.75,1.31-1.3.33-.54.49-1.14.49-1.78-.36-.23-.79-.42-1.31-.57-.52-.15-1.07-.22-1.65-.22-1.04,0-1.82.21-2.35.64-.53.43-.79.98-.79,1.65,0,.62.24,1.12.71,1.5.48.38,1.08.57,1.8.57.64,0,1.23-.16,1.78-.48Z" fill="#fff" stroke-width="0"/><path d="M220.74,123.58h1.89v15.75h-1.89v-15.75Z" fill="#fff" stroke-width="0"/><path d="M225.44,123.58h1.89v15.75h-1.89v-15.75Z" fill="#fff" stroke-width="0"/><path d="M238.76,139.11c-.69-.39-1.21-.86-1.55-1.42h-.09v1.65h-1.8v-15.75h1.89v4.64l-.09,1.56h.09c.34-.57.86-1.05,1.55-1.44s1.47-.58,2.33-.58c1.02,0,1.95.26,2.77.77.83.51,1.47,1.22,1.95,2.13s.71,1.93.71,3.06-.24,2.17-.71,3.07c-.48.9-1.12,1.61-1.95,2.12-.82.51-1.75.77-2.77.77-.86,0-1.64-.19-2.33-.58ZM242.73,137.47c.58-.35,1.04-.85,1.38-1.5s.51-1.39.51-2.24-.17-1.6-.51-2.24c-.34-.64-.8-1.14-1.38-1.5-.58-.35-1.2-.53-1.85-.53s-1.29.18-1.86.53c-.57.35-1.03.85-1.38,1.5-.35.65-.52,1.39-.52,2.24s.17,1.6.52,2.24.81,1.14,1.38,1.5c.57.35,1.19.53,1.86.53s1.27-.18,1.85-.53Z" fill="#fff" stroke-width="0"/><path d="M248.77,125.65c-.27-.26-.4-.58-.4-.95s.13-.7.4-.96c.27-.26.59-.39.96-.39s.71.13.97.39.39.58.39.96-.13.68-.39.95c-.26.26-.58.4-.97.4s-.69-.13-.96-.4ZM248.79,128.12h1.89v11.22h-1.89v-11.22Z" fill="#fff" stroke-width="0"/><path d="M253.65,123.58h1.89v15.75h-1.89v-15.75Z" fill="#fff" stroke-width="0"/><path d="M258.35,123.58h1.89v15.75h-1.89v-15.75Z" fill="#fff" stroke-width="0"/><path d="M263.86,138.84c-.82-.56-1.4-1.29-1.74-2.17l1.69-.75c.28.67.7,1.2,1.26,1.56.56.37,1.17.55,1.84.55.71,0,1.32-.14,1.83-.43s.76-.69.76-1.22c0-.47-.2-.85-.6-1.13-.4-.29-1.03-.53-1.89-.74l-1.38-.35c-.91-.22-1.65-.59-2.23-1.12-.58-.53-.87-1.21-.87-2.05,0-.65.2-1.21.59-1.71s.92-.87,1.57-1.13c.65-.26,1.36-.4,2.12-.4,1,0,1.88.21,2.66.64.78.43,1.33,1.02,1.66,1.78l-1.65.75c-.5-1-1.4-1.5-2.7-1.5-.62,0-1.17.14-1.64.43-.47.29-.7.65-.7,1.09,0,.41.16.74.49,1,.33.26.82.47,1.47.63l1.65.42c1.11.28,1.95.69,2.52,1.24.56.55.85,1.22.85,2.01,0,.69-.2,1.29-.6,1.81-.4.52-.94.92-1.63,1.2s-1.44.42-2.27.42c-1.22,0-2.24-.28-3.05-.85Z" fill="#fff" stroke-width="0"/></g><circle cx="125.2" cy="206.46" r="14" fill="#9fc7ff" stroke-width="0"/><path d="M126.87,201.46l-1.18,1.18,2.98,2.99h-10.14v1.67h10.14l-2.98,2.99,1.18,1.18,5-5-5-5h0Z" fill="#161616" stroke-width="0"/><path d="M27.45,211c-.8-.46-1.44-1.08-1.91-1.88-.47-.8-.71-1.69-.71-2.67s.24-1.87.71-2.67c.47-.8,1.11-1.42,1.91-1.88.8-.46,1.68-.69,2.63-.69.77,0,1.47.13,2.11.41.64.27,1.19.65,1.64,1.13l-1.06,1.06c-.68-.76-1.58-1.15-2.69-1.15-.65,0-1.26.16-1.83.47s-1.02.76-1.36,1.34c-.34.58-.5,1.24-.5,1.97s.17,1.41.51,1.98c.34.57.79,1.02,1.36,1.33s1.18.47,1.84.47c1.05,0,1.91-.33,2.58-.99.21-.21.39-.47.54-.78s.25-.67.3-1.05h-3.44v-1.36h4.87c.06.32.08.59.08.81,0,.63-.1,1.24-.3,1.81-.2.57-.51,1.08-.93,1.52-.45.49-.98.86-1.61,1.11-.63.26-1.33.38-2.1.38-.95,0-1.83-.23-2.63-.69Z" fill="#9fc7ff" stroke-width="0"/><path d="M38.15,211.2c-.56-.33-.99-.78-1.3-1.35s-.47-1.22-.47-1.94c0-.68.15-1.31.46-1.9.3-.58.73-1.05,1.27-1.39.54-.34,1.15-.52,1.83-.52.72,0,1.34.16,1.86.47.52.31.92.75,1.2,1.29.28.55.41,1.18.41,1.88,0,.19,0,.35-.03.48h-5.52c.06.68.31,1.21.73,1.58.42.37.91.55,1.47.55.46,0,.85-.11,1.18-.32.33-.21.59-.49.78-.83l1.25.6c-.33.59-.76,1.05-1.3,1.39s-1.19.5-1.95.5c-.69,0-1.31-.16-1.87-.49ZM41.91,207.08c-.02-.26-.1-.52-.25-.78-.15-.26-.37-.48-.65-.65s-.64-.26-1.06-.26c-.5,0-.93.15-1.28.46s-.59.72-.72,1.23h3.96Z" fill="#9fc7ff" stroke-width="0"/><path d="M46.91,211.54c-.28-.1-.5-.24-.68-.42-.4-.39-.6-.94-.6-1.65v-3.82h-1.25v-1.32h1.25v-2.02h1.51v2.02h1.75v1.32h-1.75v3.51c0,.4.07.68.22.85.16.18.4.27.73.27.17,0,.31-.02.43-.06s.26-.11.41-.2v1.47c-.32.14-.7.21-1.13.21-.32,0-.61-.05-.89-.15Z" fill="#9fc7ff" stroke-width="0"/><path d="M54.78,211.15c-.53-.35-.9-.82-1.11-1.39l1.36-.59c.17.38.41.67.71.88.31.2.66.3,1.05.3s.74-.07,1.01-.22.41-.36.41-.65c0-.26-.12-.47-.34-.62-.23-.15-.59-.29-1.07-.4l-.85-.2c-.57-.14-1.04-.39-1.41-.74-.37-.35-.56-.8-.56-1.34,0-.41.12-.77.37-1.09.25-.32.58-.56.99-.74.42-.17.87-.26,1.36-.26.67,0,1.26.13,1.76.39.5.26.86.64,1.09,1.15l-1.3.59c-.29-.57-.8-.85-1.53-.85-.36,0-.65.07-.89.22-.24.15-.36.34-.36.56,0,.42.36.72,1.09.91l1.04.25c.7.18,1.23.44,1.59.8.36.36.54.79.54,1.32,0,.45-.13.84-.38,1.18-.26.34-.61.6-1.06.79-.45.19-.94.28-1.48.28-.81,0-1.48-.18-2.01-.53Z" fill="#9fc7ff" stroke-width="0"/><path d="M63.28,211.54c-.28-.1-.5-.24-.68-.42-.4-.39-.6-.94-.6-1.65v-3.82h-1.25v-1.32h1.25v-2.02h1.51v2.02h1.75v1.32h-1.75v3.51c0,.4.07.68.22.85.16.18.4.27.73.27.17,0,.31-.02.43-.06s.26-.11.41-.2v1.47c-.32.14-.7.21-1.13.21-.32,0-.61-.05-.89-.15Z" fill="#9fc7ff" stroke-width="0"/><path d="M67.74,211.39c-.4-.2-.71-.48-.94-.85-.22-.36-.34-.78-.34-1.25,0-.5.13-.92.39-1.28.26-.36.62-.63,1.06-.83.45-.19.95-.29,1.5-.29.42,0,.8.04,1.14.12.34.08.61.17.82.27v-.38c0-.46-.17-.83-.5-1.11-.34-.29-.77-.43-1.3-.43-.36,0-.71.08-1.04.24-.33.16-.59.39-.78.67l-1.04-.8c.31-.44.72-.78,1.23-1.02.51-.24,1.07-.36,1.67-.36,1.03,0,1.82.25,2.39.76.56.51.85,1.22.85,2.14v4.47h-1.47v-.88h-.08c-.21.32-.5.58-.88.79s-.82.31-1.3.31c-.51,0-.97-.1-1.37-.3ZM70.4,210.18c.31-.18.55-.43.72-.74.17-.31.26-.64.26-.99-.22-.13-.48-.23-.77-.31-.29-.07-.59-.11-.91-.11-.59,0-1.02.12-1.29.35s-.41.54-.41.92c0,.34.13.61.38.83s.59.32,1.01.32c.37,0,.71-.09,1.02-.27Z" fill="#9fc7ff" stroke-width="0"/><path d="M74.79,204.32h1.43v1.05h.08c.18-.38.46-.65.86-.81.4-.16.82-.24,1.28-.24.25,0,.45.02.59.06v1.51c-.19-.07-.44-.1-.76-.1-.6,0-1.08.18-1.44.55s-.54.87-.54,1.5v3.61h-1.51v-7.14ZM82.51,211.43c-.27-.1-.49-.24-.67-.41-.41-.38-.62-.92-.62-1.62v-3.75h-1.25v-1.32h1.25v-2.02h1.51v2.02h1.75v1.32h-1.75v3.43c0,.39.07.67.22.83.16.18.4.27.73.27.17,0,.31-.02.43-.06s.26-.11.41-.2v1.47c-.32.14-.69.21-1.12.21-.33,0-.63-.05-.9-.15Z" fill="#9fc7ff" stroke-width="0"/><path d="M87.35,211.2c-.56-.33-.99-.78-1.3-1.35s-.47-1.22-.47-1.94c0-.68.15-1.31.46-1.9.3-.58.73-1.05,1.27-1.39.54-.34,1.15-.52,1.83-.52.72,0,1.34.16,1.86.47.52.31.92.75,1.2,1.29.28.55.41,1.18.41,1.88,0,.19,0,.35-.03.48h-5.52c.06.68.31,1.21.73,1.58.42.37.91.55,1.47.55.46,0,.85-.11,1.18-.32.33-.21.59-.49.78-.83l1.25.6c-.33.59-.76,1.05-1.3,1.39s-1.19.5-1.95.5c-.69,0-1.31-.16-1.87-.49ZM91.1,207.08c-.02-.26-.1-.52-.25-.78-.15-.26-.37-.48-.65-.65s-.64-.26-1.06-.26c-.5,0-.93.15-1.28.46s-.59.72-.72,1.23h3.96Z" fill="#9fc7ff" stroke-width="0"/><path d="M95.65,211.2c-.52-.32-.93-.77-1.23-1.35-.3-.58-.45-1.23-.45-1.96s.15-1.38.45-1.95.71-1.02,1.23-1.35c.52-.33,1.11-.49,1.75-.49.52,0,.99.11,1.39.34.4.23.7.51.91.85h.08l-.08-.99v-2.86h1.5v10.02h-1.41v-.95h-.08c-.21.33-.51.6-.91.83-.4.23-.86.34-1.39.34-.64,0-1.23-.16-1.75-.48ZM98.68,210c.33-.2.6-.48.8-.85.2-.36.3-.78.3-1.26s-.1-.9-.3-1.26c-.2-.36-.47-.65-.8-.85-.33-.2-.68-.3-1.06-.3s-.73.1-1.06.3c-.33.2-.6.48-.8.85-.2.36-.3.78-.3,1.26s.1.9.3,1.26c.2.36.47.65.8.85.33.2.68.3,1.06.3s.73-.1,1.06-.3Z" fill="#9fc7ff" stroke-width="0"/></svg>