<svg xmlns="http://www.w3.org/2000/svg" viewBox="0 0 412 248"><path fill="#e9f2ff" d="M0 0h412v248H0z"/><path fill="#def0ef" d="M248.06 248.07v-.1h-7.72l7.72.1z"/><path d="M363.11 119.88c-59.73 0-111.04 31.7-133.44 77.03-7.73 15.64-12.03 32.91-12.03 51.06s65.66 0 65.66 0h128.72V119.88H363.1zm13.65-57.1l1.17-.58c.18-.08.34-.22.45-.38.11-.17.17-.36.17-.56s-.06-.4-.17-.56c-.11-.17-.27-.3-.45-.38l-1.17-.58a.83.83 0 01-.48-.45l-.6-1.11c-.1-.18-.24-.33-.42-.43-.18-.1-.37-.16-.58-.16s-.4.06-.58.16c-.18.1-.32.25-.42.43l-.61 1.11c-.04.1-.11.2-.19.27-.08.08-.18.14-.29.18l-1.17.58a1.036 1.036 0 00-.62.94c0 .2.06.4.17.56.11.17.26.3.45.38l1.17.58a.83.83 0 01.48.45l.61 1.11c.1.18.24.33.42.43.18.1.38.16.58.16s.4-.06.58-.16c.18-.1.32-.25.42-.43l.61-1.11c.12-.18.29-.33.47-.45zm-10.81 6.73l.83-.41c.13-.06.24-.15.32-.27a.721.721 0 000-.8.763.763 0 00-.32-.27l-.83-.41a.669.669 0 01-.34-.32l-.43-.79a.723.723 0 00-.3-.3c-.12-.07-.27-.11-.41-.11s-.28.04-.41.11c-.12.07-.23.18-.3.3l-.43.79c-.03.07-.08.14-.14.19-.06.06-.13.1-.2.13l-.83.41c-.13.06-.24.15-.32.27a.721.721 0 000 .8c.08.12.19.21.32.27l.83.41c.08.03.14.07.2.13.06.05.11.12.14.19l.43.79c.07.13.17.23.29.3.12.07.27.11.41.11s.28-.04.41-.11a.76.76 0 00.29-.3l.43-.79c.09-.13.2-.24.33-.32z" fill="#cee3ff"/><circle cx="403.44" cy="176.74" r="2.1" fill="#e9f2ff"/><path d="M341.4 151.83h-46.63a4.34 4.34 0 00-4.27 3.54c-.05.27-.08.55-.08.83l.22 65.68v1.17l4 3.21 4.69-3.31 4.69 3.31 4.69-3.31 4.69 3.31 4.71-3.31 4.69 3.31 4.69-3.31 4.69 3.31 4.71-3.31 4.69 3.31 4.1-3.28.08-66.79c0-2.41-1.95-4.36-4.36-4.36z" fill="#b8daff"/><path d="M341.4 146.45h-46.63a4.34 4.34 0 00-4.27 3.54c-.05.27-.08.55-.08.83l.22 65.68v1.17l4 3.21 4.69-3.31 4.69 3.31 4.69-3.31 4.69 3.31 4.71-3.31 4.69 3.31 4.69-3.31 4.69 3.31 4.71-3.31 4.69 3.31 4.1-3.28.08-66.79c0-2.41-1.95-4.36-4.36-4.36z" fill="#fff"/><path d="M325.31 163.72h-3.04v-.05c-.03-.97-.31-1.92-.78-2.77h3.84c.19 0 .37-.05.56-.12.17-.07.34-.19.48-.31.14-.14.24-.29.31-.48.07-.17.1-.36.1-.54s-.03-.37-.1-.54c-.07-.17-.19-.32-.31-.46-.14-.14-.29-.24-.48-.31-.17-.07-.36-.1-.56-.1l-14.48.03c-.19 0-.37.03-.54.1-.17.07-.34.17-.48.31-.14.14-.24.29-.31.46-.07.17-.1.36-.1.54s.03.37.1.54c.07.17.19.32.31.46.14.14.29.24.48.31.17.07.36.1.54.1h6.25c2.29 0 2.36 2.8 2.36 2.8h-8.63c-.19 0-.37.05-.54.12-.17.07-.34.17-.48.31-.14.14-.24.29-.31.46-.07.17-.1.36-.1.54s.03.37.1.54c.07.17.19.32.31.46s.29.24.48.31c.17.07.36.1.54.1h8.61c.07 1.39-1.26 2.79-2.34 2.79h-5.61c-.31 0-.61.07-.87.22-.25.17-.46.41-.58.68-.1.29-.14.61-.1.92.03.31.14.61.29.87l9.79 10.91c.15.17.36.31.58.41s.46.14.7.14c.39-.03.75-.17 1.09-.36.32-.29.53-.7.56-1.12.03-.42-.1-.87-.39-1.19l-7.85-8.67h2.4c.66-.03 1.33-.19 1.94-.46.61-.27 1.16-.68 1.6-1.16.53-.53.93-1.14 1.21-1.82.29-.68.42-1.41.41-2.14h3.06c.19 0 .37-.05.54-.12.17-.07.34-.17.48-.31.14-.14.24-.29.31-.46.07-.17.1-.36.1-.54s-.03-.37-.1-.54c-.07-.17-.19-.32-.32-.46-.14-.14-.29-.24-.48-.31-.17-.07-.36-.1-.54-.1h.02z" fill="#2f8efd"/><path d="M310.54 195.57c-.34 0-.66-.07-.97-.19-.31-.12-.58-.31-.82-.53-.48-.46-.74-1.07-.74-1.72 0-.32.06-.63.19-.93.13-.29.32-.56.55-.78.24-.22.52-.41.82-.53.31-.12.65-.19.97-.19h27.34c.68 0 1.32.27 1.81.73.48.46.74 1.07.74 1.72s-.27 1.26-.74 1.72c-.48.46-1.13.71-1.81.71h-27.34v-.02zm0 10.03c-.34 0-.66-.07-.97-.19-.31-.12-.58-.31-.82-.53-.48-.46-.74-1.07-.74-1.72 0-.32.06-.63.19-.93.13-.29.32-.56.55-.78.24-.22.52-.41.82-.53.31-.12.65-.19.97-.19h27.34c.68 0 1.32.27 1.81.73.48.46.74 1.07.74 1.72s-.27 1.26-.74 1.72c-.48.46-1.13.71-1.81.71h-27.34v-.02z" fill="#9ec5fd"/><circle cx="300.24" cy="203.18" r="4.49" fill="#cee3ff"/><circle cx="300.24" cy="192.29" r="4.49" fill="#cee3ff"/><path fill="none" stroke="#2f8efd" stroke-linecap="round" stroke-miterlimit="10" stroke-width="1.95" d="M304.11 189.93l-4.26 4.23-1.85-2.26m6.11 8.73l-4.26 4.23-1.85-2.26"/><path d="M400.71 225.35c-.78-9.33-1.89-18.36-2.6-26.67L386.45 193c-10.17 9.21-20.28 13.74-32.63 18.28-1.05 11.49-2.04 24.25-1.68 36.69 0 0 34.71.06 40.27 0l-.03-22.62h8.33z" fill="#28a498"/><path d="M400.71 225.35h-8.33l.03 22.62c2.92-.03 9.19.03 9.19.03.8-10.09-.07-12.76-.89-22.65zm-22.36-39.3c-10.23-.35-19.33 1.67-25.2 6.52-6.26 5.17-9.41 15.79-12.22 31.05 6.25 3.68 13.87 4.88 18.21 5.25l19.22-42.82z" fill="#28a498"/><path d="M374.62 186.05c10.23-.35 19.33 1.67 25.2 6.52 6.26 5.17 9.41 15.79 12.22 31.05-6.25 3.68-8.6 4.17-12.94 4.54l-24.48-42.11z" fill="#28a498"/><path d="M399.1 228.16c0-4.22-.33-12.65-.5-19.09-.02-.74 1.07-.86 1.2-.12 1.14 6.21 2.03 14.32 2.17 18.6-1.16.3-1.71.32-2.87.61z" fill="#049486"/><path d="M375.11 183.72c-1.17 0-2.33-.29-3.35-.87-.74-.42-1.56-.96-2.08-1.52-2.71-2.95-5.22-5.5-5.33-10.22-.13-5.55-.27-9.33-.18-11.68.12-2.98 1.49-10.53 9.33-10.53h5.19c7.84 0 9.21 7.55 9.33 10.53.09 2.34-.05 6.13-.18 11.68-.11 4.72-2.62 7.27-5.33 10.22-.52.56-1.33 1.1-2.08 1.52-1.02.58-2.18.87-3.35.87h-1.96z" fill="#dfa060"/><path d="M386.22 164.15c1.51-.66 3.47-.01 4.28 1.42.29.51.44 1.08.51 1.65.14 1.06 0 2.19-.6 3.07-.79 1.15-2.22 1.67-3.59 1.97m-21.21-8.11c-1.51-.66-3.47-.01-4.28 1.42-.29.51-.44 1.08-.51 1.65-.14 1.06 0 2.19.6 3.07.79 1.15 2.22 1.67 3.59 1.97m5.76 6.53c-.05 3.32-.1 4.84-.15 8.17 1.55 1.73 3.54 2.76 5.75 2.82 2.22.06 4.44-.86 6.07-2.5-.07-3.41-.04-5.08-.11-8.49" fill="#dfa060"/><path d="M382.39 184.69c-.01-1.49-.02-2.99-.06-4.46h-11.56l-.09 4.62c3.72 1.29 8.04 1.23 11.71-.16z" fill="#bc8650"/><path d="M380.53 164.11c0 .66-.05 1.34.13 1.98.06.23.19.48.45.54.21.04.43-.08.54-.24.11-.16.14-.36.15-.55.04-.58.11-1.51-.16-2.34-.2-.6-1.13-.54-1.11.62z"/><path d="M362.51 156.06c.61 3.34.5 6.81.45 10.23-.06 4.3 0 7.52 1.72 11.47 1.71 3.94 5.47 6.1 9.78 6.08h2.83c4.31.02 8.07-2.14 9.78-6.08 1.71-3.94 1.79-7.17 1.72-11.47-.06-4.3 4.95-12-2.46-20.05-1.95-2.12-5.11-2.91-7.98-2.64-2.19.2-4.64-.35-6.66-1.21-3.02-1.27-5.73-3.7-9-3.72-2.71-.02-5.23 1.89-6.26 4.38-1.03 2.49-.67 5.43.63 7.8s3.06 3.95 5.46 5.2zm20.68 15.75c-3.85.62-11.6.57-14.62 0-2.26-.43-2.38-3.79-2.4-6.08-.02-2.29.39-4.59.05-6.85 2.19-.27 6.58-1.58 9.66-5.37 1.77 5.14 9.66 5.37 9.66 5.37-.34 2.26.07 4.56.05 6.85-.02 2.29-.13 5.71-2.4 6.08z" fill="#64250b"/><path d="M369.49 164.11c0 .66-.05 1.34.13 1.98.06.23.19.48.45.54.21.04.43-.08.54-.24.11-.16.14-.36.15-.55.04-.58.11-1.51-.16-2.34-.2-.6-1.13-.54-1.11.62z"/><path d="M374.28 174.63c-.16 0-.32-.01-.46.05-.24.11-.36.4-.33.67.03.26.17.5.34.71.75.96 2.03 1.54 3.22 1.27.92-.22 1.86-1.15 1.91-2.14.01-.31-.27-.56-.58-.56-1.36 0-2.72.06-4.1 0z" fill="#fff"/><path d="M375.32 161.94c-.76 2.75-1.15 5.05-1.83 7.78-.04.19-.09.38-.01.57.19.47.93.52 1.5.48.78-.06 1.69-.18 2.02-.78" fill="none" stroke="#915d21" stroke-linecap="round" stroke-linejoin="round" stroke-width="1.22"/><path d="M354.37 209.07c.02-.74-1.07-.86-1.2-.12-1.14 6.21-2.03 14.32-2.17 18.6 1.16.3 1.71.32 2.87.61l.5-19.09z" fill="#0b8047"/><path d="M371.24 217.79h11.38c1.4 0 2.53-1.13 2.53-2.52v-23.48c0-1.39-1.13-2.52-2.53-2.52h-11.38c-1.4 0-2.53 1.13-2.53 2.52v23.48c0 1.39 1.13 2.52 2.53 2.52z" fill="#3c4043"/><path d="M410.44 224.5s-5.33 2.17-11.33 3.66c-2.11-1.89-6.33-4.95-9.51-8.41-1.35-1.48-2.3-4.32-2.25-6.32.1-3.9-2.14-8.47-2.14-8.47-.02 1.08-.29 2.26-.51 3.05-.11.4-.63.5-.89.18l-7.15-9.08c-.2-.25-.48-.53-.78-.43-.4.13-.33.72-.16 1.12.61 1.47 2.31 5.52 3.11 7.45l-5.05-7.51c-.2-.25-.48-.53-.78-.43-.41.13-.33.72-.16 1.12.4.98 1.83 4.48 3.03 7.44l-3.91-5.8c-.2-.25-.48-.53-.78-.43-.4.13-.33.72-.16 1.12.67 1.62 2.57 6.38 3.32 7.95.01.02.02.05.04.07l-2.53-2.18c-.25-.19-.6-.39-.87-.21-.36.23-.06.74.14 1.12 3.07 5.86 9.83 11.3 9.83 11.3 3.95 6.89 6.14 13.17 10.63 18.39 1.52 1.77 3.3 3.41 5.5 4.91.94.73 1.88 1.35 2.74 1.68 2.67 1.04 4.99.78 7.31-.9 2.39-1.73 3.31-4.81 3.88-7.7.63-3.18-.06-8.63-.54-12.68z" fill="#dfa060"/><path d="M410.91 228.69c-.15-1.46-.32-2.9-.48-4.19 0 0-5.33 2.17-11.33 3.66l3.21 2.44c.72.55 1.64.74 2.52.54 1.64-.38 4.33-1.16 6.08-2.44z" fill="#d89651"/><path d="M410.91 228.69c-.15-1.46-.32-2.9-.48-4.19 0 0-5.33 2.17-11.33 3.66l3.21 2.44c.72.55 1.64.74 2.52.54 1.64-.38 4.33-1.16 6.08-2.44z" fill="#d89651"/><path d="M366.94 198.19c-.29-.33-.78-.24-1.19-.13-2.18.58-4.32 1.17-6.49 1.82-1.34.4-2.53 1.21-3.39 2.31l-.7.9c-.62.72-1.15 1.52-1.58 2.36l-6.13 21.08-4.67-1.91s-.2 1.17-.28 1.86v.07c-.08.69-.16 1.41-.23 2.13-.31 3.11-.5 6.33-.07 8.49.57 2.89 1.49 5.98 3.88 7.7 2.32 1.68 4.83 2.34 7.31.9 6.25-3.64 5.29-28.38 5.29-28.38 3.19-2.17 5.37-6.07 5.81-6.78.71-1.14.45-1.73-.03-2.7-.56-1.13-1.39-2.16-2.24-3.1-.65-.73-1.15-1.22-2.05-1.63-.25-.11-.53-.19-.81-.23l.03-.03c2.16-.97 4.35-2.06 6.5-3.03.43-.19.89-.41 1.11-.85.14-.28.14-.63-.07-.86z" fill="#dfa060"/><path d="M347.46 226.53l-4.67-1.91s-.2 1.17-.28 1.86v.07c-.08.69-.16 1.41-.23 2.13s0 .06 0 .06c1.14.82 2.65 1.43 4.02 1.85l1.19-4.1v.04z" fill="#d89651"/><path d="M275.94 239.34h-23.75c-.41 0-.79.16-1.08.44-.29.28-.45.67-.45 1.07v5.44c0 .4.16.79.45 1.07.29.28.68.44 1.08.44h23.75c.2 0 .4-.04.58-.11.19-.08.36-.19.5-.33s.25-.31.33-.49c.08-.18.12-.38.12-.58v-5.44c0-.2-.04-.4-.12-.58-.08-.18-.19-.35-.33-.49s-.31-.25-.5-.33a1.47 1.47 0 00-.58-.12zm-13.77 5.02c0 .2-.08.38-.22.52s-.33.22-.53.22h-6.98a.75.75 0 01-.75-.74v-1.57c0-.2.08-.39.22-.52s.33-.22.53-.22h6.98a.753.753 0 01.75.74v1.57zm5.8.03c-.16 0-.32-.05-.46-.14a.84.84 0 01-.35-.84c.03-.16.11-.3.23-.42.12-.11.26-.19.42-.22.16-.03.33-.02.48.05.15.06.28.17.37.3.09.13.14.29.14.45 0 .22-.09.42-.24.58-.16.15-.37.24-.58.24zm2.89 0c-.16 0-.32-.05-.46-.14a.84.84 0 01-.35-.84c.03-.16.11-.3.23-.42.12-.11.26-.19.42-.22.16-.03.33-.02.48.05.15.06.28.17.37.3.09.13.14.29.14.45 0 .22-.09.42-.24.58-.16.15-.37.24-.58.24zm2.9 0c-.16 0-.32-.05-.46-.14a.84.84 0 01-.35-.84c.03-.16.11-.3.23-.42.12-.11.26-.19.42-.22.16-.03.33-.02.48.05.15.06.28.17.37.3.09.13.14.29.14.45 0 .22-.09.42-.24.58-.16.15-.36.24-.58.24z" fill="#6dadfd"/><path d="M263.91 232.6h-4.26l-1.27 6.74h6.81l-1.27-6.74z" fill="#61d1ff"/><path d="M264.61 236.85h.1l-.81-4.25h-4.26l-.43 2.3c1.64 1.03 3.48 1.7 5.4 1.95z" fill="#009ad7"/><path d="M259.55 216.73c-.25-.24-.54-.43-.87-.54-.33-.11-.68-.15-1.02-.12-.35.04-.68.15-.97.33-.29.18-.54.43-.73.72a12.138 12.138 0 001.77 15.07 12.4 12.4 0 007.3 3.5c2.76.32 5.55-.3 7.91-1.75.29-.18.54-.43.73-.72.18-.29.3-.62.34-.96.04-.34 0-.69-.12-1.01-.11-.32-.3-.62-.55-.86l-13.78-13.65z" fill="#6dadfd"/><path d="M265.59 222.9l2.07 2.05 4.39-5.2-1.21-1.2-5.25 4.35z" fill="#61d1ff"/><path d="M271.65 220.77c1.01 0 1.84-.81 1.84-1.82s-.82-1.82-1.84-1.82-1.83.81-1.83 1.82.82 1.82 1.83 1.82z" fill="#ffa000"/><path d="M268.34 224.15l-1.94-1.92-.81.67 2.07 2.05.67-.8z" fill="#009ad7"/><path d="M261.42 242.05h-6.98c-.41 0-.75.33-.75.74v1.57c0 .41.33.74.75.74h6.98c.41 0 .75-.33.75-.74v-1.57a.74.74 0 00-.75-.74z" fill="#0070fb"/><path d="M267.97 244.39c-.16 0-.32-.05-.46-.14a.84.84 0 01-.35-.84c.03-.16.11-.3.23-.42.12-.11.26-.19.42-.22.16-.03.33-.02.48.05.15.06.28.17.37.3.09.13.14.29.14.45 0 .22-.09.42-.24.58-.16.15-.37.24-.58.24zm2.89 0c-.16 0-.32-.05-.46-.14a.84.84 0 01-.35-.84c.03-.16.11-.3.23-.42.11-.11.26-.19.42-.22.16-.03.33-.02.48.05.15.06.28.17.37.3.09.13.14.29.14.45 0 .22-.09.42-.24.58-.16.15-.37.24-.58.24zm2.9 0c-.16 0-.32-.05-.46-.14a.84.84 0 01-.35-.84c.03-.16.11-.3.23-.42.11-.11.26-.19.42-.22.16-.03.33-.02.48.05.15.06.28.17.37.3.09.13.14.29.14.45 0 .22-.09.42-.24.58-.16.15-.36.24-.58.24z" fill="#fff"/><path d="M199.16 239.38l40.23-1.36-7.19-24.59h-25.7l-7.34 25.94z" fill="#fffaee"/><path d="M239.39 238.02l-7.19-24.59h-25.7l.37.06a43.455 43.455 0 0132.52 24.53z" fill="#fec"/><path fill="#ffdcda" d="M210.35 233.16h18.38v7.76h-18.38z"/><path d="M213.02 210.72c-2.81.28-4.51.67-5.53 1.27-.98.57-1.48 1.14-2.53 2.88-1.32 2.15-2.07 4.05-2.94 7.34l-.12.45-.53-.79c-.94-1.43-1.79-1.93-3.27-1.94-1.16 0-1.5.17-1.77.87-.25.63-.2 2.6.08 3.02.4.61.55.65 2.86.67 1.17.03 2.12.05 2.12.08s-.22.28-.53.57c-1.23 1.25-2.16 2.81-2.64 4.34-.42 1.31-.53 2.63-.38 4.8.22 3.81.54 5.81 1.15 7.31.42 1.03.73 1.45 1.33 1.73l.49.22.05 1.62c.07 1.89.17 2.19.87 2.52.37.17.7.2 2.22.2 1.64 0 1.82-.03 2.24-.24.7-.34.83-.7.83-2.15v-1.19l1.17.07c.65.04 2.19.13 3.42.2 2.9.16 12.96.16 15.86 0 1.23-.08 2.77-.16 3.41-.2l1.17-.07.03 1.29c.05 1.5.16 1.77.86 2.09.37.17.7.2 2.22.2s1.83-.03 2.22-.2c.7-.33.81-.62.87-2.52l.05-1.62.49-.22c.29-.15.62-.41.81-.66.37-.51.87-1.87 1.1-2.97.42-2.07.75-6.76.58-8.34-.26-2.34-1.28-4.45-3.02-6.23-.29-.29-.53-.55-.53-.57s.95-.05 2.12-.08c1.81-.03 2.16-.07 2.4-.22.53-.34.65-.65.69-1.87.04-1.36-.12-1.95-.66-2.27-.46-.28-2.02-.28-2.65 0-.71.33-1.35.91-1.9 1.76l-.51.78-.12-.45c-.67-2.57-1.2-4.04-2.09-5.78-.84-1.68-1.77-3.08-2.43-3.72-1.24-1.19-3.56-1.79-7.89-2.07-1.89-.12-10.2-.04-11.65.11h-.01zm12.53 2.91c2.96.3 5.2.84 5.68 1.37.37.38 1.56 2.72 2.14 4.17.45 1.15 1.12 3.29 1.27 4.1.08.37.08.38-.22.33-.49-.08-4.61-.36-7.09-.46-7.22-.33-14.36-.21-21.27.34-.86.07-1.57.08-1.6.04-.08-.13.54-2.38 1.02-3.67.53-1.43 1.99-4.43 2.38-4.86.51-.54 2.65-1.07 5.7-1.37 2.76-.28 9.29-.28 12.01 0zm10.6 15.68c1.57 1.61 1.1 4.29-.92 5.28-.78.38-1.99.42-2.76.07-.73-.33-1.37-.98-1.7-1.72-.25-.57-.28-.74-.24-1.49.08-1.36.7-2.3 1.91-2.84 1.29-.58 2.72-.32 3.71.7zm-29.11-.5c.59.34.98.79 1.32 1.52.34.75.3 2.01-.08 2.77-.32.62-1 1.27-1.65 1.57-.77.36-1.97.33-2.76-.07-.33-.17-.78-.5-1.02-.78-1.48-1.66-.92-4.3 1.07-5.2 1.06-.48 2.11-.41 3.11.18zm12.45 6.03c7.62 0 7.44 0 7.73.53.33.62.11 1.15-.98 2.26-1 1.02-.62.98-6.72.98s-5.71.05-6.72-.98c-1.25-1.29-1.43-1.98-.66-2.6.2-.17.74-.18 7.31-.17h.03z" fill="#ffa000"/><path d="M232.06 244.31l.02 1.26c.05 1.52.16 1.78.86 2.1.37.17.71.2 2.24.2s1.85-.03 2.23-.2c.7-.33.81-.63.88-2.54l.05-1.55-.08-.03-6.21.76zm-30.31 3.36c.37.17.7.2 2.23.2 1.65 0 1.84-.03 2.26-.24.7-.35.84-.7.84-2.17v-1.12l-.08-.02-6.18-.76.05 1.57c.07 1.9.17 2.21.88 2.54z" fill="#757575"/><rect x="373.85" y="89.03" width="28.64" height="37.23" rx="6.21" ry="6.21" transform="rotate(-180 388.175 107.645)" fill="#b8daff"/><path d="M389.72 131.79v-7.26h-7.52l5.18 8.32c.78 1.25 2.34.54 2.34-1.06z" fill="#b8daff"/><path d="M402.5 95.24a6.21 6.21 0 00-6.21-6.21h-16.22a6.21 6.21 0 00-6.21 6.21v24.64h28.64V95.24z" fill="#cee3ff"/><rect x="369.98" y="87.1" width="28.64" height="37.23" rx="6.21" ry="6.21" transform="rotate(-180 384.3 105.72)" fill="#9fc7ff"/><path d="M385.85 129.87v-7.26h-7.52l5.18 8.32c.78 1.25 2.34.54 2.34-1.06z" fill="#9fc7ff"/><path d="M391.35 97.09h-12.69v11.01h12.69V97.09z" fill="#fff"/><path d="M383.65 91.17l-6.87 6.02c-.58.51-.22 1.47.56 1.47h15.32c.78 0 1.14-.96.56-1.47l-6.87-6.02c-.77-.68-1.93-.68-2.71 0z" fill="#e06e6d"/><path d="M385 99.76a2.48 2.48 0 012.48 2.48v5.86h-4.96v-5.86a2.48 2.48 0 012.48-2.48z" fill="#c3c5c3"/><path fill="#fff" d="M384.95 93.35l-6.29 5.37v.81h12.69v-.83l-6.4-5.35z"/><path fill="none" stroke="#cee3ff" stroke-linecap="round" stroke-miterlimit="10" stroke-width="1.73" d="M377.03 113.26h15.95m-15.95 4.19h15.95"/><path d="M350.98 139.2c8.38-3.98 11.34-9.7 12.14-14.91.14-1.08.28-2.81.28-3.52v-8.76l-12.43-4.12-12.38 4.12v8.76c0 .7.09 2.44.28 3.52.71 5.2 3.72 10.97 12.1 14.91z" fill="#33d0c5"/><path d="M354.75 119.98h-1.32v-1.59c0-1.27-1.04-2.25-2.26-2.25s-2.26 1.03-2.26 2.25v1.59h-1.32v-1.59c0-1.97 1.6-3.56 3.58-3.56s3.58 1.59 3.58 3.56v1.59z" fill="#e6edfa"/><path d="M353.43 118.39v1.59h1.32v-1.69h-1.32v.09zm-4.57 0v-.09h-1.32v1.69h1.32v-1.59z" fill="#d2e0f7"/><path d="M357.1 128.28v-8.01c0-.61-.47-1.08-1.08-1.08h-9.79c-.61 0-1.08.47-1.08 1.08v8.06c0 .61.47 1.08 1.08 1.08h9.79c.61-.05 1.08-.52 1.08-1.12z" fill="#f9faff"/><path d="M351.12 124.49c.57 0 1.04-.46 1.04-1.03s-.46-1.03-1.04-1.03a1.03 1.03 0 100 2.06z" fill="#049486"/><path d="M351.74 126.13h-1.22l.19-2.06h.85l.19 2.06z" fill="#049486"/><rect x="253.85" y="168.44" width="26.75" height="34.24" rx="5.8" ry="5.8" transform="rotate(-180 267.23 185.565)" fill="#b8daff"/><rect x="253.85" y="165.97" width="26.75" height="34.24" rx="5.8" ry="5.8" transform="rotate(-180 267.23 183.095)" fill="#9fc7ff"/><path fill="none" stroke="#cee3ff" stroke-linecap="round" stroke-miterlimit="10" stroke-width="1.61" d="M259.89 189.82h14.89m-14.89 3.91h14.89"/><path d="M274.39 172.79h-14.11c-.94 0-1.71.76-1.71 1.69v8.03c0 .93.76 1.69 1.71 1.69h14.11c.94 0 1.71-.76 1.71-1.69v-8.03c0-.93-.76-1.69-1.71-1.69z" fill="#ffdd8d"/><path d="M261.13 180.58h-.6c-.14 0-.26.12-.26.26v1c0 .14.12.26.26.26h.6c.14 0 .26-.12.26-.26v-1c0-.14-.12-.26-.26-.26z" fill="#ffa000"/><path d="M260.28 172.79c-.94 0-1.71.76-1.71 1.69v8.03c0 .93.76 1.69 1.71 1.69h4.98c2.91-3.19 4.7-8.16 5.62-11.41h-10.6z" fill="#fec"/><path d="M262.65 180.59h-.6c-.14 0-.26.12-.26.26v1c0 .14.12.26.26.26h.6c.14 0 .26-.12.26-.26v-1c0-.14-.12-.26-.26-.26zm1.53 0h-.6c-.14 0-.26.12-.26.26v1c0 .14.12.26.26.26h.6c.14 0 .26-.12.26-.26v-1c0-.14-.12-.26-.26-.26zm1.53 0h-.6c-.14 0-.26.12-.26.26v1c0 .14.12.26.26.26h.6c.14 0 .26-.12.26-.26v-1c0-.14-.12-.26-.26-.26zm3.78 0h-.6c-.14 0-.26.12-.26.26v1c0 .14.12.26.26.26h.6c.14 0 .26-.12.26-.26v-1c0-.14-.12-.26-.26-.26zm1.52 0h-.6c-.14 0-.26.12-.26.26v1c0 .14.12.26.26.26h.6c.14 0 .26-.12.26-.26v-1c0-.14-.12-.26-.26-.26zm1.53 0h-.6c-.14 0-.26.12-.26.26v1c0 .14.12.26.26.26h.6c.14 0 .26-.12.26-.26v-1c0-.14-.12-.26-.26-.26zm1.52 0h-.6c-.14 0-.26.12-.26.26v1c0 .14.12.26.26.26h.6c.14 0 .26-.12.26-.26v-1c0-.14-.12-.26-.26-.26zm-11.46-6.13h-1.86c-.29 0-.53.23-.53.52v.9c0 .29.24.52.53.52h1.86c.29 0 .53-.23.53-.52v-.9c0-.29-.24-.52-.53-.52z" fill="#ffa000"/><path d="M325.16 135.38h-18.7c-3.95 0-7.16-3.21-7.16-7.16v-22.66c0-4.27 3.46-7.73 7.73-7.73h17.55c4.27 0 7.73 3.46 7.73 7.73v22.66c0 3.95-3.21 7.16-7.16 7.16z" fill="#b8daff"/><path d="M325.66 140.2v-6.55h-6.79l4.68 7.5c.7 1.12 2.11.49 2.11-.95z" fill="#b8daff"/><path d="M332.32 105.57c0-3.95-3.2-7.73-7.16-7.73h-18.7c-3.95 0-7.16 3.78-7.16 7.73l1.35 26.68c10.28-5.88 20-6.38 31.66-9.62v-17.06z" fill="#cee3ff"/><rect x="296.65" y="95.17" width="33.01" height="37.55" rx="7.16" ry="7.16" transform="rotate(-180 313.15 113.95)" fill="#fff"/><path d="M323 137.54v-6.55h-6.79l4.68 7.5c.7 1.12 2.11.49 2.11-.95z" fill="#fff"/><path d="M320.51 110.18c0-4.06-3.29-7.93-7.36-7.93s-7.36 3.87-7.36 7.93c0 2.33 1.08 4.4 2.77 5.75l.49.63a4.832 4.832 0 011.02 3.32h6.15c-.07-1.16.23-2.29 1.02-3.32l.49-.63a7.334 7.334 0 002.77-5.75z" fill="#ffdd8d"/><path d="M313.15 102.25c-4.06 0-7.36 3.87-7.36 7.93 0 2.33 1.08 4.4 2.77 5.75l.39.51 9.12-12.03c-1.15-1.34-3.1-2.16-4.94-2.16z" fill="#fec"/><path d="M310.8 123.62h4.71c0 .75-.61 1.35-1.35 1.35h-2c-.75 0-1.35-.61-1.35-1.35z" fill="#9fc7ff"/><path d="M310.59 111.22l1.6.38c.06.01.12.05.15.11.03.05.04.12.03.18l-.71 2.94c-.01.05 0 .11.02.16s.06.09.11.11c.05.02.11.03.16.02.05-.01.1-.04.14-.09l3.77-4.71s.04-.07.05-.11v-.12c-.01-.04-.04-.07-.07-.1a.238.238 0 00-.11-.06l-1.6-.38c-.06-.02-.12-.05-.15-.11-.03-.05-.04-.12-.03-.18l.71-2.94c.01-.05 0-.11-.02-.16a.198.198 0 00-.11-.11.297.297 0 00-.16-.02c-.05.01-.1.04-.14.09l-3.77 4.71s-.04.07-.05.11v.12c.01.04.04.07.07.1.03.03.07.05.11.06z" fill="#ffa000"/><path fill="#61d1ff" d="M310.04 120.65h6.15v1.98h-6.15z"/><rect x="309.63" y="121.95" width="7.04" height="1.97" rx=".83" ry=".83" fill="#b7e7ff"/><rect x="309.63" y="119.49" width="7.04" height="1.97" rx=".83" ry=".83" fill="#b7e7ff"/><path d="M307.01 235.11l.94-.46c.15-.07.27-.17.36-.31a.798.798 0 000-.9.905.905 0 00-.36-.31l-.94-.46a.678.678 0 01-.23-.14.541.541 0 01-.15-.22l-.49-.89a.856.856 0 00-.34-.34c-.14-.08-.3-.13-.46-.13s-.32.04-.46.13c-.14.08-.26.2-.34.34l-.49.89c-.04.08-.09.16-.15.22-.07.06-.14.11-.23.14l-.94.46a.833.833 0 00-.49.76c0 .16.05.32.13.45.09.13.21.24.36.31l.94.46a.678.678 0 01.39.36l.49.89c.08.14.19.26.33.35.14.08.3.13.47.13s.32-.04.46-.13c.14-.08.26-.2.33-.35l.49-.89c.1-.15.23-.27.38-.36zm-9.18 5.62l.67-.33c.1-.05.19-.12.26-.22.06-.1.1-.21.1-.32s-.03-.23-.1-.32a.562.562 0 00-.26-.22l-.67-.33a.435.435 0 01-.16-.1c-.05-.04-.08-.1-.11-.16l-.34-.63a.69.69 0 00-.24-.24c-.1-.06-.21-.09-.33-.09s-.23.03-.33.09a.69.69 0 00-.24.24l-.34.63c-.03.06-.06.11-.11.16-.05.04-.1.08-.16.1l-.67.33a.59.59 0 00-.25.22c-.06.1-.1.21-.1.32s.03.22.1.32c.06.1.15.17.25.22l.67.33c.06.02.12.06.16.1.05.04.08.1.11.16l.34.63c.06.1.14.19.24.24.1.06.21.09.33.09s.23-.03.33-.09.18-.14.24-.24l.34-.63c.07-.1.16-.19.27-.26z" fill="#fffaee"/><circle cx="125.17" cy="207" r="14" fill="#015ace"/><path d="M126.84 202l-1.18 1.18 2.98 2.99H118.5v1.67h10.14l-2.98 2.99 1.18 1.18 5-5-5-5z" fill="#fff"/><path d="M27.42 211.54c-.8-.46-1.44-1.08-1.91-1.88s-.71-1.69-.71-2.67.24-1.87.71-2.67 1.11-1.43 1.91-1.88 1.68-.69 2.63-.69c.77 0 1.47.14 2.11.41.64.27 1.19.65 1.64 1.13l-1.06 1.06c-.68-.77-1.58-1.15-2.69-1.15-.65 0-1.26.16-1.83.47a3.5 3.5 0 00-1.36 1.34c-.34.58-.5 1.24-.5 1.97s.17 1.41.51 1.98c.34.57.79 1.02 1.36 1.33.56.31 1.18.47 1.84.47 1.05 0 1.91-.33 2.58-.99.21-.21.39-.47.54-.78s.25-.67.3-1.05h-3.44v-1.36h4.87c.06.32.08.59.08.81 0 .63-.1 1.24-.3 1.81-.2.57-.51 1.08-.93 1.52-.45.49-.98.86-1.61 1.11-.63.26-1.33.39-2.1.39-.95 0-1.83-.23-2.63-.69zm10.7.19c-.56-.33-.99-.78-1.3-1.35-.31-.57-.47-1.22-.47-1.94 0-.68.15-1.31.46-1.9.3-.58.73-1.05 1.27-1.39.54-.35 1.15-.52 1.83-.52.72 0 1.34.16 1.86.47s.92.74 1.2 1.29.41 1.18.41 1.88c0 .19 0 .35-.03.48h-5.52c.06.68.31 1.21.73 1.58.42.37.91.55 1.47.55.46 0 .85-.1 1.18-.31.33-.21.59-.49.78-.83l1.25.6c-.33.59-.76 1.05-1.3 1.39-.54.34-1.19.5-1.95.5-.69 0-1.31-.16-1.87-.49zm3.76-4.11a1.839 1.839 0 00-.9-1.43c-.28-.17-.64-.26-1.06-.26-.5 0-.93.15-1.28.46-.35.31-.59.72-.72 1.23h3.96zm5 4.45c-.28-.1-.5-.24-.68-.42-.4-.39-.6-.94-.6-1.65v-3.82h-1.25v-1.32h1.25v-2.02h1.51v2.02h1.75v1.32h-1.75v3.52c0 .4.07.68.22.85.16.18.4.27.73.27.17 0 .31-.02.43-.06s.26-.11.41-.2v1.47c-.32.14-.7.21-1.13.21-.32 0-.61-.05-.89-.15zm7.87-.38c-.53-.35-.9-.82-1.11-1.39l1.36-.59c.17.38.41.67.71.88.31.2.66.3 1.05.3s.74-.07 1.01-.22c.27-.14.41-.36.41-.65 0-.26-.12-.47-.34-.62s-.59-.29-1.07-.4l-.85-.2c-.57-.14-1.04-.39-1.41-.74s-.56-.8-.56-1.34c0-.41.12-.78.37-1.09.25-.32.58-.56.99-.73.42-.17.87-.26 1.36-.26.67 0 1.26.13 1.76.39s.86.64 1.09 1.15l-1.3.59c-.29-.57-.8-.85-1.53-.85-.36 0-.65.08-.89.22-.24.15-.36.34-.36.56 0 .42.36.72 1.09.91l1.04.25c.7.18 1.23.44 1.59.8s.54.79.54 1.32c0 .45-.13.84-.38 1.18-.26.34-.61.6-1.06.79-.45.19-.94.28-1.48.28-.81 0-1.48-.18-2.01-.53zm8.5.38c-.28-.1-.5-.24-.68-.42-.4-.39-.6-.94-.6-1.65v-3.82h-1.25v-1.32h1.25v-2.02h1.51v2.02h1.75v1.32h-1.75v3.52c0 .4.07.68.22.85.16.18.4.27.73.27.17 0 .31-.02.43-.06s.26-.11.41-.2v1.47c-.32.14-.7.21-1.13.21-.32 0-.61-.05-.89-.15zm4.46-.15c-.4-.2-.71-.48-.94-.85-.22-.36-.34-.78-.34-1.25 0-.49.13-.92.39-1.28s.62-.63 1.06-.83c.45-.19.95-.29 1.5-.29.42 0 .8.04 1.14.12.34.08.61.17.82.27v-.38c0-.46-.17-.83-.5-1.11-.34-.28-.77-.43-1.3-.43-.36 0-.71.08-1.04.25s-.59.38-.78.67l-1.04-.8c.31-.44.72-.78 1.23-1.02s1.07-.36 1.67-.36c1.03 0 1.82.25 2.39.76s.85 1.22.85 2.13v4.47h-1.47v-.88h-.08c-.21.32-.5.58-.88.79s-.82.32-1.3.32c-.51 0-.97-.1-1.37-.3zm2.66-1.2c.31-.18.55-.43.72-.74.17-.31.26-.64.26-.99-.22-.13-.48-.23-.77-.31-.29-.08-.59-.11-.91-.11-.59 0-1.02.12-1.29.35-.28.23-.41.54-.41.92 0 .34.13.61.38.83.25.21.59.32 1.01.32.37 0 .71-.09 1.02-.27zm4.4-5.86h1.43v1.05h.08c.18-.38.46-.65.86-.81.4-.16.82-.24 1.28-.24.25 0 .45.02.59.06v1.51c-.19-.07-.44-.1-.76-.1-.6 0-1.08.19-1.44.55-.36.37-.54.87-.54 1.5v3.61h-1.51v-7.14zm7.71 7.1c-.27-.1-.49-.24-.67-.41-.41-.38-.62-.92-.62-1.62v-3.75h-1.25v-1.32h1.25v-2.02h1.51v2.02h1.75v1.32H82.7v3.43c0 .39.07.67.22.83.16.18.4.27.73.27.17 0 .31-.02.43-.06s.26-.11.41-.2v1.47c-.32.14-.69.21-1.12.21-.33 0-.63-.05-.9-.15zm4.84-.23c-.56-.33-.99-.78-1.3-1.35-.31-.57-.47-1.22-.47-1.94 0-.68.15-1.31.46-1.9.3-.58.73-1.05 1.27-1.39.54-.35 1.15-.52 1.83-.52.72 0 1.34.16 1.86.47s.92.74 1.2 1.29.41 1.18.41 1.88c0 .19 0 .35-.03.48h-5.52c.06.68.31 1.21.73 1.58.42.37.91.55 1.47.55.46 0 .85-.1 1.18-.31.33-.21.59-.49.78-.83l1.25.6c-.33.59-.76 1.05-1.3 1.39-.54.34-1.19.5-1.95.5-.69 0-1.31-.16-1.87-.49zm3.76-4.11a1.839 1.839 0 00-.9-1.43c-.28-.17-.64-.26-1.06-.26-.5 0-.93.15-1.28.46-.35.31-.59.72-.72 1.23h3.96zm4.54 4.12c-.52-.32-.93-.77-1.23-1.35-.3-.58-.45-1.23-.45-1.96s.15-1.38.45-1.95c.3-.57.71-1.02 1.23-1.35a3.21 3.21 0 011.75-.49c.52 0 .99.11 1.39.34.4.23.7.51.91.85h.08l-.08-.99v-2.86h1.5V212h-1.41v-.95h-.08c-.21.33-.51.6-.91.83-.4.23-.86.34-1.39.34-.64 0-1.23-.16-1.75-.48zm3.04-1.2c.33-.2.6-.48.8-.85.2-.36.3-.78.3-1.26s-.1-.9-.3-1.26c-.2-.36-.47-.65-.8-.85-.33-.2-.68-.3-1.06-.3s-.73.1-1.06.3c-.33.2-.6.48-.8.85-.2.36-.3.78-.3 1.26s.1.9.3 1.26c.2.36.47.65.8.85.33.2.68.3 1.06.3s.73-.1 1.06-.3z" fill="#005cd5"/><path d="M25.77 124.2h1.89v13.97h6.97v1.78h-8.87V124.2zm12.83 15.33a5.424 5.424 0 01-2.02-2.12c-.48-.9-.72-1.92-.72-3.05 0-1.07.23-2.06.68-2.98.45-.92 1.1-1.65 1.94-2.19.84-.54 1.8-.81 2.89-.81s2.08.25 2.9.74c.82.49 1.44 1.17 1.88 2.04.44.87.66 1.86.66 2.97 0 .18-.01.37-.04.57h-9c.04.85.25 1.57.62 2.16s.84 1.03 1.42 1.32c.57.29 1.17.44 1.79.44 1.48 0 2.61-.67 3.36-2.02l1.6.77c-.48.89-1.14 1.61-1.98 2.14s-1.86.8-3.05.8c-1.08 0-2.06-.26-2.92-.77zm6.2-6.38a3.58 3.58 0 00-.4-1.41c-.24-.47-.61-.87-1.11-1.19-.51-.32-1.14-.48-1.92-.48-.89 0-1.65.28-2.27.85s-1.03 1.31-1.23 2.23h6.93zm6.96 6.93c-.39-.15-.72-.35-.99-.61-.59-.57-.89-1.35-.89-2.35v-6.7H47.9v-1.69h1.98v-3.17h1.89v3.17h2.79v1.69h-2.79v6.25c0 .63.12 1.09.36 1.39.28.33.69.5 1.22.5.46 0 .88-.12 1.25-.37v1.83c-.22.1-.45.18-.68.22s-.52.07-.88.07c-.46 0-.89-.08-1.28-.22zm13.52-.85a8.092 8.092 0 01-3.01-2.97c-.74-1.26-1.11-2.66-1.11-4.18s.37-2.92 1.11-4.18c.74-1.26 1.75-2.25 3.01-2.97s2.64-1.08 4.14-1.08c1.17 0 2.28.21 3.31.62 1.03.41 1.88.99 2.55 1.74l-1.34 1.34c-.52-.62-1.17-1.09-1.96-1.42s-1.63-.49-2.54-.49c-1.11 0-2.16.27-3.14.8s-1.76 1.29-2.35 2.27c-.59.98-.88 2.1-.88 3.38s.29 2.4.88 3.38c.59.98 1.37 1.73 2.35 2.27s2.03.8 3.14.8 1.96-.17 2.68-.5 1.34-.77 1.86-1.31c.39-.41.7-.91.94-1.49s.39-1.22.45-1.92h-5.9v-1.74h7.67c.07.41.11.79.11 1.14 0 .97-.16 1.91-.47 2.83-.31.92-.81 1.72-1.49 2.41-1.47 1.57-3.42 2.35-5.86 2.35-1.5 0-2.88-.36-4.14-1.08zm16.51.28c-.89-.53-1.59-1.25-2.08-2.16s-.75-1.91-.75-3.01.25-2.1.75-3.01c.5-.91 1.19-1.63 2.08-2.16.89-.53 1.89-.79 3.01-.79s2.12.26 3.01.79c.89.53 1.59 1.25 2.08 2.16.5.91.75 1.91.75 3.01s-.25 2.1-.75 3.01-1.19 1.63-2.08 2.16c-.89.53-1.89.79-3.01.79s-2.12-.26-3.01-.79zm4.95-1.42c.6-.34 1.08-.84 1.45-1.49.36-.65.55-1.4.55-2.27s-.18-1.62-.55-2.27c-.36-.64-.85-1.14-1.45-1.48-.6-.34-1.25-.52-1.95-.52s-1.35.17-1.96.52-1.1.84-1.46 1.48c-.37.65-.55 1.4-.55 2.27s.18 1.62.55 2.27c.36.65.85 1.14 1.46 1.49s1.26.52 1.96.52 1.35-.17 1.95-.52zm8.33 1.42a5.536 5.536 0 01-2.08-2.16c-.5-.91-.75-1.91-.75-3.01s.25-2.1.75-3.01c.5-.91 1.19-1.63 2.08-2.16.89-.53 1.89-.79 3.01-.79s2.12.26 3.01.79c.89.53 1.58 1.25 2.08 2.16.5.91.75 1.91.75 3.01s-.25 2.1-.75 3.01c-.5.91-1.19 1.63-2.08 2.16-.89.53-1.89.79-3.01.79s-2.12-.26-3.01-.79zm4.96-1.42c.6-.34 1.08-.84 1.45-1.49s.55-1.4.55-2.27-.18-1.62-.55-2.27c-.36-.64-.85-1.14-1.45-1.48s-1.25-.52-1.95-.52-1.35.17-1.96.52c-.61.34-1.1.84-1.46 1.48-.36.65-.54 1.4-.54 2.27s.18 1.62.54 2.27c.36.65.85 1.14 1.46 1.49.61.34 1.26.52 1.96.52s1.35-.17 1.95-.52zm7.77 6.04c-.87-.62-1.45-1.36-1.75-2.22l1.74-.73c.24.65.65 1.17 1.24 1.57.59.4 1.28.6 2.08.6 1.17 0 2.08-.32 2.73-.97.65-.65.97-1.57.97-2.77v-1.25h-.09c-.37.57-.9 1.04-1.57 1.4-.68.36-1.44.54-2.31.54-.98 0-1.88-.25-2.69-.76-.81-.5-1.45-1.21-1.93-2.11-.48-.9-.71-1.94-.71-3.09s.24-2.17.71-3.08 1.12-1.62 1.93-2.12c.81-.5 1.71-.76 2.69-.76.86 0 1.63.18 2.31.54.68.36 1.2.83 1.57 1.42h.09v-1.61h1.8v10.78c0 1.8-.5 3.18-1.51 4.12-1.01.95-2.34 1.42-3.99 1.42-1.34 0-2.44-.31-3.31-.92zm5.17-6.03c.56-.34 1-.83 1.34-1.47s.5-1.4.5-2.28-.17-1.66-.5-2.3-.78-1.13-1.34-1.46c-.56-.33-1.18-.5-1.86-.5s-1.31.17-1.87.51c-.56.34-1.01.83-1.35 1.48s-.5 1.4-.5 2.28.17 1.64.5 2.29.78 1.14 1.35 1.47c.56.34 1.19.5 1.87.5s1.3-.17 1.86-.51zm6.45-13.9h1.89v15.75h-1.89V124.2zm6.73 15.33a5.355 5.355 0 01-2.02-2.12c-.48-.9-.72-1.92-.72-3.05 0-1.07.23-2.06.68-2.98.45-.92 1.1-1.65 1.94-2.19.84-.54 1.8-.81 2.89-.81s2.08.25 2.9.74c.82.49 1.44 1.17 1.88 2.04.44.87.66 1.86.66 2.97 0 .18-.01.37-.04.57h-9c.04.85.25 1.57.62 2.16.37.59.84 1.03 1.41 1.32.57.29 1.17.44 1.79.44 1.49 0 2.61-.67 3.36-2.02l1.61.77c-.48.89-1.14 1.61-1.98 2.14-.85.54-1.86.8-3.05.8-1.08 0-2.06-.26-2.92-.77zm6.2-6.38a3.58 3.58 0 00-.4-1.41c-.24-.47-.61-.87-1.11-1.19s-1.14-.48-1.92-.48c-.89 0-1.65.28-2.27.85-.62.56-1.03 1.31-1.23 2.23h6.93zm10.29 6.31c-.82-.56-1.4-1.29-1.74-2.17l1.69-.75c.28.67.7 1.2 1.26 1.56.56.37 1.17.55 1.84.55.71 0 1.32-.14 1.83-.43s.76-.69.76-1.22c0-.47-.2-.85-.6-1.13s-1.03-.53-1.89-.74l-1.38-.35c-.91-.22-1.65-.59-2.23-1.12-.58-.53-.87-1.21-.87-2.05 0-.65.2-1.21.59-1.71.39-.49.92-.87 1.57-1.13s1.36-.4 2.12-.4c1 0 1.88.21 2.66.64.78.43 1.33 1.02 1.66 1.78l-1.65.75c-.5-1-1.4-1.5-2.7-1.5-.62 0-1.17.14-1.64.43s-.7.65-.7 1.09c0 .41.16.75.49 1 .33.26.82.47 1.47.63l1.65.42c1.11.28 1.95.69 2.52 1.24s.85 1.22.85 2.01c0 .69-.2 1.29-.6 1.82s-.94.92-1.63 1.2c-.68.28-1.44.42-2.27.42-1.22 0-2.24-.28-3.05-.85zm11.88.07a5.424 5.424 0 01-2.02-2.12c-.48-.9-.72-1.92-.72-3.05 0-1.07.23-2.06.68-2.98.45-.92 1.1-1.65 1.94-2.19.84-.54 1.8-.81 2.88-.81s2.08.25 2.9.74c.82.49 1.45 1.17 1.88 2.04s.66 1.86.66 2.97c0 .18-.02.37-.04.57h-9c.04.85.25 1.57.62 2.16.37.59.84 1.03 1.42 1.32.57.29 1.17.44 1.79.44 1.49 0 2.61-.67 3.37-2.02l1.6.77c-.48.89-1.14 1.61-1.98 2.14s-1.86.8-3.05.8c-1.08 0-2.06-.26-2.92-.77zm6.19-6.38a3.58 3.58 0 00-.4-1.41c-.24-.47-.61-.87-1.12-1.19-.5-.32-1.14-.48-1.92-.48-.89 0-1.65.28-2.27.85s-1.03 1.31-1.23 2.23h6.93zm6.96 6.93c-.39-.15-.72-.35-.99-.61-.59-.57-.89-1.35-.89-2.35v-6.7h-1.98v-1.69h1.98v-3.17h1.89v3.17h2.79v1.69h-2.79v6.25c0 .63.12 1.09.36 1.39.28.33.69.5 1.22.5.46 0 .88-.12 1.25-.37v1.83c-.22.1-.45.18-.68.22s-.52.07-.88.07c-.46 0-.89-.08-1.28-.22zm11.23-.96c-.72-.79-1.08-1.9-1.08-3.32v-7.06h1.89v6.78c0 1.07.24 1.86.73 2.35.49.5 1.15.75 1.98.75.64 0 1.21-.17 1.7-.51.5-.34.88-.78 1.16-1.32.27-.54.41-1.11.41-1.72v-6.34h1.89v11.22h-1.8v-1.63h-.09c-.31.56-.81 1.03-1.49 1.41s-1.41.57-2.18.57c-1.37 0-2.41-.4-3.13-1.19zm11.42-10.39h1.8v1.67h.09c.34-.57.86-1.05 1.55-1.44.69-.39 1.47-.58 2.33-.58 1.03 0 1.95.26 2.77.77.82.51 1.47 1.22 1.95 2.13.47.91.71 1.93.71 3.06s-.24 2.17-.71 3.07c-.48.9-1.13 1.61-1.95 2.12-.83.51-1.75.77-2.77.77-.86 0-1.64-.2-2.33-.58-.69-.39-1.21-.86-1.55-1.42h-.09l.09 1.54v4.86h-1.89v-15.97zm7.42 9.35c.58-.35 1.04-.85 1.38-1.5.34-.64.51-1.39.51-2.24s-.17-1.6-.51-2.24-.8-1.14-1.38-1.5c-.58-.35-1.2-.53-1.85-.53s-1.29.18-1.86.53c-.57.35-1.03.85-1.38 1.5-.35.65-.52 1.39-.52 2.24s.17 1.6.52 2.24c.35.65.81 1.14 1.38 1.5.57.35 1.19.53 1.86.53s1.27-.18 1.85-.53zm12.57 1.74c-.65-.32-1.16-.77-1.52-1.33s-.54-1.21-.54-1.92c0-1.19.45-2.12 1.36-2.78.91-.67 2.05-1 3.43-1 .68 0 1.32.07 1.91.22.59.15 1.04.32 1.35.51v-.68c0-.84-.3-1.51-.89-2.01-.59-.51-1.34-.76-2.25-.76-.62 0-1.21.14-1.75.41-.54.27-.97.65-1.28 1.13l-1.43-1.06c.45-.67 1.06-1.2 1.85-1.58.79-.38 1.66-.57 2.61-.57 1.54 0 2.76.4 3.63 1.2.88.8 1.31 1.89 1.31 3.27v7.11h-1.8v-1.61h-.09c-.33.54-.82 1-1.47 1.39s-1.39.57-2.21.57-1.58-.16-2.23-.48zm4.19-1.65c.55-.32.99-.75 1.31-1.3.33-.54.49-1.14.49-1.78a4.39 4.39 0 00-1.31-.57c-.52-.15-1.07-.22-1.65-.22-1.04 0-1.82.21-2.35.64s-.79.98-.79 1.65c0 .62.24 1.12.71 1.5.47.38 1.08.57 1.8.57.64 0 1.23-.16 1.78-.48zm6.24-13.97h1.89v15.75h-1.89V124.2zm4.7 0h1.89v15.75h-1.89V124.2zm13.32 15.52c-.69-.39-1.21-.86-1.55-1.42h-.09v1.65h-1.81V124.2h1.89v4.64l-.09 1.56h.09c.34-.57.86-1.05 1.55-1.44.69-.39 1.47-.58 2.33-.58 1.03 0 1.95.26 2.77.77.83.51 1.47 1.22 1.95 2.13.47.91.71 1.93.71 3.06s-.24 2.17-.71 3.07c-.48.9-1.12 1.61-1.95 2.12-.82.51-1.75.77-2.77.77-.86 0-1.64-.2-2.33-.58zm3.97-1.64c.58-.35 1.04-.85 1.38-1.5.34-.64.51-1.39.51-2.24s-.17-1.6-.51-2.24-.8-1.14-1.38-1.5c-.58-.35-1.2-.53-1.85-.53s-1.29.18-1.86.53c-.57.35-1.03.85-1.38 1.5s-.52 1.39-.52 2.24.17 1.6.52 2.24c.35.65.81 1.14 1.38 1.5.57.35 1.19.53 1.86.53s1.27-.18 1.85-.53zm6.04-11.81c-.27-.26-.4-.58-.4-.95s.13-.7.4-.96.59-.38.96-.38.71.13.97.38c.26.26.39.58.39.96s-.13.68-.39.95c-.26.26-.58.4-.97.4s-.69-.13-.96-.4zm.02 2.46h1.89v11.22h-1.89v-11.22zm4.86-4.53h1.89v15.75h-1.89V124.2zm4.7 0h1.89v15.75h-1.89V124.2zm5.51 15.26c-.82-.56-1.4-1.29-1.74-2.17l1.69-.75c.28.67.7 1.2 1.26 1.56.56.37 1.17.55 1.84.55.71 0 1.32-.14 1.83-.43s.76-.69.76-1.22c0-.47-.2-.85-.6-1.13s-1.03-.53-1.89-.74l-1.38-.35c-.91-.22-1.65-.59-2.23-1.12-.58-.53-.87-1.21-.87-2.05 0-.65.2-1.21.59-1.71.39-.49.92-.87 1.57-1.13s1.36-.4 2.12-.4c1 0 1.88.21 2.66.64.78.43 1.33 1.02 1.66 1.78l-1.65.75c-.5-1-1.4-1.5-2.7-1.5-.62 0-1.17.14-1.64.43s-.7.65-.7 1.09c0 .41.16.75.49 1 .33.26.82.47 1.47.63l1.65.42c1.11.28 1.95.69 2.52 1.24s.85 1.22.85 2.01c0 .69-.2 1.29-.6 1.82s-.94.92-1.63 1.2c-.68.28-1.44.42-2.27.42-1.22 0-2.24-.28-3.05-.85zM30.54 157.68c0-.23-.04-.44-.11-.62s-.19-.34-.37-.49-.42-.29-.72-.42-.7-.27-1.17-.4c-.49-.15-.94-.31-1.33-.49-.4-.18-.74-.39-1.02-.62-.28-.23-.5-.5-.65-.8s-.23-.64-.23-1.03.08-.75.24-1.07c.16-.33.39-.61.69-.86.3-.24.66-.43 1.07-.57.42-.14.88-.21 1.39-.21.75 0 1.38.14 1.9.43.52.28.92.66 1.19 1.11.27.46.41.95.41 1.47h-1.31c0-.37-.08-.71-.24-.99-.16-.29-.4-.52-.72-.68-.32-.17-.73-.25-1.23-.25-.47 0-.86.07-1.16.21-.31.14-.53.33-.68.57s-.22.52-.22.83c0 .21.04.4.13.57.09.17.23.33.42.48s.43.28.72.4.65.24 1.06.36c.57.16 1.05.34 1.46.53s.75.42 1.02.66c.27.24.46.52.59.83.13.31.19.66.19 1.04s-.08.77-.25 1.1-.4.61-.7.84c-.31.23-.67.41-1.1.54-.43.12-.9.19-1.43.19-.46 0-.91-.06-1.36-.19s-.85-.32-1.21-.57-.65-.57-.87-.95c-.22-.38-.33-.81-.33-1.31h1.31c0 .34.07.63.2.88.13.24.31.45.54.6s.49.28.79.35c.29.07.6.11.92.11.46 0 .85-.06 1.17-.19.32-.13.56-.31.73-.55s.25-.52.25-.84zm7.59-1.96v.89h-1.26c-.36 0-.68.03-.96.09-.28.06-.52.14-.71.26s-.34.26-.44.43c-.1.17-.15.37-.15.6s.05.44.16.64.26.34.47.45c.21.11.47.17.78.17.39 0 .73-.08 1.03-.25s.53-.36.71-.6c.18-.24.27-.47.28-.69l.54.61c-.03.19-.12.4-.26.64s-.33.45-.56.67c-.23.21-.51.39-.83.53-.32.14-.68.21-1.08.21-.5 0-.94-.1-1.32-.29-.38-.2-.67-.46-.88-.79-.21-.33-.31-.7-.31-1.11s.08-.75.23-1.05c.16-.3.38-.56.67-.76.29-.2.64-.36 1.05-.46s.87-.16 1.37-.16h1.47zm-.22 3.21v-3.81c0-.29-.06-.55-.17-.76-.12-.22-.29-.38-.52-.5s-.52-.18-.86-.18a2 2 0 00-.84.16c-.24.11-.43.25-.56.43-.13.18-.2.37-.2.57H33.5c0-.26.07-.53.21-.79s.33-.5.59-.71c.26-.21.57-.38.93-.51.36-.12.77-.19 1.21-.19.54 0 1.01.09 1.43.27.41.18.74.46.97.82.23.37.35.83.35 1.38v3.45c0 .25.02.51.06.79.04.28.11.52.2.72v.11h-1.32c-.06-.15-.11-.34-.15-.58-.04-.24-.05-.47-.05-.68zm3.92-6.13l1.92 5.74.33 1.33-.91.46-2.72-7.54h1.38zm1.51 6.63l2.06-6.63h1.35l-2.97 8.54c-.07.18-.16.38-.27.59-.11.21-.25.41-.43.61s-.38.35-.62.47-.54.18-.87.18c-.1 0-.23-.01-.38-.04s-.26-.05-.33-.07v-1.03l.17.02c.08 0 .14.01.17.01.29 0 .53-.04.73-.11.2-.08.37-.2.51-.38.14-.17.26-.42.36-.72l.53-1.44zm8.4-9.73h1.27v9.06l-.11 1.44h-1.16v-10.5zm6.27 6.74v.14c0 .54-.06 1.04-.19 1.49-.13.46-.31.86-.56 1.19s-.55.6-.9.79-.76.28-1.22.28-.88-.08-1.23-.24c-.35-.16-.65-.4-.89-.7-.24-.31-.43-.67-.58-1.11s-.24-.92-.3-1.46v-.63c.05-.55.15-1.04.3-1.47s.34-.8.58-1.11c.24-.31.54-.54.89-.71.35-.16.76-.24 1.22-.24s.88.09 1.24.27c.36.18.66.44.91.77s.43.73.56 1.19c.13.46.19.98.19 1.54zm-1.27.14v-.14c0-.37-.04-.72-.1-1.04-.07-.33-.18-.61-.33-.86-.15-.25-.35-.44-.59-.59-.25-.14-.55-.21-.91-.21-.32 0-.6.05-.83.16s-.43.26-.6.44c-.16.18-.3.39-.4.63-.1.23-.18.48-.23.73v1.65c.07.32.19.62.36.92.17.29.39.53.67.72s.63.28 1.04.28c.34 0 .63-.07.88-.21.24-.14.44-.33.59-.58s.27-.53.34-.85c.07-.32.11-.67.11-1.04zm3.56-3.78l1.92 5.74.33 1.33-.91.46-2.72-7.54h1.38zm1.51 6.63l2.06-6.63h1.35l-2.97 8.54c-.07.18-.16.38-.27.59-.11.21-.25.41-.43.61s-.38.35-.62.47-.54.18-.87.18c-.1 0-.23-.01-.38-.04s-.26-.05-.33-.07v-1.03l.17.02c.08 0 .14.01.17.01.29 0 .53-.04.73-.11.2-.08.37-.2.51-.38.14-.17.26-.42.36-.72l.53-1.44zm7.72.91c-.51 0-.98-.09-1.4-.26-.42-.17-.77-.42-1.07-.74s-.53-.7-.69-1.13c-.16-.44-.24-.92-.24-1.44v-.29c0-.6.09-1.14.27-1.61.18-.47.42-.87.72-1.2.31-.33.65-.58 1.04-.75.39-.17.79-.25 1.2-.25.53 0 .99.09 1.37.27s.7.44.95.76c.25.33.43.71.55 1.15.12.44.18.92.18 1.44v.57h-5.52v-1.03h4.26v-.1c-.02-.33-.08-.65-.2-.96s-.3-.57-.55-.77c-.25-.2-.59-.3-1.03-.3a1.676 1.676 0 00-1.41.72c-.17.24-.31.53-.4.87s-.14.74-.14 1.18v.29c0 .35.05.68.15.99.1.31.24.58.43.81s.42.42.69.55.58.2.93.2c.45 0 .83-.09 1.13-.27.31-.18.58-.43.81-.73l.77.61c-.16.24-.36.47-.61.69s-.55.4-.91.53-.78.21-1.27.21zm11.32-7.54v.97h-4v-.97h4zm-2.65-1.79h1.26v7.36c0 .25.04.44.12.57s.18.21.3.25.25.06.4.06c.1 0 .22-.01.33-.03.12-.02.21-.04.26-.05v1.03c-.09.03-.22.06-.39.09-.16.03-.36.04-.58.04-.31 0-.59-.06-.85-.18s-.47-.33-.62-.62c-.15-.29-.23-.68-.23-1.17V151zm3.86 5.57v-.16c0-.53.08-1.03.23-1.49.16-.46.38-.86.67-1.2.29-.34.65-.6 1.06-.79.41-.19.88-.28 1.39-.28s.99.09 1.4.28c.42.19.77.45 1.07.79.29.34.52.74.67 1.2.15.46.23.95.23 1.49v.16c0 .53-.08 1.03-.23 1.48s-.38.85-.67 1.19c-.29.34-.65.6-1.06.79-.41.19-.88.28-1.4.28s-.99-.09-1.4-.28a2.98 2.98 0 01-1.06-.79c-.29-.34-.52-.74-.67-1.19s-.23-.95-.23-1.48zm1.26-.15v.16c0 .37.04.72.13 1.04.09.33.22.61.39.87.17.25.39.45.66.59.26.14.57.21.92.21s.65-.07.91-.21c.26-.14.48-.34.65-.59s.3-.54.39-.87c.09-.33.13-.67.13-1.04v-.16c0-.36-.04-.71-.13-1.04-.09-.33-.22-.62-.4-.87-.18-.25-.39-.45-.66-.6-.26-.15-.57-.22-.92-.22s-.65.07-.91.22-.48.35-.66.6c-.18.25-.31.54-.39.87a3.9 3.9 0 00-.13 1.04zm13.99 3.91c-.52 0-.98-.09-1.4-.26a2.98 2.98 0 01-1.07-.74c-.3-.32-.53-.7-.69-1.13s-.24-.92-.24-1.44v-.29c0-.6.09-1.14.27-1.61.18-.47.42-.87.72-1.2s.65-.58 1.04-.75.79-.25 1.2-.25c.53 0 .99.09 1.37.27.38.18.7.44.95.76.25.33.43.71.55 1.15.12.44.18.92.18 1.44v.57h-5.52v-1.03h4.26v-.1c-.02-.33-.09-.65-.2-.96-.12-.31-.3-.57-.55-.77s-.59-.3-1.03-.3a1.676 1.676 0 00-1.41.72c-.17.24-.31.53-.4.87s-.14.74-.14 1.18v.29c0 .35.05.68.15.99.1.31.24.58.43.81.19.23.42.42.69.55.27.13.58.2.93.2.45 0 .82-.09 1.13-.27s.58-.43.81-.73l.77.61c-.16.24-.36.47-.61.69s-.55.4-.91.53c-.36.14-.78.21-1.27.21zm5.82-5.96v5.82h-1.26v-7.4h1.2l.07 1.58zm-.31 1.84l-.53-.02c0-.51.08-.97.23-1.41.15-.43.35-.8.62-1.12s.58-.57.95-.74c.37-.18.77-.26 1.22-.26.37 0 .69.05.98.15.29.1.54.25.75.47.21.21.37.49.48.83.11.34.16.75.16 1.24v4.85h-1.27v-4.86c0-.39-.06-.7-.17-.93a.996.996 0 00-.5-.51c-.22-.11-.49-.16-.81-.16a1.879 1.879 0 00-1.52.75c-.19.23-.33.5-.43.8-.1.3-.15.61-.15.95zm10.06-3.42v.97h-4v-.97h4zm-2.64-1.79h1.26v7.36c0 .25.04.44.12.57.08.13.18.21.3.25s.25.06.4.06c.1 0 .21-.01.33-.03.12-.02.2-.04.26-.05v1.03c-.09.03-.22.06-.39.09-.16.03-.36.04-.58.04-.31 0-.59-.06-.85-.18s-.47-.33-.62-.62c-.15-.29-.23-.68-.23-1.17V151zm7.39 9.33c-.52 0-.98-.09-1.4-.26-.42-.17-.78-.42-1.07-.74s-.53-.7-.69-1.13c-.16-.44-.24-.92-.24-1.44v-.29c0-.6.09-1.14.27-1.61.18-.47.42-.87.72-1.2.3-.33.65-.58 1.04-.75.39-.17.79-.25 1.2-.25.53 0 .98.09 1.37.27s.7.44.95.76c.25.33.43.71.55 1.15.12.44.18.92.18 1.44v.57h-5.52v-1.03h4.26v-.1c-.02-.33-.09-.65-.2-.96s-.3-.57-.55-.77c-.25-.2-.59-.3-1.03-.3a1.676 1.676 0 00-1.41.72c-.17.24-.31.53-.4.87s-.14.74-.14 1.18v.29c0 .35.05.68.15.99.1.31.24.58.43.81s.42.42.69.55.58.2.93.2c.45 0 .82-.09 1.13-.27.31-.18.58-.43.81-.73l.77.61c-.16.24-.36.47-.61.69s-.55.4-.91.53-.78.21-1.27.21zm5.82-6.37v6.23h-1.26v-7.4h1.23l.03 1.16zm2.31-1.21v1.18c-.11-.02-.21-.04-.3-.04h-.32c-.29 0-.55.05-.77.14s-.41.22-.57.38-.28.36-.37.58c-.09.23-.15.47-.17.74l-.36.21c0-.45.04-.87.13-1.26s.23-.74.41-1.04c.19-.3.42-.54.71-.71.29-.17.63-.26 1.04-.26.09 0 .2 0 .31.03.12.02.2.04.25.06zm1.37-1.92c0-.21.06-.38.19-.52.12-.14.31-.21.56-.21s.43.07.56.21c.13.14.2.31.2.52s-.06.36-.2.5c-.13.14-.31.21-.56.21s-.43-.07-.56-.21a.71.71 0 01-.19-.5zm1.37 1.96v7.4h-1.27v-7.4h1.27zm3.49 1.58v5.82h-1.27v-7.4h1.2l.07 1.58zm-.3 1.84l-.53-.02c0-.51.08-.97.23-1.41.15-.43.35-.8.62-1.12.26-.32.58-.57.95-.74.37-.18.77-.26 1.22-.26.37 0 .69.05.98.15.29.1.54.25.75.47s.37.49.48.83c.11.34.16.75.16 1.24v4.85h-1.27v-4.86c0-.39-.06-.7-.17-.93a.996.996 0 00-.5-.51c-.22-.11-.49-.16-.81-.16s-.6.07-.86.2-.48.31-.66.55-.33.5-.43.8c-.1.3-.15.61-.15.95zm6.66.36v-.14c0-.57.07-1.08.2-1.54.13-.46.33-.86.58-1.19.25-.33.56-.59.92-.77.36-.18.77-.27 1.22-.27s.87.08 1.22.24c.35.16.65.4.89.71.24.31.44.68.58 1.11s.24.92.29 1.47v.63c-.05.54-.15 1.03-.29 1.46-.14.43-.34.8-.58 1.11-.24.31-.54.54-.89.7-.35.16-.76.24-1.23.24-.44 0-.84-.09-1.2-.28-.36-.19-.66-.45-.92-.79s-.45-.73-.58-1.19c-.13-.46-.2-.96-.2-1.49zm5.09-3.78h1.15v7.24c0 .65-.13 1.21-.4 1.67s-.63.81-1.1 1.05c-.47.24-1.01.36-1.63.36-.25 0-.55-.04-.9-.12a3.73 3.73 0 01-1.01-.4c-.33-.19-.61-.44-.83-.76l.66-.75c.31.37.63.63.97.78.34.15.68.22 1.01.22.4 0 .75-.08 1.04-.23s.52-.37.68-.67c.16-.29.24-.66.24-1.08v-5.67l.12-1.63zm-3.82 3.64v.14c0 .37.04.72.11 1.04.08.32.19.61.35.85.16.25.36.44.6.58.25.14.54.21.88.21.42 0 .77-.09 1.04-.27s.49-.41.65-.7c.16-.29.29-.61.38-.95v-1.65c-.05-.25-.13-.49-.23-.73s-.23-.45-.4-.63c-.16-.19-.36-.33-.6-.44s-.52-.16-.83-.16c-.35 0-.64.07-.89.21-.25.14-.45.34-.61.59-.16.25-.27.54-.35.86-.07.33-.11.67-.11 1.04zm10.75-6.74h1.27v9.06l-.11 1.44h-1.16v-10.5zm6.27 6.74v.14c0 .54-.06 1.04-.19 1.49-.13.46-.31.86-.56 1.19s-.55.6-.9.79-.76.28-1.22.28-.88-.08-1.23-.24c-.35-.16-.65-.4-.89-.7-.24-.31-.43-.67-.58-1.11s-.24-.92-.3-1.46v-.63c.05-.55.15-1.04.3-1.47s.34-.8.58-1.11c.24-.31.54-.54.89-.71.35-.16.76-.24 1.22-.24s.88.09 1.24.27c.36.18.66.44.91.77s.43.73.56 1.19c.13.46.19.98.19 1.54zm-1.27.14v-.14c0-.37-.04-.72-.1-1.04-.07-.33-.18-.61-.33-.86-.15-.25-.35-.44-.59-.59-.25-.14-.55-.21-.91-.21-.32 0-.6.05-.83.16s-.43.26-.6.44c-.16.18-.3.39-.4.63-.1.23-.18.48-.23.73v1.65c.07.32.19.62.36.92.17.29.39.53.67.72s.63.28 1.04.28c.34 0 .63-.07.88-.21.24-.14.44-.33.59-.58s.27-.53.34-.85c.07-.32.11-.67.11-1.04zm3.07-5.74c0-.21.06-.38.19-.52s.31-.21.56-.21.43.07.56.21.19.31.19.52-.06.36-.19.5-.32.21-.56.21-.43-.07-.56-.21a.758.758 0 01-.19-.5zm1.37 1.96v7.4h-1.27v-7.4h1.27zm3.6-3.1v10.5h-1.27v-10.5h1.27zm3.6 0v10.5h-1.27v-10.5h1.27zM24.73 172.58v-.14c0-.57.07-1.08.21-1.54.14-.46.34-.86.59-1.19s.57-.59.92-.77c.36-.18.76-.27 1.2-.27.46 0 .87.08 1.22.24.35.16.64.4.89.71.24.31.44.68.58 1.11.14.43.24.92.29 1.47v.63c-.05.54-.15 1.03-.29 1.46s-.34.8-.58 1.11-.54.54-.89.7c-.35.16-.76.24-1.23.24-.43 0-.83-.09-1.19-.28s-.67-.45-.92-.79-.46-.73-.59-1.19a5.11 5.11 0 01-.21-1.49zm1.27-.14v.14c0 .37.04.72.11 1.04s.19.61.35.85c.16.25.36.44.61.58.25.14.54.21.88.21.42 0 .77-.09 1.04-.27s.49-.41.65-.7.29-.61.38-.95v-1.65c-.05-.25-.13-.49-.24-.73-.1-.24-.23-.45-.4-.63-.16-.19-.36-.33-.59-.44s-.51-.16-.83-.16c-.35 0-.64.07-.89.21-.25.14-.45.34-.61.59-.16.25-.28.54-.35.86-.08.33-.11.67-.11 1.04zm3.71 2.32v-9.06h1.27v10.5h-1.16l-.11-1.44zm6.5 1.58c-.51 0-.98-.09-1.4-.26-.42-.17-.78-.42-1.07-.74-.3-.32-.53-.7-.69-1.13s-.24-.92-.24-1.44v-.29c0-.6.09-1.14.27-1.61.18-.47.42-.87.72-1.2s.65-.58 1.04-.75.79-.25 1.2-.25c.53 0 .99.09 1.37.27.39.18.7.44.95.76.25.33.43.71.55 1.15.12.44.18.92.18 1.44v.57h-5.52v-1.03h4.26v-.1c-.02-.33-.08-.65-.2-.96-.12-.31-.3-.57-.55-.77s-.59-.3-1.03-.3a1.676 1.676 0 00-1.41.72c-.17.24-.31.53-.4.87s-.14.74-.14 1.18v.29c0 .35.05.68.15.99.1.31.24.58.43.81.19.23.42.42.69.55.27.13.58.2.93.2.45 0 .83-.09 1.13-.27s.58-.43.81-.73l.77.61c-.16.24-.36.47-.61.69s-.55.4-.91.53c-.36.14-.78.21-1.27.21zm7.64-7.54v.97h-4v-.97h4zm-2.64-1.79h1.26v7.36c0 .25.04.44.12.57s.18.21.3.25.25.06.4.06c.1 0 .22-.01.33-.03.12-.02.21-.04.26-.05v1.03c-.09.03-.22.06-.39.09-.16.03-.36.04-.58.04-.31 0-.59-.06-.85-.18s-.47-.33-.62-.62c-.15-.29-.23-.68-.23-1.17V167zm8.9 4.71v.89h-1.27c-.36 0-.68.03-.96.09-.28.06-.52.14-.71.26s-.34.26-.44.43c-.1.17-.15.37-.15.6s.05.44.16.64c.11.19.26.34.48.45.21.11.47.17.78.17.39 0 .73-.08 1.03-.25.3-.16.53-.36.71-.6s.27-.47.28-.69l.54.61c-.03.19-.12.4-.26.64-.14.23-.33.45-.56.67-.24.21-.51.39-.83.53-.32.14-.68.21-1.08.21-.5 0-.94-.1-1.32-.29s-.67-.46-.88-.79c-.21-.33-.31-.7-.31-1.11s.08-.75.23-1.05c.15-.3.38-.56.67-.76.29-.2.64-.36 1.05-.46s.87-.16 1.37-.16h1.47zm-.22 3.21v-3.81c0-.29-.06-.55-.17-.76-.12-.22-.29-.38-.52-.5s-.52-.18-.86-.18c-.32 0-.6.05-.84.16s-.43.25-.56.43-.2.37-.2.57h-1.27c0-.26.07-.53.21-.79s.33-.5.59-.71c.26-.21.57-.38.93-.51.36-.12.77-.19 1.21-.19.54 0 1.01.09 1.43.27s.74.46.97.82c.23.37.35.83.35 1.38v3.45c0 .25.02.51.07.79s.11.52.19.72v.11H50.1c-.06-.15-.11-.34-.15-.58-.04-.24-.05-.47-.05-.68zm3.46-8.09c0-.21.06-.38.19-.52s.31-.21.56-.21.43.07.56.21.19.31.19.52-.06.36-.19.5-.32.21-.56.21-.43-.07-.56-.21a.758.758 0 01-.19-.5zm1.37 1.96v7.4h-1.27v-7.4h1.27zm3.6-3.1v10.5h-1.27v-10.5h1.27zm6.53 8.54c0-.18-.04-.35-.12-.51-.08-.16-.24-.3-.49-.43-.24-.13-.61-.24-1.1-.34-.41-.09-.78-.19-1.11-.31s-.61-.26-.84-.43-.41-.37-.53-.59-.19-.49-.19-.8.07-.57.2-.83.31-.49.55-.69.53-.36.86-.47c.34-.11.71-.17 1.13-.17.59 0 1.1.1 1.52.31.42.21.74.49.96.84.22.35.34.73.34 1.16h-1.27c0-.21-.06-.4-.18-.6-.12-.19-.3-.35-.53-.48s-.51-.19-.84-.19c-.35 0-.63.05-.85.16-.22.11-.37.24-.47.41s-.15.34-.15.52c0 .14.02.26.07.37.05.11.13.21.26.29.12.09.3.17.52.25.22.08.51.16.86.23.61.14 1.1.3 1.5.49.39.19.68.43.88.7s.29.62.29 1.01c0 .32-.07.62-.2.89s-.33.5-.58.69c-.25.19-.55.34-.9.45-.35.11-.74.16-1.17.16-.65 0-1.2-.12-1.65-.35s-.79-.53-1.03-.9-.35-.76-.35-1.17h1.27c.02.35.12.62.3.82.18.2.41.35.67.43.26.08.53.13.79.13.35 0 .64-.05.87-.14s.41-.22.54-.38.19-.34.19-.55zm8.04-3.97v5.93h-1.27v-7.4h1.2l.07 1.47zm-.26 1.95l-.59-.02c0-.51.07-.97.2-1.41.13-.43.32-.8.57-1.12s.56-.57.94-.74c.37-.18.81-.26 1.3-.26.35 0 .67.05.96.15.29.1.54.25.76.46s.38.48.5.81.18.72.18 1.19v4.93h-1.26v-4.87c0-.39-.06-.7-.2-.93-.13-.23-.31-.4-.55-.51-.24-.11-.51-.16-.83-.16-.37 0-.69.07-.94.2s-.45.31-.6.55-.26.5-.32.8c-.07.3-.1.61-.1.95zm4.79-.7l-.85.26c0-.41.07-.79.2-1.17.13-.37.32-.71.57-1 .25-.29.55-.52.92-.69.37-.17.78-.26 1.25-.26.4 0 .75.05 1.06.16.31.1.57.27.78.48.21.22.37.49.48.83s.16.74.16 1.2v4.86h-1.27v-4.87c0-.42-.06-.74-.2-.97-.13-.23-.31-.39-.55-.48-.23-.09-.51-.14-.84-.14-.28 0-.52.05-.74.14s-.39.23-.54.39c-.15.17-.26.36-.33.57-.07.21-.11.44-.11.68zm11.27.2v.89h-1.26c-.36 0-.68.03-.96.09-.28.06-.52.14-.71.26s-.34.26-.44.43c-.1.17-.15.37-.15.6s.05.44.16.64.26.34.47.45c.21.11.47.17.78.17.39 0 .73-.08 1.03-.25s.53-.36.71-.6c.18-.24.27-.47.28-.69l.54.61c-.03.19-.12.4-.26.64s-.33.45-.56.67c-.23.21-.51.39-.83.53-.32.14-.68.21-1.08.21-.5 0-.94-.1-1.32-.29-.38-.2-.67-.46-.88-.79-.21-.33-.31-.7-.31-1.11s.08-.75.23-1.05c.16-.3.38-.56.67-.76.29-.2.64-.36 1.05-.46s.87-.16 1.37-.16h1.47zm-.22 3.21v-3.81c0-.29-.06-.55-.17-.76-.12-.22-.29-.38-.52-.5s-.52-.18-.86-.18a2 2 0 00-.84.16c-.24.11-.43.25-.56.43-.13.18-.2.37-.2.57h-1.26c0-.26.07-.53.21-.79s.33-.5.59-.71c.26-.21.57-.38.93-.51.36-.12.77-.19 1.21-.19.54 0 1.01.09 1.43.27.41.18.74.46.97.82.23.37.35.83.35 1.38v3.45c0 .25.02.51.06.79.04.28.11.52.2.72v.11h-1.32c-.06-.15-.11-.34-.15-.58-.04-.24-.05-.47-.05-.68zm4.71-4.55v5.82h-1.26v-7.4h1.2l.07 1.58zm-.3 1.84l-.53-.02c0-.51.08-.97.22-1.41.15-.43.35-.8.62-1.12.26-.32.58-.57.95-.74.37-.18.77-.26 1.22-.26.36 0 .69.05.98.15.29.1.54.25.75.47s.37.49.47.83c.11.34.16.75.16 1.24v4.85h-1.27v-4.86c0-.39-.06-.7-.17-.93a.996.996 0 00-.5-.51c-.22-.11-.49-.16-.81-.16s-.6.07-.86.2-.48.31-.66.55-.33.5-.43.8c-.1.3-.15.61-.15.95zm11.73.71h.53c0 .48-.05.93-.15 1.35-.1.42-.27.78-.5 1.08s-.53.54-.9.71c-.37.17-.82.26-1.35.26-.36 0-.69-.05-.99-.16-.3-.1-.55-.27-.77-.49s-.38-.5-.5-.85-.17-.77-.17-1.26v-4.77h1.26v4.79c0 .33.04.61.11.82.07.22.18.39.31.51.13.13.28.21.44.26.16.05.33.08.5.08.54 0 .96-.1 1.28-.31.31-.21.54-.49.68-.84s.21-.75.21-1.18zm-.24 1.56v-5.69h1.27v7.4h-1.21l-.06-1.71zm7.97-2.77v.89h-1.26c-.36 0-.68.03-.96.09-.28.06-.52.14-.71.26s-.34.26-.44.43c-.1.17-.15.37-.15.6s.05.44.16.64.26.34.47.45c.21.11.47.17.78.17.39 0 .73-.08 1.03-.25s.53-.36.71-.6c.18-.24.27-.47.28-.69l.54.61c-.03.19-.12.4-.26.64s-.33.45-.56.67c-.23.21-.51.39-.83.53-.32.14-.68.21-1.08.21-.5 0-.94-.1-1.32-.29-.38-.2-.67-.46-.88-.79-.21-.33-.31-.7-.31-1.11s.08-.75.23-1.05c.16-.3.38-.56.67-.76.29-.2.64-.36 1.05-.46s.87-.16 1.37-.16h1.47zm-.22 3.21v-3.81c0-.29-.06-.55-.17-.76-.12-.22-.29-.38-.52-.5s-.52-.18-.86-.18a2 2 0 00-.84.16c-.24.11-.43.25-.56.43-.13.18-.2.37-.2.57h-1.26c0-.26.07-.53.21-.79s.33-.5.59-.71c.26-.21.57-.38.93-.51.36-.12.77-.19 1.21-.19.54 0 1.01.09 1.43.27.41.18.74.46.97.82.23.37.35.83.35 1.38v3.45c0 .25.02.51.06.79.04.28.11.52.2.72v.11h-1.32c-.06-.15-.11-.34-.15-.58-.04-.24-.05-.47-.05-.68zm4.83-9.23v10.5h-1.27v-10.5h1.27zm3.6 0v10.5h-1.27v-10.5h1.27zm2.79 3.1l1.92 5.74.33 1.33-.91.46-2.72-7.54h1.38zm1.51 6.63l2.06-6.63h1.35l-2.97 8.54c-.07.18-.16.38-.27.59-.11.21-.25.41-.43.61s-.38.35-.62.47-.54.18-.87.18c-.1 0-.23-.01-.38-.04s-.26-.05-.33-.07v-1.03l.17.02c.08 0 .14.01.17.01.29 0 .53-.04.73-.11.2-.08.37-.2.51-.38.14-.17.26-.42.36-.72l.53-1.44z" fill="#1f1f1f"/></svg>